<?xml version="1.0" standalone="no"?>
<!DOCTYPE svg PUBLIC "-//W3C//DTD SVG 1.1//EN" "http://www.w3.org/Graphics/SVG/1.1/DTD/svg11.dtd" >
<!--
2013-9-30: Created.
-->
<svg>
<metadata>
Created by iconfont
</metadata>
<defs>

<font id="xuifont" horiz-adv-x="1024" >
  <font-face
    font-family="xuifont"
    font-weight="500"
    font-stretch="normal"
    units-per-em="1024"
    ascent="896"
    descent="-128"
  />
    <missing-glyph />
    
    <glyph glyph-name="x" unicode="x" horiz-adv-x="1001"
d="M281 543q-27 -1 -53 -1h-83q-18 0 -36.5 -6t-32.5 -18.5t-23 -32t-9 -45.5v-76h912v41q0 16 -0.5 30t-0.5 18q0 13 -5 29t-17 29.5t-31.5 22.5t-49.5 9h-133v-97h-438v97zM955 310v-52q0 -23 0.5 -52t0.5 -58t-10.5 -47.5t-26 -30t-33 -16t-31.5 -4.5q-14 -1 -29.5 -0.5
t-29.5 0.5h-32l-45 128h-439l-44 -128h-29h-34q-20 0 -45 1q-25 0 -41 9.5t-25.5 23t-13.5 29.5t-4 30v167h911zM163 247q-12 0 -21 -8.5t-9 -21.5t9 -21.5t21 -8.5q13 0 22 8.5t9 21.5t-9 21.5t-22 8.5zM316 123q-8 -26 -14 -48q-5 -19 -10.5 -37t-7.5 -25t-3 -15t1 -14.5
t9.5 -10.5t21.5 -4h37h67h81h80h64h36q23 0 34 12t2 38q-5 13 -9.5 30.5t-9.5 34.5q-5 19 -11 39h-368zM336 498v228q0 11 2.5 23t10 21.5t20.5 15.5t34 6h188q31 0 51.5 -14.5t20.5 -52.5v-227h-327z" />
    

    
    <glyph glyph-name="icon-arrowright" unicode="&#58955;" d="M198.016 652.992q10.016 0 16.992-7.008l262.016-262.016-262.016-260.992q-16.992-16.992-33.504 0t0.512 34.016L410.016 384 182.016 612q-16.992 16.992 0 34.016 6.016 7.008 16 7.008z"  horiz-adv-x="1024" />

    
    <glyph glyph-name="icon-arrowleft" unicode="&#58956;" d="M359.008 115.008q-10.016 0-16.992 7.008l-260.992 262.016 260.992 260.992q16.992 16.992 34.016 0t0-34.016L148.032 384l228-228q16.992-16.992 0-34.016-7.008-7.008-16.992-7.008z"  horiz-adv-x="1024" />

    
    <glyph glyph-name="icon-arrowtop" unicode="&#58957;" d="M742.016 505.984L512 756.992l-230.016-251.008q-7.008-7.008-16-7.008t-16 6.496-7.008 16 7.008 15.488l244.992 268q7.008 6.016 16.992 6.016t16.992-6.016l244.992-268q7.008-6.016 7.008-15.488t-7.008-16-16-6.496-16 7.008z"  horiz-adv-x="1024" />

    
    <glyph glyph-name="icon-back" unicode="&#58958;" d="M144.992 541.984l291.008-288.992v175.008q27.008 0 45.504-0.512t54.016-5.504 60.512-13.504 55.488-26.496 50.016-42.496 32.512-63.488 12.992-88.992q0-92.992-56.512-164t-142.496-88.992q138.016 19.008 231.008 128t92.992 255.008q0 58.016-13.504 108t-34.496 85.504-52 64-61.504 46.016-68.512 30.496T576 670.528t-60.992 10.016-48 4-31.008 0.512V834.048z"  horiz-adv-x="1024" />

    
    <glyph glyph-name="icon-bgcolor" unicode="&#58959;" d="M512 51.008z m0 668q-102.016 0-188-33.504T186.496 591.008t-51.488-136q0-76 50.496-145.504t138.496-112.992 187.008-43.488h2.016q12 98.016 111.488 164.992t234.496 67.008h18.016q0.992 6.016 6.496 15.008t5.504 18.016q0 76-51.008 145.504T699.52 676.064t-187.488 43.008z m-225.984-376q-31.008 0-53.504 22.016t-22.496 53.504 22.496 53.504 53.504 22.016 52.992-22.016 22.016-53.504-22.016-53.504-52.992-22.016z m132 188q-24 0-40.512 16.512t-16.512 40 16.512 40 40 16.512 40-16.512 16.512-40-16.512-40-39.488-16.512z m185.984 40q-19.008 0-32.512 13.504t-13.504 32.992 13.504 32.992 32.992 13.504 32.992-13.504 13.504-32.992-13.504-32.992-33.504-13.504z m134.016-76q-16 0-26.496 10.496t-10.496 26.016 10.496 26.496 26.016 11.008 26.496-11.008 11.008-26.496-11.008-26.016-26.016-10.496z"  horiz-adv-x="1024" />

    
    <glyph glyph-name="icon-bold" unicode="&#58960;" d="M446.016 108q32.992-14.016 62.016-14.016 166.016 0 166.016 148 0 50.016-18.016 79.008-12 20-27.008 32.992t-30.016 20.512-35.488 11.008-36.992 4.512-41.504 0.992q-32 0-44.992-4v-140q0-4-0.512-30.016t-0.512-42.496 2.016-36.992 4.992-29.504z m-6.016 328.992q19.008-3.008 48-3.008 36 0 63.008 6.016t48.992 20 32.992 39.488 11.008 62.496q0 31.008-12.992 54.016t-35.008 36-47.488 19.488-54.496 6.496q-22.016 0-58.016-6.016 0-22.016 2.016-66.496t2.016-67.488v-100.992z m-239.008-392l0.992 40.992q7.008 2.016 38.016 7.488t46.016 11.488q4 6.016 6.016 12.512t3.488 14.496 2.496 14.496 1.504 16.512 0.512 15.008v28.992q0 434.016-10.016 452Q288 662.976 280 665.984t-19.488 4.992-21.504 3.008-21.504 2.016-13.504 0.992l-2.016 36.992Q244.992 714.976 352 718.976t164.992 4h60q31.008 0 60-6.016t56.512-19.008 48-31.488 32.512-46.016 12-60.512q0-23.008-7.008-42.016t-16.992-31.488-28.512-25.504-32-20-37.504-18.016q68-15.008 113.504-59.008t45.504-108.992q0-44-15.488-79.488t-41.504-58.016-60.992-37.504-72-21.504-78.016-5.504q-19.008 0-58.016 0.992t-58.016 0.992q-47.008 0-135.488-4.992t-102.496-4.992z"  horiz-adv-x="1024" />

    
    <glyph glyph-name="icon-circle" unicode="&#58961;" d="M512 119.008q-110.016 0-187.488 77.504T247.008 384t77.504 187.488T512 648.992t187.488-77.504T776.992 384t-77.504-187.488T512 119.008zM512 608q-92.992 0-158.496-65.504T288 384t65.504-158.496T512 160t158.496 65.504T736 384t-65.504 158.496T512 608z"  horiz-adv-x="1024" />

    
    <glyph glyph-name="icon-breaklink" unicode="&#58962;" d="M443.008 492l-110.016-110.016q-8.992-8.992-8.992-21.504t8.992-21.504 21.504-8.992 21.504 8.992l116.992 116.992v32l-50.016-50.016v54.016z m168-36q12-3.008 23.008 4t13.504 19.008-4 23.008-18.496 14.016l-95.008 22.016-46.016-28.992 68.992-16q-20-12-27.008-16.992zM256 184q-11.008-11.008-34.496-11.008t-34.496 11.008l-11.008 10.016q-10.016 12.992-3.008 43.008T192 279.04l86.016 86.016q0.992 0.992 10.496 11.488t16 18.496 15.488 24.512 15.008 35.488q-31.008 6.016-62.496-3.008t-54.496-32.992l-91.008-91.008q-38.016-38.016-38.016-91.488t38.016-91.488l11.008-10.016q38.016-38.016 91.488-38.016t91.488 38.016l91.008 91.008q24.992 24 33.504 56.512t1.504 64.512q-32.992-16.992-100-72.992zM706.016 612.992q-66.016 16-116-30.016 11.008-8.992 24-15.008t38.016-15.008 38.016-14.016l120.992-28q16-4 32-25.504t12-36.512l-3.008-14.016q-4-16-24.992-32t-36.992-12l-123.008 28q-10.016 2.016-30.496 4.512t-28 3.488-20.512 2.016-20.512 0-14.496-3.008q11.008-30.016 35.008-51.008t56-28.992l126.016-28.992q52-12 98.016 16.512t58.016 80.512l3.008 15.008q12 52-16.512 97.504t-80.512 57.504z m-323.008-3.008l-23.008-55.008 70.016-26.016z m152.992 34.016l-36.992-23.008 30.016-44.992zM448 687.008l-38.016 2.016 52.992-116z"  horiz-adv-x="1024" />

    
    <glyph glyph-name="icon-circledown" unicode="&#58963;" d="M860 384q0 94.016-46.496 174.496t-127.008 127.008T512 732t-174.496-46.496-127.008-127.008T164 384t46.496-174.496 127.008-127.008T512 36t174.496 46.496 127.008 127.008T860 384zM230.016 384q0 116.992 82.496 199.488T512 665.984t199.488-82.496T793.984 384t-82.496-199.488T512 102.016t-199.488 82.496T230.016 384z m149.984 107.008l-62.016-62.016L512 236l194.016 192.992-62.016 62.016L512 359.008z"  horiz-adv-x="1024" />

    
    <glyph glyph-name="icon-circleleft" unicode="&#58964;" d="M512 36q94.016 0 174.496 46.496t127.008 127.008T860 384t-46.496 174.496-127.008 127.008T512 732t-174.496-46.496-127.008-127.008T164 384t46.496-174.496 127.008-127.008T512 36z m0 629.984q116.992 0 199.488-82.496T793.984 384t-82.496-199.488T512 102.016t-199.488 82.496T230.016 384t82.496 199.488T512 665.984z m107.008-149.984l-62.016 62.016L364 384l192.992-194.016 62.016 62.016L487.008 384z"  horiz-adv-x="1024" />

    
    <glyph glyph-name="icon-circleright" unicode="&#58965;" d="M512 732q-94.016 0-174.496-46.496t-127.008-127.008T164 384t46.496-174.496 127.008-127.008T512 36t174.496 46.496 127.008 127.008T860 384t-46.496 174.496-127.008 127.008T512 732z m0-630.016q-116.992 0-199.488 82.496t-82.496 199.488 82.496 199.488T512 665.952t199.488-82.496 82.496-199.488-82.496-199.488T512 101.984z m-107.008 150.016l62.016-62.016L660 384l-192.992 194.016-62.016-62.016L536.992 384z"  horiz-adv-x="1024" />

    
    <glyph glyph-name="icon-circleup" unicode="&#58966;" d="M164 384q0-94.016 46.496-174.496t127.008-127.008T512 36t174.496 46.496 127.008 127.008T860 384t-46.496 174.496-127.008 127.008T512 732t-174.496-46.496-127.008-127.008T164 384z m630.016 0q0-116.992-82.496-199.488t-199.488-82.496-199.488 82.496T230.048 384t82.496 199.488 199.488 82.496 199.488-82.496T794.016 384z m-150.016-107.008l62.016 62.016L512 532l-194.016-192.992 62.016-62.016L512 408.992z"  horiz-adv-x="1024" />

    
    <glyph glyph-name="icon-clock" unicode="&#58967;" d="M512 680.992q-94.016 0-173.504-46.496T212.48 508.48t-46.496-173.504T212.48 160.96t126.016-126.496T512-12.032t173.504 46.496 126.016 126.496 46.496 174.016-46.496 173.504-126.016 126.016T512 680.992z m0-624.992q-115.008 0-196.512 81.504t-81.504 196.992 81.504 196.992T512 612.992t196.512-81.504 81.504-196.992-81.504-196.992T512 56z m327.008 501.984q19.008 34.016 19.008 72.992 0 62.016-43.488 105.504t-104.512 43.488q-72.992 0-118.016-58.016 76-16 140-58.496t107.008-105.504zM432 721.984q-44.992 58.016-118.016 58.016-60.992 0-104.512-43.488T165.984 631.008q0-39.008 19.008-72.992 43.008 63.008 107.008 105.504T432 722.016zM512 335.008v196.992h-48.992v-247.008h196.992v50.016H512z"  horiz-adv-x="1024" />

    
    <glyph glyph-name="icon-bigup" unicode="&#58968;" d="M790.016 667.008L531.008 889.024Q526.016 894.016 512 893.024q-7.008 0-12.992-2.016-8-3.008-12.992-8L483.008 880 226.016 657.984q-6.016-3.008-4.992-19.008t11.008-26.016 26.016-10.496 19.008 4.512l198.016 170.016V-96q0-8 11.008-18.016t24.992-10.016 25.504 10.016 11.488 18.016V779.008l190.016-163.008q28-28 53.504-2.016t-1.504 52.992z"  horiz-adv-x="1024" />

    
    <glyph glyph-name="icon-code" unicode="&#58969;" d="M95.008 383.008q0 112.992 55.488 208.992t152 152.512 210.496 57.504q114.016 0 210.016-56t152-152.992 56-210.016q0-114.016-56-210.496t-152.512-152.512T512-36q-112.992 0-209.504 56.512t-152 152.992-55.488 209.504z m792 4.992q-0.992 103.008-52.992 188.992t-140.512 134.496-190.496 45.504q-100.992-2.016-184.512-53.504t-132-137.504-47.488-186.016q0.992-104 52.992-190.496t140.992-135.488 192-46.016q100 3.008 184 54.496t132 138.016 46.016 187.488z m-432-231.008q-6.016 0.992-16 4-12.992 3.008-14.016 3.008-3.008 0.992-2.016 4.992 7.008 28 20.512 79.488t17.504 65.504q8.992 36 28 108t28 108q10.016 38.016 18.016 66.016 0.992 4 4.992 3.008 11.008-3.008 26.016-7.008 4-0.992 3.008-4.992-4-16-12-46.016t-8.992-34.016q-24.992-96.992-38.016-144.992l-40-152.992Q461.024 176 457.024 160q-0.992-3.008-2.016-3.008z m-58.016 364q0-0.992 2.016-2.016l20-20q3.008-3.008 0-6.016-20-19.008-58.496-58.016t-57.504-58.016q-4-3.008 0-7.008 36-36 107.008-108 4-3.008 4-4t-3.008-4l-18.016-18.016h-7.008l-123.008 123.008q-14.016 15.008 0 28.992 64.992 64.992 131.008 130.016z m366.016-140q0-8-7.008-15.008l-130.016-130.016q-3.008-3.008-6.016 0l-19.008 19.008q-4 3.008 0 6.016 16 16.992 48.512 49.504l48.992 48.992 18.496 17.504q3.008 3.008 0 7.008-12 12-50.496 50.016t-58.496 59.008q-4 3.008 0 6.016 4.992 4.992 19.008 20 3.008 2.016 4.992 0l124.992-124.992q6.016-6.016 6.016-12.992z"  horiz-adv-x="1152" />

    
    <glyph glyph-name="icon-dialog" unicode="&#58970;" d="M824.992 755.008H198.976q-24 0-40.992-16.992t-16.992-40.992v-626.016q0-24 16.992-40.992t40.992-16.992h626.016q24 0 40.992 16.992t16.992 40.992V697.024q0 24-16.992 40.992t-40.992 16.992z m-39.488-66.016q10.496 0 18.016-7.488t7.488-18.016-7.488-17.504-18.016-7.008T768 645.984t-7.008 17.504 7.008 18.016 17.504 7.488z m-88.992 0q10.496 0 17.504-7.488t7.008-18.016-7.008-17.504-17.504-7.008-18.016 7.008-7.488 17.504 7.488 18.016 18.016 7.488zM556.992 80H206.976V576.992h350.016V80z m260 0h-235.008V576.992h235.008V80z m-26.976 352h-176.992v110.016h176.992V432z m0-154.016h-176.992v111.008h176.992v-111.008z m0-156h-176.992v111.008h176.992v-111.008z"  horiz-adv-x="1024" />

    
    <glyph glyph-name="icon-bullet" unicode="&#58971;" d="M284 661.984q22.016 0 36.512-14.496t14.496-35.488v-39.008q0-22.016-14.496-36.512t-36.512-14.496h-40q-20.992 0-36 14.496t-15.008 36.512V612q0 20.992 15.008 35.488t36 14.496h40z m524 0q20 0 35.008-14.496t15.008-35.488v-39.008q0-22.016-15.008-36.512t-35.008-14.496H481.984q-20.992 0-36 14.496t-15.008 36.512V612q0 20.992 15.008 35.488t36 14.496H808zM284 424.992q22.016 0 36.512-15.008t14.496-36v-39.008q0-20.992-14.496-36t-36.512-15.008h-40q-20.992 0-36 15.008t-15.008 36v39.008q0 20.992 15.008 36t36 15.008h40z m524 0q20 0 35.008-15.008t15.008-36v-39.008q0-20.992-14.496-36t-35.488-15.008H482.016q-20.992 0-36 15.008t-15.008 36v39.008q0 20.992 15.008 36t36 15.008h326.016zM284 187.008q22.016 0 36.512-15.008t14.496-36v-39.008q0-20.992-14.496-36t-36.512-15.008h-40q-20.992 0-36 15.008t-15.008 36V136q0 20.992 15.008 36t36 15.008h40z m524 0q20 0 35.008-15.008t15.008-36v-39.008q0-20.992-14.496-36t-35.488-15.008H482.016q-20.992 0-36 15.008t-15.008 36V136q0 20.992 15.008 36t36 15.008h326.016z"  horiz-adv-x="1024" />

    
    <glyph glyph-name="icon-date" unicode="&#58972;" d="M408.992 176h40.992v200.992h-32.992q-2.016-11.008-7.488-19.008t-12.992-12.512-17.504-6.496-20.992-2.016v-30.016h51.008v-131.008z m185.504 41.504q-4.512-5.504-10.496-8.512-7.008-4-15.008-4-14.016 0-23.008 8.512t-10.016 22.496h-40.992q0-16 6.016-28t16.992-20q10.016-8 23.488-12t28.512-4 28.992 4.992q12.992 4.992 23.488 15.008t16.512 23.488 6.016 28.512-4.512 27.008-12.512 22.016q-7.008 8.992-19.008 14.496t-27.008 5.504q-11.008 0-20.992-4-10.016-3.008-18.016-12l-0.992 0.992 8 46.016h84v32.992H520.96l-20-111.008h36.992q6.016 8 12.992 12t18.016 4q8 0 14.496-3.008t11.488-8q4-4.992 6.496-12t2.496-14.496-2.496-14.496-7.008-12.512zM320 568h48q4.992 0 8.992 4t4 8.992V685.984q0 4.992-4 8.992t-8.992 4H320q-4.992 0-8.992-4t-4-8.992v-104.992q0-4.992 4-8.992t8.992-4z m336 0H704q4.992 0 8.992 4t4 8.992V685.984q0 4.992-4 8.992T704 698.976h-48q-4.992 0-8.992-4t-4-8.992v-104.992q0-4.992 4-8.992t8.992-4z m104 80.992h-16.992v-68q0-16-11.488-27.488t-27.488-11.488h-48q-16 0-27.488 11.488t-11.488 27.488V648.992H407.04v-68q0-16-11.488-27.488t-27.488-11.488h-48q-16 0-27.488 11.488t-11.488 27.488V648.992h-16.992q-32 0-54.016-22.496t-22.016-53.504v-428q0-31.008 22.016-53.504t54.016-22.496h496q32 0 54.016 22.016t22.016 54.016V573.024q0 31.008-22.016 53.504t-54.016 22.496z m28-504q0-12-8-20t-20-8H264q-12 0-20 8t-8 20V432h552v-287.008z"  horiz-adv-x="1024" />

    
    <glyph glyph-name="icon-doubledown" unicode="&#58973;" d="M796.992 402.496q0-7.488-6.016-13.504l-266.016-266.016q-6.016-6.016-12.992-6.016t-12.992 6.016L232.96 388.992q-6.016 6.016-6.016 13.504t6.016 12.512l28 28.992q6.016 6.016 13.504 6.016t12.512-6.016l224.992-224.992 224.992 224.992q4.992 6.016 12.512 6.016t13.504-6.016l28-28.992q6.016-4.992 6.016-12.512z m0 219.008q0-7.488-6.016-12.512l-266.016-267.008q-6.016-4.992-12.992-4.992t-12.992 4.992L232.96 608.992q-6.016 4.992-6.016 12.512t6.016 13.504l28 28q6.016 6.016 13.504 6.016t12.512-6.016l224.992-224 224.992 224q4.992 6.016 12.512 6.016t13.504-6.016l28-28q6.016-6.016 6.016-13.504z"  horiz-adv-x="1024" />

    
    <glyph glyph-name="icon-doubleleft" unicode="&#58974;" d="M578.016 109.504q0-7.488-6.016-12.512l-28.992-28.992q-4.992-6.016-12.512-6.016t-13.504 6.016l-266.016 266.016q-6.016 6.016-6.016 13.504t6.016 13.504l266.016 266.016q6.016 6.016 13.504 6.016t12.512-6.016l28.992-28.992q6.016-4.992 6.016-12.512t-6.016-13.504l-224.992-224.992 224.992-224q6.016-6.016 6.016-13.504z m218.976 0q0-7.488-6.016-12.512l-28-28.992q-6.016-6.016-13.504-6.016t-12.512 6.016l-267.008 266.016q-4.992 6.016-4.992 13.504t4.992 13.504l267.008 266.016q4.992 6.016 12.512 6.016t13.504-6.016l28-28.992q6.016-4.992 6.016-12.512t-6.016-13.504l-224-224.992 224-224q6.016-6.016 6.016-13.504z"  horiz-adv-x="1024" />

    
    <glyph glyph-name="icon-doubleup" unicode="&#58975;" d="M796.992 146.496q0-7.488-6.016-13.504l-28-28q-6.016-6.016-13.504-6.016t-12.512 6.016l-224.992 224-224.992-224q-4.992-6.016-12.512-6.016t-13.504 6.016l-28 28q-6.016 6.016-6.016 13.504t6.016 12.512l266.016 267.008q6.016 4.992 12.992 4.992t12.992-4.992l266.016-267.008q6.016-4.992 6.016-12.512z m0 219.008q0-7.488-6.016-12.512l-28-28.992q-6.016-6.016-13.504-6.016t-12.512 6.016l-224.992 224.992-224.992-224.992q-4.992-6.016-12.512-6.016t-13.504 6.016l-28 28.992q-6.016 4.992-6.016 12.512t6.016 13.504l266.016 266.016q6.016 6.016 12.992 6.016t12.992-6.016l266.016-266.016q6.016-6.016 6.016-13.504z"  horiz-adv-x="1024" />

    
    <glyph glyph-name="icon-doubleright" unicode="&#58976;" d="M559.008 347.488q0-7.488-4.992-13.504l-267.008-266.016q-4.992-6.016-12.512-6.016t-13.504 6.016l-28 28.992q-6.016 4.992-6.016 12.512t6.016 13.504l224 224-224 224.992q-6.016 6.016-6.016 13.504t6.016 12.512l28 28.992q6.016 6.016 13.504 6.016t12.512-6.016l267.008-266.016q4.992-6.016 4.992-13.504z m220 0q0-7.488-6.016-13.504l-266.016-266.016q-6.016-6.016-13.504-6.016t-12.512 6.016l-28.992 28.992q-6.016 4.992-6.016 12.512t6.016 13.504l224.992 224-224.992 224.992q-6.016 6.016-6.016 13.504t6.016 12.512l28.992 28.992q4.992 6.016 12.512 6.016t13.504-6.016l266.016-266.016q6.016-6.016 6.016-13.504z"  horiz-adv-x="1024" />

    
    <glyph glyph-name="icon-dragadd" unicode="&#58977;" d="M478.016 344v23.008h-91.008v23.008H432v11.008h12v-11.008h34.016v23.008l44.992-35.008z m-34.016-11.008H432v-35.008h12v35.008z m124.992-171.008h34.016v11.008h-34.016v-11.008zM500.992 595.008h34.016v11.008h-34.016v-11.008z m68 0h34.016v11.008h-34.016v-11.008zM432 229.984h12V264H432v-34.016z m12 308H432v-34.016h12v34.016z m0-68H432v-35.008h12v35.008z m0 125.024h22.016v11.008H432v-34.016h12v23.008z m-160-205.024v-91.008q0-10.016-7.008-16.512t-16-6.496H169.984q-10.016 0-16.512 6.496t-6.496 16.512v91.008q0 8.992 6.496 15.488t16.512 6.496h91.008q8.992 0.992 16-6.016t7.008-16z m-12 0q0 4-3.008 7.488t-8 3.488H169.984q-4.992 0-8.512-3.488t-3.488-7.488v-92q0-4 3.488-7.488t8.512-3.488h91.008q4.992 0 8 3.488t3.008 7.488v92z m172-193.984H432v-34.016h34.016v11.008h-22.016v23.008z m-113.984 284.992h-80q-10.016 0-16.512-6.496t-6.496-16.512v-34.016h11.008v46.016h103.008v-103.008H295.008v-12h35.008q8.992 0 15.488 7.008t6.496 16v80q0 10.016-6.496 16.512t-15.488 6.496z m170.976-319.008h34.016v11.008h-34.016v-11.008z m365.024 205.024h11.008v34.016h-11.008v-34.016z m0 68h11.008v35.008h-11.008v-35.008z m-229.024-273.024H672v11.008h-35.008v-11.008z m229.024 342.016h11.008v34.016h-11.008v-34.016z m0-274.016h11.008V264h-11.008v-34.016z m-23.008 376v-11.008h23.008v-23.008h11.008V605.984h-34.016z m23.008-308h11.008v35.008h-11.008v-35.008z m-160 297.024h34.016v11.008h-34.016v-11.008z m0-433.024h34.016v11.008h-34.016v-11.008zM636.992 595.008H672v11.008h-35.008v-11.008z m137.024-433.024h34.016v11.008h-34.016v-11.008z m0 433.024h34.016v11.008h-34.016v-11.008z m92-422.016h-23.008v-11.008h34.016v34.016h-12v-23.008h0.992z"  horiz-adv-x="1024" />

    
    <glyph glyph-name="icon-dragmove" unicode="&#58978;" d="M512 755.008q12.992 0 22.016-8.992l108.992-108.992q8.992-10.016 8.992-22.496t-8.992-21.504-21.504-8.992-22.496 8.992l-56 56v-234.016h234.016l-56 56q-8.992 10.016-8.992 22.496t8.992 21.504 21.504 8.992 21.504-8.992l110.016-108.992q8.992-8.992 8.992-22.016t-8.992-22.016l-110.016-108.992q-8.992-8.992-21.504-8.992t-21.504 8.992-8.992 21.504 8.992 22.496l56 56h-234.016v-234.016l56 56q10.016 8.992 22.496 8.992t21.504-8.992 8.992-21.504-8.992-21.504l-108.992-110.016q-8.992-8.992-22.016-8.992t-22.016 8.992l-108.992 110.016q-8.992 8.992-8.992 21.504t8.992 21.504 21.504 8.992 22.496-8.992l56-56v234.016H246.976l56-56q8.992-10.016 8.992-22.496t-8.992-21.504-21.504-8.992-22.496 8.992l-108.992 108.992q-8.992 8.992-8.992 22.016t8.992 22.016l108.992 108.992q10.016 8.992 22.496 8.992t21.504-8.992 8.992-21.504-8.992-22.496l-56-56h234.016V649.024l-56-56q-10.016-8.992-22.496-8.992t-21.504 8.992-8.992 21.504 8.992 21.504l108.992 110.016q8.992 8.992 22.016 8.992z"  horiz-adv-x="1024" />

    
    <glyph glyph-name="icon-dragcopy" unicode="&#58979;" d="M792.992 220q0-11.008-8-19.008t-20-8h-416q-11.008 0-19.008 8t-8 19.008V636.992q0 11.008 8 19.008t19.008 8h416q12 0 20-8t8-19.008v-416.992z m-438.976 5.984h406.016V632.992H354.016v-407.008zM712 104h-24.992q-8 0-12.512 4.512t-4.512 12 4.512 12.512 12.512 4.992h8v8q0 7.008 4.992 12t12 4.992 12-4.992 4.992-12v-24.992q0-8-4.992-12.512t-12-4.512z m-92 0h-48.992q-7.008 0-12 4.512t-4.992 12 4.992 12.512 12 4.992h48.992q7.008 0 12-4.992t4.992-12.512-4.992-12-12-4.512z m-115.008 0h-50.016q-7.008 0-12 4.512t-4.992 12 4.992 12.512 12 4.992h50.016q7.008 0 12-4.992t4.992-12.512-4.992-12-12-4.512z m-116 0h-48.992q-7.008 0-12 4.512t-4.992 12 4.992 12.512 12 4.992h48.992q7.008 0 12-4.992t4.992-12.512-4.992-12-12-4.512z m-116 0H248q-7.008 0-12 4.512t-4.992 12.512v24.992q0 7.008 4.992 12t12 4.992 12-4.992 4.992-12v-8h8q8 0 12.512-4.992t4.512-12.512-4.512-12-12.512-4.512z m-24.992 91.008q-7.008 0-12 4.992t-4.992 12v50.016q0 7.008 4.992 12t12 4.992 12-4.992 4.992-12v-50.016q0-7.008-4.992-12t-12-4.992z m0 116q-7.008 0-12 4.992t-4.992 12v50.016q0 7.008 4.992 12t12 4.992 12-4.992 4.992-12v-50.016q0-7.008-4.992-12t-12-4.992z m0 116q-7.008 0-12 4.992t-4.992 12v48.992q0 7.008 4.992 12t12 4.992 12-4.992 4.992-12v-48.992q0-7.008-4.992-12t-12-4.992z m0 116q-7.008 0-12 4.992t-4.992 12v24.992q0 7.008 4.992 12t12 4.992h24.992q8 0 12.512-4.992t4.512-12-4.512-12-12.512-4.992h-8v-8q0-7.008-4.992-12t-12-4.992z"  horiz-adv-x="1024" />

    
    <glyph glyph-name="icon-dropdown" unicode="&#58980;" d="M512 728.992q-94.016 0-173.504-46.016t-125.504-125.504-46.016-173.504 46.016-173.504 125.504-125.504T512 38.944t173.504 46.016 125.504 125.504 46.016 173.504-46.016 173.504-125.504 125.504T512 728.992z m0-561.984L312 368h134.016V600.992h132V368h138.016z"  horiz-adv-x="1024" />

    
    <glyph glyph-name="icon-dragstop" unicode="&#58981;" d="M764.992 384q0 75.008-40 136.992L373.984 170.976q64-40.992 138.016-40.992 52 0 98.496 20t80.512 54.016 54.016 81.504 20 98.496zM300 244.992l352 351.008Q588.992 638.016 512 638.016q-68.992 0-127.008-34.016t-92-92.512T258.976 384q0-75.008 40.992-139.008zM868.992 384q0-72.992-28.512-139.488t-76-114.496-113.504-76-139.008-28-139.008 28-113.504 76-76 114.496T154.944 384t28.512 139.488 76 114.496 113.504 76 139.008 28 139.008-28 113.504-76 76-114.496 28.512-139.488z"  horiz-adv-x="1024" />

    
    <glyph glyph-name="icon-error" unicode="&#58982;" d="M540.992 644.992q-119.008 0-203.488-84.512t-84.512-203.488 84.512-203.488 203.488-84.512 203.488 84.512 84.512 203.488-84.512 203.488-203.488 84.512z m37.504-474.496q-13.504-13.504-33.504-13.504-22.016 0-36 14.496t-14.016 33.504 12.992 32q16.992 16 36 16t33.504-14.016 14.496-34.016q0-20.992-13.504-34.496z m13.504 267.488l-16.992-88q-7.008-40-15.008-64l-0.992-2.016q-4.992-0.992-7.008-0.992l-27.008 0.992-23.008 103.008q-12 60-16 86.016-2.016 16.992-2.016 26.016 0 2.016 2.016 10.016 0.992 16.992 12.992 26.016 11.008 8.992 31.008 10.016 11.008 2.016 14.016 2.016 23.008 0 38.016-12 16-12 16-34.016 0-18.016-6.016-63.008z"  horiz-adv-x="1024" />

    
    <glyph glyph-name="icon-file" unicode="&#58983;" d="M676.992 759.008H276q-20 0-34.016-14.496t-14.016-34.496v-698.016q0-20 14.016-34.496t34.016-14.496h491.008q20 0 34.496 14.016t14.496 35.008V608.032z m12-73.024l60-66.016h-60V685.984z m86.016-673.984q0-8-8-8H276q-7.008 0-7.008 8V710.016q0 8 7.008 8H648v-119.008q0-8 6.016-14.016t14.016-6.016h107.008v-567.008z"  horiz-adv-x="1024" />

    
    <glyph glyph-name="icon-empty" unicode="&#58984;" d="M512 384z m0 0z"  horiz-adv-x="1024" />

    
    <glyph glyph-name="icon-file-expand" unicode="&#58985;" d="M842.016 432.992h-48v59.008q0 36.992-26.016 63.008t-63.008 26.016h-282.016l-19.008 72q-4 16-18.496 27.488t-31.488 11.488H207.968q-36.992 0-63.008-26.496t-26.016-63.488l-0.992-436.992q0-36.992 26.496-63.008t63.488-26.016h488q47.008 0 82.016 52l118.016 214.016q19.008 34.016 2.016 62.496t-56 28.512zM208 636.992h124q8 0 14.496-4.992t8.512-12q12-46.016 16-58.016 12.992-38.016 38.016-38.016h296q12.992 0 23.008-10.016t10.016-23.008v-58.016H397.056q-31.008 0-63.008-16t-50.016-40.992L175.04 228.928V603.936q0 14.016 10.016 23.488t23.008 9.504z m639.008-268l-114.016-206.016q-19.008-31.008-36.992-31.008H208q-14.016 0-24 10.016l-2.016 2.016 147.008 199.008q10.016 12.992 30.496 23.488t37.504 10.496h444.992q4 0 7.008-0.992 0-3.008-2.016-7.008z"  horiz-adv-x="1024" />

    
    <glyph glyph-name="icon-file-fold" unicode="&#58986;" d="M831.008 596h-306.016q-32 0-54.016 22.016l-82.016 80.992q-22.016 22.016-54.016 22.016H193.952q-32 0-54.496-22.496t-22.496-53.504v-522.016q0-32 22.496-54.496t54.496-22.496h636.992q31.008 0 53.504 22.496t22.496 54.496V519.008q0 32-22.496 54.496t-53.504 22.496zM194.016 663.008h140.992q8 0 14.016-4.992l80.992-80.992q19.008-19.008 43.488-28.992t51.488-10.016h306.016q7.008 0 12.512-5.504t5.504-13.504v-76H175.008V645.024q0 7.008 5.504 12.512t13.504 5.504zM831.008 104H194.016q-8 0-13.504 5.504t-5.504 13.504v262.016h674.016v-262.016q0-8-5.504-13.504t-12.512-5.504z"  horiz-adv-x="1024" />

    
    <glyph glyph-name="icon-filter" unicode="&#58987;" d="M918.016 796q-7.008 6.016-16 4.992H115.008q-0.992 0-0.992-0.992h-3.488l-0.992-0.512-0.992-0.512-0.512-0.512v-0.512h-2.016v-0.992q-0.992 0-2.016-0.992-0.992-0.992-2.016-0.992v-0.992l-3.008-3.008q-0.992-0.992-0.992-1.504t-0.512-0.992-0.512-0.992-0.992-0.512v-3.008q-0.992 0-0.992-0.512v-2.496l-0.512-0.992-0.512-2.016v-4.512l0.992-1.504v-3.008l0.992-0.992v-1.504l0.512-0.512h0.512v-2.016h0.992v-2.016h0.992l292.992-428.992v-250.016q0-15.008 12.992-22.016l192-92h0.992q0.992 0 2.016-0.992h2.016q0.992-0.992 2.016-0.992h6.016l2.016 0.992h2.016l0.992 0.992h0.992q0.992 0.992 2.016 0.992 0.992 0.992 2.016 0.992v0.992q0.992 0 2.016 0.992 0.992 0 0.992 0.992h0.992q0 0.992 0.992 2.016 0.992 0.992 0.992 2.016 0.992 0.992 0.992 2.016h0.992v2.016q0.992 0 0.992 0.992v0.992l0.512 0.992 0.512 1.504V332.864l294.016 428.992q4.992 8 3.488 18.016t-9.504 16zM439.008 340.992v4l-0.512 0.512-0.512 0.992v2.496l-3.008 6.016L162.976 752h696l-271.008-396.992h-0.992v-0.992l-0.992-0.992-0.992-2.016v-2.016h-0.512l-0.512-0.512v-2.496l-0.992-2.016v-314.016l-144 68.992v242.016z m408-51.008h-131.008q-7.008 0-11.488-4.512t-4.512-11.488 4.512-11.488 11.488-4.512h131.008q6.016 0 11.008 4.512t4.992 11.488-4.992 11.488-11.008 4.512z m0-101.984h-131.008q-7.008 0-11.488-4.992t-4.512-11.488 4.512-11.488 11.488-4.992h131.008q6.016 0 11.008 4.992t4.992 11.488-4.992 11.488-11.008 4.992z m0-102.016h-131.008q-7.008 0-11.488-4.992t-4.512-11.488 4.512-11.488 11.488-4.992h131.008q6.016 0 11.008 4.992t4.992 11.488-4.992 11.488-11.008 4.992z"  horiz-adv-x="1024" />

    
    <glyph glyph-name="icon-font" unicode="&#58988;" d="M296 308l90.016 288 88.992-288H296z m170.016 399.008h-136L126.016 60.992h94.016l48.992 154.016h236l48.992-154.016h118.016z m213.984-496l52 138.016 52-138.016h-104z m99.008 201.984h-79.008l-64-171.008 28-87.008v2.016h136.992l28.992-88.992h68l-119.008 344.992z"  horiz-adv-x="1024" />

    
    <glyph glyph-name="icon-first" unicode="&#58989;" d="M512-12q107.008 0 198.496 52.992t144.512 144.512T908 384t-52.992 198.496-144.512 144.512T512 780 313.504 727.008 168.992 582.496 116 384t52.992-198.496 144.512-144.512T512-12z m0 753.984q96.992 0 179.488-47.488t130.496-130.496 48-180-47.488-180-130.496-130.496T512 26.016t-180 47.488-130.496 130.496T154.016 384t47.488 180 130.496 130.496T512 741.984z m-60.992-385.984l172-114.016q20-11.008 34.496-3.008t14.496 32v226.016q0 24-14.496 32t-34.496-3.008l-172-114.016q-20-11.008-20-28t20-28z m-74.016-132.992q10.016 0 17.504 7.488t7.488 17.504v272q0 10.016-7.488 17.504t-17.504 7.488-17.504-7.488-7.488-17.504v-272q0-10.016 7.488-17.504t17.504-7.488z"  horiz-adv-x="1024" />

    
    <glyph glyph-name="icon-forecolor" unicode="&#58990;" d="M980.992 601.984L612 235.968q-6.016-4.992-30.496-22.016t-46.016-30.496l-21.504-13.504q51.008 84.992 64 98.016l368 366.016q32.992 32 48.992 16 16.992-16.992-14.016-48z m-273.984-81.984q0-19.008-13.504-32t-32.512-12.992-32 12.992-12.992 32 12.992 32.512 32 13.504 32.512-13.504 13.504-32.512zM228.992 360.992q-19.008 0-32.512 12.992t-13.504 32 13.504 32.512 32.512 13.504 32-13.504 12.992-32.512-12.992-32-32-12.992z m68 159.008q0 19.008 13.504 32.512t32.512 13.504 32-13.504 12.992-32.512-12.992-32-32-12.992-32.512 12.992-13.504 32z m159.008 45.504q0 18.496 13.504 32t32.512 13.504 32-13.504 12.992-32-12.992-32-32-13.504-32.512 13.504-13.504 32z m8.992 136.48q-76.992-8.992-148.992-42.016t-127.008-84-88.512-120.512-33.504-146.496q0-36 14.016-51.488t39.488-14.496 62.496 4.992q42.016 4.992 77.504-18.016t42.496-79.008q4.992-39.008 52.512-63.488t121.504-24.512q91.008 0 175.008 42.016t140 115.488 70.016 161.504q0 3.008 0.512 8.992t0.512 8l48 48q0.992-28-2.016-52-8.992-72.992-44.512-140.512t-90.496-120-132-84-162.016-31.488q-71.008 0-135.008 26.016t-76 64.992q-2.016 6.016-4.512 16t-4 16.992-4.512 16.992-6.016 15.488-8 13.504-10.016 11.008l-12.512 7.488-16 3.008-20.512-1.504q-64.992-15.008-111.008 7.008t-48 76q-3.008 98.016 32.512 180t98.016 137.504 142.496 90.496 171.008 44.992q112.992 12.992 216.992-22.016t164.992-110.016l-34.016-32.992Q762.912 649.92 665.888 681.92t-200.992 20z"  horiz-adv-x="1024" />

    
    <glyph glyph-name="icon-formatbrush" unicode="&#58991;" d="M668 620.992l148.992 86.016 71.008-87.008-111.008-123.008z m-112.992 47.008q20.992-2.016 83.488-68.992t115.488-138.016 51.008-84.992q-3.008-12-33.504-39.488T710.976 288l-30.016-20.992-267.008 308q-2.016 0 24.992 24.512t62.016 48 54.016 20.512z m-167.008-131.008l258.016-300.992-158.016-206.016L129.984 484q71.008 3.008 130.016 18.016z"  horiz-adv-x="1024" />

    
    <glyph glyph-name="icon-formatclear" unicode="&#58992;" d="M718.016 316.992l166.016 166.016q24 24 24 55.488t-24 55.488L718.016 760q-10.016 10.016-28 16-4 4-28 4-19.008 0-27.008-4-24-12-28-16l-162.016-170.016-304.992-304.992q-24-24-24-55.488t24-55.488l166.016-166.016q20-20 48-20h474.016v40H433.024zM384.992 40q-4.992-12-23.008-12h-4q-16 0-28 12l-166.016 166.016q-8 16-8 28 0 16 12 27.008l256.992 256.992q0-19.008 20-39.008l166.016-166.016q12-12 35.008-20l-260.992-252.992z"  horiz-adv-x="1024" />

    
    <glyph glyph-name="icon-indent" unicode="&#58993;" d="M152 729.984h722.016v-78.016H152V729.984z m310.016-145.984h412v-78.016H462.016V584z m0-146.016h412v-78.016H462.016v78.016z m0-145.984h412v-78.016H462.016v78.016zM152 145.984h722.016v-76.992H152v76.992z m0 105.024v274.016l182.016-136.992z"  horiz-adv-x="1024" />

    
    <glyph glyph-name="icon-html" unicode="&#58994;" d="M848 63.008h-68v-16.992q0-35.008-24.512-59.488t-59.488-24.512H175.008q-35.008 0-59.488 24.512t-24.512 59.488V719.008q0 35.008 24.512 59.488t59.488 24.512h367.008v3.008l3.008-3.008 232.992-252h2.016v-3.008l2.016-0.992h-2.016v-198.016h68q35.008 0 59.488-24.512t24.512-59.488v-118.016q0-35.008-24.512-59.488t-59.488-24.512z m-303.008 680v-108q0-35.008 24.512-59.488t59.488-24.512h96.992z m202.016-226.016h-152q-34.016 0-59.008 24.992t-24.992 59.008V769.984H208q-34.016 0-59.008-24.992t-24.992-59.008v-606.016q0-35.008 24.992-59.488t59.008-24.512h455.008q30.016 0 52.992 19.008t28.992 48H292.992q-35.008 0-60 24.512T208 146.976v118.016q0 35.008 24.992 59.488t60 24.512h454.016v168z m-112-392.992h28l28.992 112.992v-112.992h27.008v144h-44l-26.016-98.016-26.016 98.016h-44v-144h27.008v112.992z m-79.008 120v24h-115.008v-24h43.008v-120h28.992v120h43.008z m-225.984-32.992v56.992h-28.992v-144h28.992v63.008h56.992v-63.008H416v144h-28.992v-56.992h-56.992z m524.992-63.008h-72v119.008h-28.992v-143.008h100.992v24zM328 701.984H352l-42.016-316.992h-24z m154.016-184.992L368 424.992v59.008l80 58.016-80 56.992V658.016l114.016-91.008v-50.016zM156 567.008l114.016 91.008v-59.008l-79.008-56 79.008-59.008v-59.008l-114.016 92v50.016z"  horiz-adv-x="1024" />

    
    <glyph glyph-name="icon-italic" unicode="&#58995;" d="M384 704v-64h128l-128-512H256v-64h384v64h-128l128 512h128V704H384z"  horiz-adv-x="1024" />

    
    <glyph glyph-name="icon-last" unicode="&#58996;" d="M512 780q-107.008 0-198.496-52.992T168.992 582.496 116 384t52.992-198.496 144.512-144.512T512-12t198.496 52.992 144.512 144.512T908 384t-52.992 198.496-144.512 144.512T512 780z m0-754.016q-96.992 0-179.488 47.488t-130.496 130.496-48 180 47.488 180 130.496 130.496T512 741.952t180-47.488 130.496-130.496 47.488-180-47.488-180-130.496-130.496T512 25.984z m60.992 386.016l-172 114.016q-20 11.008-34.496 3.008t-14.496-32v-226.016q0-24 14.496-32t34.496 3.008l172 114.016q20 11.008 20 28t-20 28z m74.016 132.992q-10.016 0-17.504-7.488t-7.488-17.504v-272q0-10.016 7.488-17.504t17.504-7.488 17.504 7.488 7.488 17.504v272q0 10.016-7.488 17.504t-17.504 7.488z"  horiz-adv-x="1024" />

    
    <glyph glyph-name="icon-link" unicode="&#58997;" d="M680.992 740.992l-162.016-162.016q-31.008-30.016-36-73.504t16.992-80.512l-28.992-28.992q-36.992 22.016-80.512 16.992T316.96 376.96l-162.016-162.016q-38.016-36.992-36.992-91.488t40-93.504 93.504-40 91.488 36.992l162.016 162.016q31.008 30.016 36 73.504t-16.992 80.512l28.992 28.992q36.992-22.016 80.512-16.512t73.504 35.488l162.016 162.016q38.016 36.992 36.992 91.488t-40 93.504-92.992 40-92-36.992z m-260.992-527.008l-107.008-107.008q-24-24.992-52.992-31.008t-45.504 10.496-10.496 45.504 31.008 54.016l107.008 106.016q30.016 30.016 64 32-7.008-20.992 8.992-36.992t36.992-8.992q-2.016-34.016-32-64zM787.008 580l-107.008-107.008q-28-28-60.992-31.008 10.016 23.008-8 40.992t-40.992 8q3.008 32.992 31.008 60.992l107.008 107.008q24.992 24.992 54.016 31.008t45.504-10.496 10.496-45.504-31.008-54.016z"  horiz-adv-x="1024" />

    
    <glyph glyph-name="icon-inserthr" unicode="&#58998;" d="M323.008 745.984v-275.008h52v224h451.008v-224h51.008V745.984H323.008z m-183.008-205.984l136.992-138.016-136.992-136.992v275.008zM323.008 16v316.992h52v-264.992h451.008v266.016l51.008-0.992v-316.992H323.008z m59.008 415.008h438.016v-58.016H382.016v58.016z"  horiz-adv-x="1024" />

    
    <glyph glyph-name="icon-menu" unicode="&#58999;" d="M192 141.984h636q31.008 0 52.512-22.016t21.504-52.992-21.504-52.992-52.512-22.016H192q-31.008 0-52.992 22.016t-22.016 52.992 22.016 52.992T192 141.984zM192 777.984h636q31.008 0 52.512-22.016t21.504-52.992-21.504-52.992-52.512-22.016H192q-31.008 0-52.992 22.016t-22.016 52.992 22.016 52.992T192 777.984z m0-317.984h636q31.008 0 52.512-22.016t21.504-52.992-21.504-52.992-52.512-22.016H192q-31.008 0-52.992 22.016t-22.016 52.992 22.016 52.992T192 460z"  horiz-adv-x="1024" />

    
    <glyph glyph-name="icon-loading" unicode="&#59000;" d="M386.452107 688.061303q0 51.976828 36.785533 88.76236T512 813.609195t88.76236-36.785532T637.547893 688.061303t-36.785533-88.76236T512 562.51341t-88.76236 36.785533T386.452107 688.061303z m266.789272-109.854406q0 51.976828 36.785533 88.76236T778.789272 703.754789t88.76236-36.785532 36.785533-88.76236-36.785533-88.762361-88.76236-36.785532-88.76236 36.785532-36.785533 88.762361z m172.628353-266.789272q0 26.490605 18.14167 44.632275T888.643678 374.191571t44.632276-18.141671 18.141671-44.632275-18.141671-44.632276-44.632276-18.141671-44.632276 18.141671T825.869732 311.417625z m-109.854406-266.287081q0 25.988414 18.14167 44.130084t44.130084 18.141671 44.632276-18.141671 18.643862-44.130084-18.643862-44.632276-44.632276-18.643862-44.130084 18.643862-18.14167 44.632276zM449.226054-65.226054q0 26.490605 18.14167 44.632276T512-2.452107t44.632276-18.141671 18.14167-44.632276q0-26.490605-18.14167-44.632276T512-128t-44.632276 18.14167T449.226054-65.226054z m-266.789272 109.854406q0 26.490605 18.643862 44.632276t44.632276 18.141671 44.130084-18.141671 18.14167-44.632276q0-25.517609-18.14167-44.130084t-44.130084-18.643862-44.632276 18.643862-18.643862 44.130084z m-31.386974 533.578545q0 38.26072 27.965794 66.195126t66.697318 27.965793 66.195126-27.965793 27.463602-66.195126q0-39.233716-27.463602-66.697318t-66.195126-27.463602-66.697318 27.463602-27.965794 66.697318z m-86.314176-266.789272q0 29.440981 20.589855 50.030835T135.356322 382.038314t50.030835-20.589854 20.589854-50.030835-20.589854-50.030836T135.356322 240.796935t-50.030835 20.589854-20.589855 50.030836z"  horiz-adv-x="1024" />

    
    <glyph glyph-name="icon-minus" unicode="&#59001;" d="M768 427.008H256q-35.008 0-60-24.992t-24.992-60.512 24.992-60.512T256 256h512q35.008 0 60 24.992t24.992 60.512-24.992 60.512T768 427.008z"  horiz-adv-x="1024" />

    
    <glyph glyph-name="icon-menu-checked" unicode="&#59002;" d="M754.016 64V700q0 31.008 22.016 52.512t52.992 21.504 52.992-21.504 22.016-52.512V64q0-31.008-22.016-52.992t-52.992-22.016-52.992 22.016T754.016 64zM118.016 64V700q0 31.008 22.016 52.512t52.992 21.504 52.992-21.504 22.016-52.512V64q0-31.008-22.016-52.992t-52.992-22.016-52.992 22.016T118.016 64z m317.984 0V700q0 31.008 22.016 52.512t52.992 21.504 52.992-21.504 22.016-52.512V64q0-31.008-22.016-52.992t-52.992-22.016-52.992 22.016T436 64z"  horiz-adv-x="1024" />

    
    <glyph glyph-name="icon-mobile" unicode="&#59003;" d="M708.992 833.984H314.976q-35.008 0-59.488-24.992t-24.512-59.008v-732q0-34.016 24.512-59.008t59.488-24.992h394.016q35.008 0 59.488 24.992t24.512 59.008V749.984q0 34.016-24.512 59.008t-59.488 24.992zM400 792h224v-28h-224V792zM512-10.016q-23.008 0-39.488 16.512t-16.512 40 16.512 40T512 103.008t39.488-16.512 16.512-40-16.512-40-39.488-16.512z m224.992 169.024H286.976V722.016h450.016v-563.008z"  horiz-adv-x="1024" />

    
    <glyph glyph-name="icon-mouse" unicode="&#59004;" d="M520.992 141.984h-20.992q-92 0-158.016 59.008-64.992 60-64.992 144V660.992q0 84 64.992 144Q408 864 500 864h20.992q92 0 156.992-59.008 66.016-60 66.016-144v-316q0-84-66.016-144-64.992-59.008-156.992-59.008z m-20.992 707.008q-86.016 0-147.008-55.008T292 660.992v-316q0-78.016 60.992-132.992t147.008-55.008h20.992q86.016 0 147.008 55.008t60.992 132.992V660.992q0 78.016-60.992 132.992t-147.008 55.008h-20.992z m11.488-365.984q-7.488 0-7.488 8v272q0 8 7.488 8t7.488-8v-272q0-8-7.488-8z m58.528-417.024l-10.016 11.008-56-56-55.008 56-11.008-11.008 66.016-66.016z m0.992-100.992l-10.016 11.008-56-56-55.008 55.008-11.008-10.016 66.016-67.008v0.992z"  horiz-adv-x="1024" />

    
    <glyph glyph-name="icon-next" unicode="&#59005;" d="M420.992 516q0 19.008 3.488 25.504t14.496-0.512l70.016-48q18.016-11.008 60.992-39.008l75.008-48q12-8 12.512-19.488t-12.512-19.488l-74.016-48q-8-4.992-29.504-19.008t-29.504-19.008l-72.992-48q-11.008-8-14.496-1.504t-3.488 25.504v259.008z m89.504-486.016q-96.512 0-178.016 47.488t-128.992 129.504-47.488 178.496 47.488 178.016T332.48 692.48t178.016 47.488 178.496-47.488 129.504-128.992 47.488-178.016-47.488-178.496-129.504-129.504-178.496-47.488z m0.512-38.976q107.008 0 197.504 52.992t143.488 143.488 52.992 197.504-52.992 198.016-143.488 144-197.504 52.992-198.016-52.992-144-144-52.992-198.016 52.992-197.504 144-143.488 198.016-52.992z"  horiz-adv-x="1024" />

    
    <glyph glyph-name="icon-number" unicode="&#59006;" d="M807.008 683.008q20 0 34.496-14.016t14.496-35.008v-38.016q0-20.992-14.016-35.488t-35.008-14.496h-316.992q-20 0-34.496 14.496t-14.496 35.488V633.984q0 20.992 14.496 35.008t34.496 14.016h316.992z m0-231.008q20 0 34.496-14.496t14.496-35.488v-36.992q0-20.992-14.016-35.008t-35.008-14.016h-316.992q-20 0-34.496 14.016t-14.496 35.008v36.992q0 20.992 14.016 35.488t35.008 14.496h316.992z m0-232q20 0 34.496-14.016t14.496-35.008v-36.992q0-20.992-14.016-35.488t-35.008-14.496h-316.992q-20 0-34.496 14.496t-14.496 35.488v36.992q0 20 14.016 34.496t35.008 14.496h316.992zM171.008 632v30.016Q192 672.032 210.016 685.024h31.008v-152.992H208.032v120q-16.992-12-36.992-20z m0.992-316v30.016q3.008 4 16.992 16 56 47.008 55.008 64-2.016 19.008-19.008 20-16-2.016-18.016-23.008H173.984q0.992 43.008 51.008 44 50.016-2.016 51.008-42.016 0-26.016-48-66.016-18.016-15.008-24-22.016h72.992v-20.992H172z m-0.992-188.992h35.008q0.992-20.992 19.008-24 19.008 2.016 20.992 24-0.992 27.008-38.016 26.016v22.016q39.008 0.992 38.016 24.992-0.992 20.992-20 20.992-16-2.016-18.016-20.992H172.992q3.008 43.008 52.992 44.992 50.016-4.992 54.016-40-0.992-32-31.008-40 31.008-8 31.008-42.016-4-36.992-55.008-40.992-54.016 0-54.016 44.992z"  horiz-adv-x="1024" />

    
    <glyph glyph-name="icon-number1" unicode="&#59007;" d="M512 833.984q-186.016 0-318.016-132t-132-318.016 132-318.016T512-66.048t318.016 132 132 318.016-132 318.016T512 833.984z m0-829.984q-103.008 0-190.496 51.008t-138.496 138.496T132 384t51.008 190.496 138.496 138.496T512 764t190.496-51.008 138.496-138.496T892 384t-51.008-190.496-138.496-138.496T512 4zM500.992 480H392v44h34.016q19.008 0 35.008 6.496t27.008 17.504q12 11.008 19.008 27.008 7.008 15.008 7.008 34.016h47.008v-450.016h-60V480z"  horiz-adv-x="1024" />

    
    <glyph glyph-name="icon-number0" unicode="&#59008;" d="M512 833.984q-186.016 0-318.016-132t-132-318.016 132-318.016T512-66.048t318.016 132 132 318.016-132 318.016T512 833.984z m0-829.984q-103.008 0-190.496 51.008t-138.496 138.496T132 384t51.008 190.496 138.496 138.496T512 764t190.496-51.008 138.496-138.496T892 384t-51.008-190.496-138.496-138.496T512 4z m0 604.992q-70.016 0-104.992-60-36-59.008-36-162.016 0-112.992 36-170.016 35.008-58.016 104.992-58.016t104.992 58.016q36 58.016 36 170.016 0 222.016-140.992 222.016z m64-356q-20-44-64-44t-63.488 43.488-19.488 134.496 19.008 131.008q20 40.992 64 40.992t63.488-40.512 19.488-131.488T576 252.96000000000004z"  horiz-adv-x="1024" />

    
    <glyph glyph-name="icon-number2" unicode="&#59009;" d="M512 833.984q-186.016 0-318.016-132t-132-318.016 132-318.016T512-66.048t318.016 132 132 318.016-132 318.016T512 833.984z m0-829.984q-103.008 0-190.496 51.008t-138.496 138.496T132 384t51.008 190.496 138.496 138.496T512 764t190.496-51.008 138.496-138.496T892 384t-51.008-190.496-138.496-138.496T512 4z m-140.992 460.992q7.008 64.992 44.992 104.512t103.008 39.488q32.992 0 58.016-11.008 24.992-12 40.992-31.008 16.992-20 26.016-44t8.992-50.016q0-23.008-6.016-40.992-4.992-18.016-15.008-32-10.016-15.008-23.008-27.008t-28.992-23.008q-27.008-20.992-59.008-42.016-30.016-20.992-58.016-47.008-11.008-10.016-16.992-20-7.008-10.016-11.008-26.016h206.016v-56H376V201.91999999999996q0 26.016 16.992 52t42.016 48.992q26.016 24 56 46.016l58.016 44q20 16 32.992 34.016 12 18.016 12 46.016 0 40-20.992 63.008-20 22.016-54.016 22.016-40 0-63.488-24.512t-23.488-68.512h-60.992z"  horiz-adv-x="1024" />

    
    <glyph glyph-name="icon-number3" unicode="&#59010;" d="M512 833.984q-186.016 0-318.016-132t-132-318.016 132-318.016T512-66.048t318.016 132 132 318.016-132 318.016T512 833.984z m0-829.984q-103.008 0-190.496 51.008t-138.496 138.496T132 384t51.008 190.496 138.496 138.496T512 764t190.496-51.008 138.496-138.496T892 384t-51.008-190.496-138.496-138.496T512 4z m-128.992 469.984q7.008 64 36.992 99.488t94.016 35.488q56 0 88.512-31.488t32.512-83.488q0-36.992-14.016-59.008t-43.008-35.008q14.016-4 27.008-12.992 14.016-8.992 24-22.016 11.008-12.992 16.992-32 7.008-19.008 7.008-44 0-32-11.008-56-12-24.992-30.016-40.992-19.008-16-44-24.992-24.992-8-54.016-8-58.016 0-95.488 36.992t-47.488 108.992h58.016q8-52.992 28.992-74.016 20-22.016 56-22.016 16.992 0 31.488 5.504t26.016 16 18.496 25.504q6.016 15.008 6.016 32.992 0 35.008-22.016 60t-60 24.992h-32v50.016h32q18.016 0 30.496 6.016t20 15.488 10.496 20.512 3.008 23.008q0 32.992-17.504 51.488t-47.488 18.496q-19.008 0-31.008-7.008-12.992-7.008-22.016-18.016-8-12-12.992-27.008-4.992-16-7.008-32.992h-56.992z"  horiz-adv-x="1024" />

    
    <glyph glyph-name="icon-number4" unicode="&#59011;" d="M512 833.984q-186.016 0-318.016-132t-132-318.016 132-318.016T512-66.048t318.016 132 132 318.016-132 318.016T512 833.984z m0-829.984q-103.008 0-190.496 51.008t-138.496 138.496T132 384t51.008 190.496 138.496 138.496T512 764t190.496-51.008 138.496-138.496T892 384t-51.008-190.496-138.496-138.496T512 4z m32 155.008v110.016h-172.992v64.992L544 609.024h51.008v-288.992h58.016v-51.008h-58.016v-110.016H544zM418.016 320h126.016v203.008z"  horiz-adv-x="1024" />

    
    <glyph glyph-name="icon-number7" unicode="&#59012;" d="M512 833.984q-186.016 0-318.016-132t-132-318.016 132-318.016T512-66.048t318.016 132 132 318.016-132 318.016T512 833.984z m0-829.984q-103.008 0-190.496 51.008t-138.496 138.496T132 384t51.008 190.496 138.496 138.496T512 764t190.496-51.008 138.496-138.496T892 384t-51.008-190.496-138.496-138.496T512 4z m-80.992 155.008q14.016 114.016 56 211.008 42.016 98.016 111.008 186.016v0.992h-227.008V609.024h282.016v-52q-35.008-46.016-63.008-96.992-28.992-51.008-48.992-100.992-20.992-52-35.008-103.008-12.992-50.016-16.992-96.992h-58.016z"  horiz-adv-x="1024" />

    
    <glyph glyph-name="icon-number8" unicode="&#59013;" d="M512 833.984q-186.016 0-318.016-132t-132-318.016 132-318.016T512-66.048t318.016 132 132 318.016-132 318.016T512 833.984z m0-829.984q-103.008 0-190.496 51.008t-138.496 138.496T132 384t51.008 190.496 138.496 138.496T512 764t190.496-51.008 138.496-138.496T892 384t-51.008-190.496-138.496-138.496T512 4z m124.992 352.992q-8 15.008-20.992 26.016t-31.008 18.016q26.016 12.992 42.016 36.992t16 63.008q0 22.016-8.992 42.016T608 577.056q-18.016 15.008-40.992 23.008-24.992 8.992-55.008 8.992-31.008 0-55.008-8.992-24-8-40.992-23.008t-25.504-34.496-8.512-41.504q0-39.008 15.008-63.008 16-24.992 43.008-36.992-19.008-6.016-32-18.016-12.992-11.008-20.992-27.008t-12-32.992q-4-18.016-4-35.008 0-24.992 10.016-48.512t28-40.512q19.008-19.008 44.992-28.992 24.992-11.008 58.016-11.008t58.016 11.008q26.016 10.016 44.992 28.992 18.016 18.016 28 41.504t10.016 49.504q0 16.992-4 34.016-4 18.016-12 32.992z m-197.984 136.992q0 24.992 18.496 45.504t55.488 20.512q18.016 0 32-6.016 14.016-4.992 23.008-15.008 8-8.992 12.512-20.992t4.512-24q0-14.016-4-26.016-4.992-12-14.016-22.016t-23.008-15.008q-14.016-6.016-31.008-6.016-36.992 0-55.488 20.992t-18.496 48z m151.008-233.984q-6.016-15.008-16-24.992-10.016-12-24.992-18.496t-36-6.496q-18.016 0-32.992 6.496t-26.016 17.504q-12 11.008-18.496 25.504t-6.496 30.016 5.504 31.008 15.488 27.488 26.016 19.008q15.008 7.008 36 7.008 20 0 35.008-7.008 16-8 26.016-19.008 11.008-12 16-28 6.016-16 6.016-31.008 0-16-4.992-28.992z"  horiz-adv-x="1024" />

    
    <glyph glyph-name="icon-number5" unicode="&#59014;" d="M512 833.984q-186.016 0-318.016-132t-132-318.016 132-318.016T512-66.048t318.016 132 132 318.016-132 318.016T512 833.984z m0-829.984q-103.008 0-190.496 51.008t-138.496 138.496T132 384t51.008 190.496 138.496 138.496T512 764t190.496-51.008 138.496-138.496T892 384t-51.008-190.496-138.496-138.496T512 4z m-128 365.984l27.008 239.008h218.016v-51.008h-178.016l-12-123.008 2.016-0.992q16 15.008 36.512 20.992t41.504 6.016q28.992 0 53.504-11.488t42.496-32.512q18.016-20 28-48t10.016-59.008q0-28.992-8.992-56t-27.008-48.992q-18.016-20.992-44.992-32.992-28-12.992-64.992-12.992-51.008 0-88.512 32t-47.488 95.008h58.016q7.008-36 28.992-56t50.016-20q20 0 36 8t28 20.992q12 14.016 18.016 32 6.016 19.008 6.016 40 0 23.008-7.008 40-8.992 19.008-20.992 31.008-12.992 12.992-30.016 20.992-16.992 7.008-35.008 7.008-19.008 0-38.016-8.992-18.016-10.016-31.008-31.008h-50.016z"  horiz-adv-x="1024" />

    
    <glyph glyph-name="icon-number6" unicode="&#59015;" d="M512 833.984q-186.016 0-318.016-132t-132-318.016 132-318.016T512-66.048t318.016 132 132 318.016-132 318.016T512 833.984z m0-829.984q-103.008 0-190.496 51.008t-138.496 138.496T132 384t51.008 190.496 138.496 138.496T512 764t190.496-51.008 138.496-138.496T892 384t-51.008-190.496-138.496-138.496T512 4z m82.016 489.984q0 12-4.992 23.008-6.016 11.008-16 20.992-8.992 8.992-22.496 15.008t-28.512 6.016q-27.008 0-44-13.504t-26.016-34.496q-10.016-22.016-14.016-48-4-24.992-4.992-52h2.016q38.016 39.008 82.016 39.008 28 0 52.992-11.008t43.008-30.016 28.992-46.016 11.008-59.008q0-28.992-10.016-56-8.992-26.016-27.008-46.016-16.992-20-42.016-32-24.992-11.008-56-11.008-34.016 0-60.992 14.016t-46.016 40-28.992 63.008q-11.008 36.992-11.008 84 0 68 10.496 115.488t30.496 76.992 47.008 42.496q28 14.016 62.016 14.016 27.008 0 50.016-10.016t39.008-26.016q16.992-16 26.016-36.992 10.016-20.992 12-42.016h-54.016z m-76-284.992q39.008 0 57.504 27.008t18.496 66.016q0 19.008-4 36.992-4.992 16.992-15.008 31.008-8.992 12.992-24 22.016-14.016 8-32.992 8-23.008 0-39.008-8.992-16-10.016-26.016-24.512t-14.016-30.496q-4-18.016-4-34.016 0-42.016 23.008-67.008 23.008-26.016 60-26.016z"  horiz-adv-x="1024" />

    
    <glyph glyph-name="icon-number9" unicode="&#59016;" d="M512 833.984q-186.016 0-318.016-132t-132-318.016 132-318.016T512-66.048t318.016 132 132 318.016-132 318.016T512 833.984z m0-829.984q-103.008 0-190.496 51.008t-138.496 138.496T132 384t51.008 190.496 138.496 138.496T512 764t190.496-51.008 138.496-138.496T892 384t-51.008-190.496-138.496-138.496T512 4z m-83.008 272.992q8-36 31.008-52t47.008-16q24.992 0 43.008 12.992 16.992 12 28 32.992 10.016 20 15.008 48 4 26.016 4 55.008-19.008-28.992-43.008-39.008t-47.008-10.016q-24 0-48 11.008-24 10.016-44 28.992-19.008 19.008-31.008 44.992-12.992 26.016-12.992 58.016 0 31.008 8.992 60t26.016 50.016q16.992 22.016 42.016 34.016 26.016 12.992 59.008 12.992 68.992 0 107.488-52.512t38.496-151.488q0-40.992-6.016-84.992t-23.008-80q-16-36-44-58.016-28-23.008-72.992-23.008-23.008 0-46.016 6.496t-40 20.512q-18.016 14.016-30.016 36t-14.016 55.008h52z m78.016 83.008q16.992 0 32 7.008 15.008 8 26.016 21.504t18.016 31.488q7.008 19.008 7.008 39.488t-7.008 38.496-18.016 32q-11.008 12.992-26.016 20.992t-32 8-31.008-8-24.992-20.992q-10.016-14.016-16.992-32-6.016-18.016-6.016-38.496t6.016-39.488q6.016-18.016 16.992-31.008 11.008-14.016 24.992-22.016 14.016-7.008 31.008-7.008z"  horiz-adv-x="1024" />

    
    <glyph glyph-name="icon-outdent" unicode="&#59017;" d="M152 729.984h722.016v-78.016H152V729.984z m310.016-145.984h412v-78.016H462.016V584z m0-146.016h412v-78.016H462.016v78.016z m0-145.984h412v-78.016H462.016v78.016zM152 145.984h722.016v-76.992H152v76.992z m0 242.016l182.016 136.992v-274.016z"  horiz-adv-x="1024" />

    
    <glyph glyph-name="icon-picture" unicode="&#59018;" d="M820 804H204q-8.992 0-17.504-0.992t-27.488-7.008-32-16.512-24-33.504-11.008-54.016v-616q0-32 12-55.008t27.008-33.504 34.496-16.512 27.008-6.496 11.488-0.512h616q32 0 55.008 12t33.504 26.496 16.512 34.016 6.496 27.008 0.512 12.512V691.968q0 31.008-10.496 54.016t-23.488 33.504-32 16.512-27.488 7.008-18.496 0.992z m56-728v-6.496l-3.008-12.992-8.512-16.992-16.992-13.504-27.488-6.016-211.008 220-115.008-100-172.992 160-172.992-160V692q0 19.008 6.016 31.488t16.992 16.992 17.504 6.016 15.488 1.504h616q10.016 0 16.512-1.504t16.992-6.016 16.512-16.992 6.016-31.488v-616z m-223.488 504q-46.496 0-79.488-32.992t-32.992-79.488 32.992-79.488 79.488-32.992 79.008 32.992 32.512 79.488-32.512 79.488-79.008 32.992z"  horiz-adv-x="1024" />

    
    <glyph glyph-name="icon-prev" unicode="&#59019;" d="M603.008 252q0-19.008-3.488-25.504t-14.496 0.512l-70.016 48q-18.016 11.008-60.992 39.008l-75.008 48q-12 8-12.512 19.488t12.512 19.488l74.016 48q8 4.992 29.504 19.008t29.504 19.008l72.992 48q11.008 8 14.496 1.504t3.488-25.504v-259.008zM513.504 737.984q96.512 0 178.016-47.488t128.992-129.504 47.488-178.496-47.488-178.016-128.992-128.992-178.016-47.488-178.496 47.488-129.504 128.992-47.488 178.016 47.488 178.496 129.504 129.504 178.496 47.488z m-0.512 39.008q-107.008 0-197.504-52.992T172 580.512t-52.992-197.504 52.992-198.016 143.488-144 197.504-52.992 198.016 52.992 144 144 52.992 198.016-52.992 197.504-144 143.488-198.016 52.992z"  horiz-adv-x="1024" />

    
    <glyph glyph-name="icon-print" unicode="&#59020;" d="M851.008 641.984h-84.992v56H258.016v-56H173.024q-20 0-34.016-14.016t-14.016-34.016v-250.016q0-19.008 14.016-33.504t34.016-14.496h16.992v112h68v-338.016h508V407.936h68v-112h16.992q20 0 34.016 14.496t14.016 33.504V593.952q0 20-14.016 34.016t-34.016 14.016zM246.016 540.992h-64v12.992h64v-12.992z m492-441.984H286.016V408h452v-308.992z m0 481.984H286.016v88h452v-88zM664 336h-304v22.016h304v-22.016z m0-74.016h-304v20.992h304v-20.992z m0-69.984h-304v22.016h304V192z"  horiz-adv-x="1024" />

    
    <glyph glyph-name="icon-numbers" unicode="&#59021;" d="M512.512-64q-90.496 0-173.504 35.488t-143.008 95.488-95.488 143.008T65.024 384t35.488 173.504 95.488 142.496 143.008 95.488 173.504 35.488 173.504-35.488 143.008-95.488 95.488-142.496T960 384t-35.488-174.016-95.488-143.008-143.008-95.488T512.512-64z m0.48 864.992q-112.992 0-209.504-56t-152-152T96 384t55.488-208.992 152-152 209.504-56 208.992 56 152 152T929.984 384t-56 208.992-152 152-208.992 56z m-201.984-268v-302.016h-26.016v270.016q-28.992-32-72-44.992v26.016q20.992 7.008 42.016 19.008 20 12.992 35.008 32h20.992z m229.984-17.984q26.016-23.008 26.016-63.008 0-39.008-30.016-71.008-14.016-15.008-62.016-48-64.992-44-72-79.008h164.992v-23.008h-196q0 39.008 30.016 72 18.016 20.992 63.008 52 38.016 27.008 51.008 40 24.992 27.008 24.992 58.016 0 30.016-18.016 46.016-19.008 16.992-50.016 16.992-32.992 0-52-22.016-20-22.016-20-64.992h-27.008q0 51.008 28 80 27.008 30.016 71.008 30.016 40.992 0 68-24z m222.016 1.984q24.992-22.016 24.992-60 0-52-48.992-68 26.016-8 40.992-27.008 14.016-18.016 14.016-44.992 0-40-28-66.016-28.992-26.016-72.992-26.016-40.992 0-68 20.992-32 24.992-36 76h26.016q2.016-38.016 27.008-58.016 20.992-16.992 50.016-16.992 34.016 0 56 20 20.992 20 20.992 50.016 0 27.008-20 44-18.016 16-51.008 16h-27.008v22.016h24.992q31.008 0 48.992 14.016 16.992 16 16.992 43.008t-16.992 43.008q-18.016 16.992-50.016 16.992t-51.008-18.016-23.008-51.008h-24.992q4 43.008 31.008 68 26.016 24 68 24t68-22.016z"  horiz-adv-x="1024" />

    
    <glyph glyph-name="icon-right" unicode="&#59022;" d="M910.016 591.008L412 92.992q-8-8-15.008 0L113.984 376q-8 7.008 0 15.008l68.992 68.992q8 8 16 0l204.992-206.016L824.96 674.976q8 8 16 0l68.992-68.992q8-8 0-15.008z"  horiz-adv-x="1024" />

    
    <glyph glyph-name="icon-search" unicode="&#59023;" d="M230.016 693.984q38.016 43.008 91.008 68.992t110.016 30.016q112.992 8 200.992-60.992 52-39.008 83.008-98.016t32.992-124q3.008-56-15.488-110.016t-55.488-96q31.008-32 108-108.992l119.008-119.008q-7.008-7.008-23.488-24t-25.504-24.992l-103.488 103.488-126.496 125.504q-47.008-34.016-106.016-48t-116.992-4q-56.992 8.992-107.488 40.512t-83.488 79.488q-44 60-52.992 132.992-8.992 64 10.016 127.008t62.016 110.016z m192.992 63.008q-27.008-4-36-7.008-56.992-14.016-103.008-52.512T213.984 605.984q-28-60-24-126.016 4-63.008 37.504-118.496t87.488-88.512q56-34.016 124-37.504t127.008 25.504q56 27.008 95.008 78.496t48.992 113.504q10.016 58.016-6.016 112.992-16 60-59.008 107.008t-100.992 68.992q-56.992 22.016-120.992 15.008z"  horiz-adv-x="1024" />

    
    <glyph glyph-name="icon-question" unicode="&#59024;" d="M773.504 645.504q-52.512 52.512-120 80.992T512 755.008t-141.504-28-119.488-80.992q-71.008-71.008-96-166.016t0-191.008 96-167.008q52-52 119.488-80.512t141.504-28.512q74.016 0 141.504 28t119.488 80.992q52.992 52 80.992 119.488t28 141.504q0 75.008-28 142.496t-80.512 120zM752.992 144q-48-48-110.496-74.016T512 43.968q-143.008 0-240.992 100-66.016 64.992-88.992 152.992t0 176 88.992 152.992q48 48 110.496 74.016T512 725.984q143.008 0 240.992-100 48-48 74.016-110.496t26.016-131.008-26.016-130.496-74.016-110.016z m-268.992 143.008q0 42.016 8 59.008 10.016 22.016 32.992 47.008 4 4 10.496 12t9.504 12q16 20 20.992 32 7.008 16.992 7.008 36 0 22.016-12 43.008-12 19.008-40 20.992-39.008-2.016-52.992-26.016-6.016-11.008-8-27.008-3.008-20-3.008-31.008h-42.016q-2.016 47.008 22.016 82.016 24 36.992 78.016 36.992 48 0 74.016-27.008 27.008-24.992 27.008-68.992 0-27.008-4.992-42.016-8-20.992-19.008-32-8-8.992-24.992-28.992-8.992-11.008-28.992-34.016-4.992-10.016-8.992-16.992-2.016-15.008-2.016-44 0-0.992-10.496-1.504t-21.504-0.512z m0-87.008v51.008h44.992v-51.008h-44.992z"  horiz-adv-x="1024" />

    
    <glyph glyph-name="icon-redo" unicode="&#59025;" d="M128 96h20.992l38.016 62.016q74.016 119.008 152 154.016 42.016 19.008 80 28.512T512 352.032v-160l384 256-384 256v-160.992q-183.008-8-287.008-112Q125.984 331.04 128 166.048v-70.016z m416 416V640.992L840 448 544 253.984V384q-140 0-227.488-46.016T160 172.992q-0.992 7.008-0.512 19.488t6.496 47.488 18.016 67.008T224 377.984t67.488 67.008 104.992 47.488 147.488 19.488z"  horiz-adv-x="1024" />

    
    <glyph glyph-name="icon-singledown" unicode="&#59026;" d="M766.016 527.008l-232.992-232.992-232 232.992-56.992-56.992 288.992-290.016 290.016 290.016z"  horiz-adv-x="1024" />

    
    <glyph glyph-name="icon-remove" unicode="&#59027;" d="M480 768q146.016 0 248.992-103.008T832 416t-103.008-248.992T480 64t-248.992 103.008T128 416t103.008 248.992T480 768z m0 64Q308 832 185.984 709.984t-122.016-294.016 122.016-294.016T480-0.064t294.016 122.016 122.016 294.016-122.016 294.016T480 832zM256 448h448v-64H256v64z"  horiz-adv-x="1024" />

    
    <glyph glyph-name="icon-singleleft" unicode="&#59028;" d="M655.008 129.984l-232.992 232.992 232.992 232-56.992 56.992-290.016-288.992 290.016-290.016z"  horiz-adv-x="1024" />

    
    <glyph glyph-name="icon-singleright" unicode="&#59029;" d="M360 612l248-248-248-248 60.992-60.992 308 308.992-308 308.992z"  horiz-adv-x="1024" />

    
    <glyph glyph-name="icon-singleup" unicode="&#59030;" d="M258.016 240.992l232.992 232.992 232-232.992 56.992 56.992-288.992 290.016-290.016-290.016z"  horiz-adv-x="1024" />

    
    <glyph glyph-name="icon-smalldown" unicode="&#59031;" d="M512 695.008q-24 0-46.016 18.016l-118.016 116.992q-8.992 8.992 0 18.016t18.016 0l118.016-118.016q11.008-11.008 26.496-11.008t27.488 11.008l116.992 118.016q8.992 8.992 18.016 0t0-18.016l-116.992-116.992q-18.016-18.016-44-18.016z"  horiz-adv-x="1024" />

    
    <glyph glyph-name="icon-smallup" unicode="&#59032;" d="M665.504 704q-7.488 0-10.496 3.008L538.016 824q-12 12-27.488 12t-26.496-12l-118.016-116.992q-8.992-8.992-18.016 0t0 16.992l118.016 118.016q16.992 18.016 44.512 18.016t45.504-18.016l116.992-118.016q8.992-8 0-16.992 0-3.008-7.488-3.008z"  horiz-adv-x="1024" />

    
    <glyph glyph-name="icon-sort" unicode="&#59033;" d="M732.992 236L512 458.016l-220.992-222.016q-8-10.016-24.992-10.016-15.008 0-24.992 10.016t-10.016 24.992q0 16.992 10.016 24.992l246.016 246.016q11.008 10.016 24.992 10.016 16.992 0 24.992-10.016l246.016-246.016q10.016-11.008 10.016-24.992 0-15.008-10.016-24.992t-24.992-10.016q-16.992 0-24.992 10.016z"  horiz-adv-x="1024" />

    
    <glyph glyph-name="icon-smill" unicode="&#59034;" d="M780 652q-72.992 72.992-170.496 98.496t-195.008 0-170.496-98.496-98.496-170.496 0-195.008 98.496-170.496 170.496-98.496 195.008 0 170.496 98.496 98.496 170.496 0 195.008-98.496 170.496z m-41.504-494.496q-61.504-61.504-144-83.488t-164.992 0-144 83.488-83.488 144 0 164.992 83.488 144 144 83.488 164.992 0 144-83.488 83.488-144 0-164.992-83.488-144z m-367.488 288.48h-24.992q-4 0-6.016 3.008v3.008l0.992 3.008 55.008 70.016q2.016 2.016 4.512 2.016t4.512-2.016l55.008-70.016q2.016-2.016 0.512-5.504t-4.512-3.488h-26.016q-2.016 0-3.008 2.016l-26.016 32.992-27.008-32.992q-0.992-2.016-3.008-2.016z m319.008 9.024q2.016-2.016 0.512-5.504t-5.504-3.488h-24.992q-2.016 0-4 2.016l-26.016 32.992-26.016-32.992q-0.992-2.016-4-2.016h-24.992q-4 0-4.992 3.008-0.992 0.992-0.992 3.008t0.992 3.008l55.008 70.016q2.016 2.016 4.992 2.016t4.992-2.016z m-14.016-150.016q-20-47.008-64.992-75.488T512 200.992q-55.008 0-99.488 28.512t-64.512 76.512q-4 8-0.512 16t11.488 12q4 0.992 8 0.992 15.008 0 20-12.992 15.008-36 48.992-56.992t76-20.992 75.488 20.992 49.504 56.992q3.008 8 11.488 11.488t16.512 0 11.488-12-0.512-16.512z"  horiz-adv-x="1024" />

    
    <glyph glyph-name="icon-sort-checked" unicode="&#59035;" d="M291.008 532L512 309.984l220.992 222.016q8 10.016 24.992 10.016 15.008 0 24.992-10.016t10.016-24.992q0-16.992-10.016-24.992l-246.016-246.016q-11.008-10.016-24.992-10.016-16.992 0-24.992 10.016L240.96 482.016q-10.016 11.008-10.016 24.992 0 15.008 10.016 24.992t24.992 10.016q16.992 0 24.992-10.016z"  horiz-adv-x="1024" />

    
    <glyph glyph-name="icon-star" unicode="&#59036;" d="M722.016 60.992l-208.992 144-208.992-144.992 72 244.992-202.016 155.008 254.016 7.008 84 240 84.992-240 252.992-6.016-200.992-156 72.992-244z"  horiz-adv-x="1024" />

    
    <glyph glyph-name="icon-strikethrough" unicode="&#59037;" d="M907.008 416.992h-278.016q-32 12-72 24-8 2.016-23.008 7.008-162.016 48.992-162.016 122.016 0 47.008 32.992 75.008t88 28q74.016 0 123.008-34.496t48.992-85.504v-2.016h64V717.024h-66.016v-54.016q-40 34.016-82.496 50.496t-91.488 16.512q-98.016 0-157.504-55.008t-59.488-144q0-68 39.008-108.992l4.992-4.992H124.96v-67.008h311.008q7.008-2.016 12.992-4 23.008-8 62.016-20.992 143.008-44.992 143.008-116 0-55.008-35.008-86.016t-96.992-31.008q-76.992 0-131.488 42.496T336 233.984v8.992H271.008v-192.992H336v67.008q39.008-40 87.008-60t107.008-20q104.992 0 168.512 56.992t63.488 151.008q0 64-32 104.992h176.992v67.008z"  horiz-adv-x="1024" />

    
    <glyph glyph-name="icon-sub" unicode="&#59038;" d="M788 139.008v-44.992h115.008v-58.016h-172.992V168l115.008 54.016v44.992h-115.008v56.992h172.992v-131.008zM704.992 727.008h-122.016l-168.992-168.992-168.992 168.992H122.976l230.016-230.016-230.016-230.016h122.016l168.992 168.992 168.992-168.992h122.016l-230.016 230.016z"  horiz-adv-x="1024" />

    
    <glyph glyph-name="icon-super" unicode="&#59039;" d="M784 541.984v-44h114.016v-58.016h-171.008v131.008l114.016 52.992V668.96h-114.016V725.952h171.008v-130.016z m-81.984-44h-120.992l-168-168-168 168H124.032l228-228.992-228-228h120.992l168 168 168-168h120.992l-228 228z"  horiz-adv-x="1024" />

    
    <glyph glyph-name="icon-transparent" unicode="&#59040;" d="M39.008 856.992h315.008v-315.008H39.008V856.992z m631.008 0h315.008v-315.008h-315.008V856.992z m-316-315.008h315.008v-316h-315.008v316z m-315.008-316h315.008v-315.008H39.008v315.008z m631.008 0h315.008v-315.008h-315.008v315.008z"  horiz-adv-x="1024" />

    
    <glyph glyph-name="icon-trash" unicode="&#59041;" d="M420.512 223.008q5.504 0 9.504 3.488t4 9.504v270.016q0 6.016-4 9.504t-9.504 3.488-8.992-3.488-3.488-9.504v-270.016q0-6.016 3.488-9.504t8.992-3.488z m80.992 0q5.504 0 9.504 3.488t4 9.504v270.016q0 6.016-4 9.504t-9.504 3.488-8.992-3.488-3.488-9.504v-270.016q0-6.016 3.488-9.504t8.992-3.488z m80.992 0q5.504 0 8.992 3.488t3.488 9.504v270.016q0 6.016-3.488 9.504t-8.992 3.488-9.504-3.488-4-9.504v-270.016q0-6.016 4-9.504t9.504-3.488z m112.512 381.984h-94.016v28q0 16-11.488 27.008t-26.496 11.008H440q-15.008 0-26.496-11.008t-11.488-27.008v-28H308q-10.016 0-18.016-7.488t-8-18.496 8-18.496 18.016-7.488h16.992v-379.008q0-8.992 6.016-15.008t15.008-6.016h311.008q8.992 0 15.008 6.016t6.016 15.008V553.024h16.992q10.016 0 18.016 7.488t8 18.496-8 18.496-18.016 7.488z m-258.016 28q0 4 3.008 4h123.008q3.008 0 3.008-4v-28h-128.992v28z m198.016-436.992H368V552.992h267.008v-356.992z"  horiz-adv-x="1024" />

    
    <glyph glyph-name="icon-triangle-down" unicode="&#59042;" d="M903.008 697.984H122.016l391.008-624.992z m-76-40l-312.992-507.008-312 507.008h624.992z"  horiz-adv-x="1024" />

    
    <glyph glyph-name="icon-triangle-left" unicode="&#59043;" d="M826.016-7.008V773.984L201.024 382.976z m-40 76L279.008 381.984l507.008 312v-624.992z"  horiz-adv-x="1024" />

    
    <glyph glyph-name="icon-triangle-right" unicode="&#59044;" d="M198.016 775.008v-780.992l624.992 391.008z m40-76l507.008-312.992-507.008-312V699.008z"  horiz-adv-x="1024" />

    
    <glyph glyph-name="icon-triangle-up" unicode="&#59045;" d="M120.992 69.984h780.992L510.976 694.976z m76 40l312.992 507.008 312-507.008H196.992z"  horiz-adv-x="1024" />

    
    <glyph glyph-name="icon-undo" unicode="&#59046;" d="M896 160v6.016q0.992 164.992-98.016 264.992-103.008 104-286.016 112V704l-384-256 384-256v160q55.008-2.016 92.992-11.488t80-28.512q76.992-35.008 152-154.016l38.016-62.016h20.992v64z m-32 12.992q-68.992 119.008-156.512 164.992T480 384v-130.016L184 448 480 640.992V512q64.992 0 119.008-11.488t91.488-31.008 67.488-44.992 48-53.504 30.496-56.512 17.504-53.504 8-44.992 3.008-31.008z"  horiz-adv-x="1024" />

    
    <glyph glyph-name="icon-xui" unicode="&#59047;" d="M312.512 808q-25.504-24.992-25.504-60T313.024 688l88.992-88.992L299.008 496l-88 87.008Q186.016 608 151.008 608t-60-24.992-26.016-60.512 24.992-61.504l87.008-87.008L96 292.992q-24.992-24.992-24.992-60t25.504-60 60-24.992 60.512 24.992l80 80.992 92.992-92.992-84-84q-24.992-24.992-24.992-60t24.992-60 60-24.992 60 24.992l84 84 88.992-88.992q24.992-26.016 62.016-26.016t62.016 25.504 24 60.992-26.016 61.504l-88.992 88.992 103.008 103.008 87.008-88q26.016-24.992 61.504-26.016t60.512 24q24.992 26.016 24.512 61.504t-25.504 60.512l-88 88 80.992 80.992q24.992 24.992 25.504 60.512t-24.512 60.512-60.512 24.512-60.512-25.504l-80.992-80.992-92.992 92.992 84 84q24.992 24.992 24.992 60t-24.992 60-60 24.992-60-24.992l-84-84-88.992 88.992q-24.992 24.992-60 24.992t-60.512-24.992z m106.496-432l103.008 103.008 92.992-92.992L512 283.008z"  horiz-adv-x="1024" />

    
    <glyph glyph-name="icon-upload" unicode="&#59048;" d="M960.992 344.992q0-66.016-47.008-112.992t-112.992-47.008h-163.008q-7.008 0-12.512 5.504t-5.504 12.992 5.504 12.512 12.512 4.992h163.008q52 0 88 36.512t36 87.488-36 87.488-87.008 36.512h-0.992q-8 0-14.016 6.016t-4.992 14.016q2.016 14.016 2.016 24.992 0 83.008-58.496 141.504T584 714.016q-63.008 0-115.008-36.992-51.008-36-72-94.016-3.008-8.992-12.992-11.008t-16.992 4.992q-26.016 26.016-63.008 26.016t-63.488-26.496-26.496-63.488v-4q0.992-14.016-12.992-18.016-44-12-72-48-28.992-36.992-28.992-84 0-56.992 40.512-97.504t97.504-40.512h148.992q8 0 12.992-4.992t4.992-12.512-4.992-12.992-12.992-5.504H238.048q-72 0-123.008 51.008t-51.008 123.008q0 59.008 36 106.016 31.008 39.008 78.016 56.992 4 48.992 40 83.008T304.064 639.04q38.016 0 68.992-20.992 26.016 54.016 75.008 88 60.992 44 136 44 98.016 0 167.008-69.504t68.992-166.496v-10.016q60-7.008 100.512-52.512t40.512-106.496z m-345.984-28.992q-4.992-4.992-12.512-4.992t-12.512 4.992l-59.008 59.008v-315.008q0-8-5.504-12.992t-12.992-4.992-12.512 4.992-4.992 12.992v315.008l-59.008-59.008q-6.016-4.992-12.992-4.992t-12.512 5.504-5.504 12.512 4.992 12.992l90.016 88.992q4.992 6.016 12.512 6.016t12.512-6.016l90.016-88.992q4.992-6.016 4.992-13.504t-4.992-12.512z"  horiz-adv-x="1024" />

    
    <glyph glyph-name="icon-zoomin" unicode="&#59049;" d="M936 12.992h0.992l-248 248.992q75.008 92 79.008 207.008 3.008 68.992-21.504 136t-71.488 116q-40 44-94.016 72t-112.992 36Q445.984 832 421.984 832 302.976 832 211.968 759.008 159.968 720 125.952 663.52t-44-120.512q-11.008-59.008 0-120t40.992-112.992q42.016-72.992 112-118.016 64.992-43.008 142.016-52 22.016-4 44.992-4 110.016 0 199.008 63.008l247.008-248.992 4.992-4q12.992-10.016 28.992-10.016 19.008 0 32.512 13.504t13.504 32.512q0 16.992-12 31.008z m-464 180q-64.992-11.008-128.992 7.008-60.992 16.992-110.496 59.008t-75.488 100q-31.008 64-27.488 139.008t40.512 136q32 56 86.496 93.504t118.496 47.488l6.016 0.992q4.992 0.992 8.992 0.992 16 2.016 32 2.016 66.016 0 124-27.008 51.008-24 90.496-66.496t59.488-95.488q23.008-56.992 20-120T685.024 352q-30.016-62.016-87.488-104.992t-125.504-54.016zM448 651.008h-52v-140.992H256v-52h140v-140.992H448v140.992h140.992v52h-140z"  horiz-adv-x="1024" />

    
    <glyph glyph-name="icon-underline" unicode="&#59050;" d="M807.008 644.992h-232.992v-15.008h20.992q26.016 0 41.504-15.488t15.488-67.488v-248q0-68-16-114.016-15.008-39.008-46.016-62.016-28-20.992-83.008-20.992t-83.008 20.992q-31.008 23.008-46.496 62.016t-15.488 114.016v248q0 60 15.008 67.008 15.008 11.008 24.512 13.504t27.488 2.496h20.992v15.008H206.976v-15.008h40.992q24.992-8 31.008-20.992 10.016-31.008 10.016-62.016v-223.008q0-103.008 16-150.016 14.016-42.016 67.008-76.992 60.992-26.016 140-26.016 88 0 135.008 31.008 51.008 28.992 67.008 78.016 15.008 46.016 15.008 150.016v216.992q0 40.992 11.008 62.016 6.016 12.992 31.008 20.992h40.992v15.008h-4.992zM200.992 28.992h622.016v-51.008H200.992v51.008z"  horiz-adv-x="1024" />

    
    <glyph glyph-name="load-error" unicode="&#59051;" d="M512 796.992q-99.008 0-183.008-48.512T196 615.968t-48.992-183.488 48.992-183.488 132.992-132.512T512 67.968t183.008 48.512 132.992 132.512 48.992 183.488-48.992 183.488-132.992 132.512T512 796.992z m0-637.984q-76.992 0-142.016 40l376 376q40-66.016 40-143.008 0-112.992-80.512-192.992t-193.504-80z m0 546.976q76.992 0 142.016-40l-376-376q-40 64.992-40 142.016 0 114.016 80.512 194.016t193.504 80z"  horiz-adv-x="1024" />

    
    <glyph glyph-name="icon-zoomout" unicode="&#59052;" d="M948 1.984h0.992l-255.008 256.992q76.992 94.016 80.992 212.992 3.008 70.016-22.016 139.008t-74.016 120q-40.992 44.992-96.512 73.504t-115.488 36.512q-23.008 3.008-47.008 3.008-123.008 0-216.992-74.016-52.992-40-88-98.496t-46.016-123.488q-10.016-60.992 0.992-124t42.016-116q43.008-75.008 116-122.016 66.016-43.008 144.992-52.992 23.008-4 47.008-4 112.992 0 204 64.992l254.016-256 4.992-4q12.992-11.008 30.016-11.008 20 0 33.504 14.016t13.504 34.016q0 16.992-12 31.008z m-476.992 186.016q-67.008-12-132.992 7.008-63.008 16.992-113.504 60.512t-77.504 102.496q-32 66.016-28.512 143.008T160 641.024q32.992 58.016 88.992 96.512t122.016 48.512l6.016 0.992q6.016 0.992 10.016 2.016 16 0.992 32 0.992 68 0 127.008-28 54.016-24 94.496-67.488t61.504-98.496q22.016-59.008 19.008-124t-31.008-120.992q-31.008-64-90.016-108t-128.992-55.008zM248.992 513.984h342.016v-54.016H248.992v54.016z"  horiz-adv-x="1024" />

    
    <glyph glyph-name="uicmd-add" unicode="&#59053;" d="M752 464h-160v160q0 32.992-23.488 56.512T512 704t-56.512-23.488T432 624l3.008-160H272q-32.992 0-56.512-23.488T192 384t23.488-56.512T272 304l163.008 3.008L432 144q0-32.992 23.488-56.512T512 64t56.512 23.488 23.488 56.512v163.008l160-3.008q32.992 0 56.512 23.488T832 384t-23.488 56.512T752 464z"  horiz-adv-x="1024" />

    
    <glyph glyph-name="refresh" unicode="&#59054;" d="M778.016 481.984h-172q-8 0-14.016 5.504t-6.016 14.016 6.016 14.496 14.016 6.016h152V665.024q0 8 5.504 14.016t14.016 6.016 14.496-6.016 6.016-14.016v-163.008q0-8.992-6.016-14.496t-14.016-5.504zM512 75.008h-8.992q-128 4-215.488 96.992t-83.488 220.512 96.992 215.008 220.512 84 214.496-96.512q32-35.008 52.992-76 4-8 0.992-16t-10.496-11.488-15.008-0.512-11.488 10.016q-18.016 36-46.016 66.016-76 80.992-187.008 84.512t-192-72.512-84-187.488 72.992-192 187.008-84 192 72.512q30.016 28 48.992 64 4.992 7.008 12.512 8.992t15.008-2.016 9.504-12-2.016-15.008q-23.008-40.992-56.992-72.992-88.992-84-211.008-84z"  horiz-adv-x="1024" />

    
    <glyph glyph-name="uicmd-arrowdrop" unicode="&#59055;" d="M299.008 489.984L512 276.992l214.016 212.992H299.008z"  horiz-adv-x="1024" />

    
    <glyph glyph-name="uicmd-check" unicode="&#59056;" d="M728 716q48 0 82.016-34.016t34.016-82.016v-432q0-48-34.016-82.016t-82.016-34.016H296q-48 0-82.016 34.016t-34.016 82.016v432q0 48 34.016 82.016T296 716h432z m0 64H296q-75.008 0-127.488-52.512T116 600v-432q0-75.008 52.512-127.488t127.488-52.512h432q75.008 0 127.488 52.512t52.512 127.488V600q0 75.008-52.512 127.488T728 780z"  horiz-adv-x="1024" />

    
    <glyph glyph-name="uicmd-check-checked" unicode="&#59057;" d="M812.992 776.992q38.016 0 64.512-27.008t26.496-64.992v-602.016q0-38.016-26.496-64.992t-64.512-27.008H210.976q-38.016 0-64.992 27.008t-27.008 64.992V684.992q0 38.016 27.008 64.992t64.992 27.008h602.016zM198.016 700v-627.008h624.992V700H198.016zM272 352.992l216-155.008-42.016-59.008-216 156zM748.992 648l58.016-43.008-347.008-476-58.016 42.016z"  horiz-adv-x="1024" />

    
    <glyph glyph-name="uicmd-close" unicode="&#59058;" d="M252.992 643.008q16 16 39.008 16t40-16l439.008-439.008q16-16.992 16-40t-16-39.008q-16-16-39.008-16t-40 16L252.992 564q-16 16.992-16 40t16 39.008z m518.016 0q16-16 16-39.008t-16-40L332 124.992q-16.992-16-40-16t-39.008 16q-16 16-16 39.008t16 40L692 643.008q16.992 16 40 16t39.008-16z"  horiz-adv-x="1024" />

    
    <glyph glyph-name="uicmd-cmdbox" unicode="&#59059;" d="M696.512 68q-54.496 0-92.992 38.496t-38.496 92.512v80h-106.016v-80q0-54.016-38.496-92.512t-92.992-38.496-92.992 38.496-38.496 92.992 38.496 92.992 92.512 38.496h80v106.016h-80q-54.016 0-92.512 38.496t-38.496 92.992 38.496 92.992 92.992 38.496 92.992-38.496 38.496-92.512v-80h106.016v80q0 54.016 38.496 92.512t92.992 38.496 92.992-38.496 38.496-92.992-38.496-92.992-92.512-38.496h-80v-106.016h80q54.016 0 92.512-38.496t38.496-92.992-38.496-92.992-92.992-38.496z m-79.52 211.008v-80q0-32 23.488-55.488t56-23.488 56 23.488 23.488 56-23.488 56-55.488 23.488h-80z m-289.984 0q-32 0-55.488-23.488t-23.488-56 23.488-56 56-23.488 56 23.488 23.488 55.488v80h-80z m132 52h106.016v106.016h-106.016v-106.016z m157.984 157.984h80q32 0 55.488 23.488t23.488 56-23.488 56-56 23.488-56-23.488-23.488-55.488v-80zM327.488 648q-32.512 0-56-23.488t-23.488-56 23.488-56 55.488-23.488h80v80q0 32-23.488 55.488t-56 23.488z"  horiz-adv-x="1024" />

    
    <glyph glyph-name="uicmd-date" unicode="&#59060;" d="M351.488 580.992q13.504 0 22.496 9.504t8.992 23.488V676.992q0 14.016-8 23.008-15.008 15.008-35.488 7.488t-20.512-29.504v-63.008q0-14.016 9.504-24t23.008-10.016z m324-0.48q13.504 0.512 22.496 10.016t8.992 23.488V676.032q0 14.016-8 23.008-15.008 16-35.488 8t-20.512-30.016v-63.008q0-14.016 9.504-24t23.008-9.504z m-140.48-237.504h84.992v-63.008h-84.992v63.008z m129.984 85.984h84.992v-63.008h-84.992v63.008z m0-85.984h84.992v-64h-84.992v64zM406.016 256h84.992v-63.008h-84.992V256z m128.992 0.992h84.992v-64h-84.992v64z m129.984 0h84.992v-64h-84.992v64zM276 256h84.992v-63.008H276V256z m0 87.008h84.992v-64H276v64z m259.008 85.984h84.992v-63.008h-84.992v63.008z m-128.992-85.984h84.992v-64h-84.992v64z m0 85.984h84.992v-63.008h-84.992v63.008zM824 645.984h-80v-12q-0.992-28.992-19.008-48.992t-46.016-22.016h-11.008q-27.008 3.008-44.992 23.488t-18.016 48.512v11.008h-186.016v-12q-0.992-30.016-20.512-50.496t-48.512-20.512-49.504 20.992-20.512 51.008v11.008h-80q-4.992 0-8.512-4t-3.488-8.992v-535.008q0-4.992 3.488-8.512t8.512-3.488h624q4.992 0 8.512 3.488t3.488 8.512V632.992q0 4.992-3.488 8.992t-8.512 4zM798.016 128H228V476.992h570.016V128z"  horiz-adv-x="1024" />

    
    <glyph glyph-name="uicmd-color" unicode="&#59061;" d="M806.016 568.992q54.016-84.992 54.016-184.992 0-82.016-35.488-152.992t-97.504-120q-95.008-75.008-215.008-75.008-74.016 0-140.512 30.016t-114.496 83.008q-66.016 71.008-86.016 164.992-7.008 34.016-7.008 70.016 0 71.008 27.008 134.496t75.008 111.488q48 48 111.488 75.008T512 732.032t134.496-27.008 111.488-75.008q26.016-27.008 48-60.992z m-294.016 128V384L291.008 604.992Q199.008 513.984 199.008 384H512l-220.992-220.992q91.008-92 220.992-92V384l220.992-220.992q92 91.008 92 220.992H512l220.992 220.992Q641.984 696.992 512 696.992z"  horiz-adv-x="1024" />

    
    <glyph glyph-name="uicmd-delete" unicode="&#59062;" d="M578.016 385.984l154.016 154.016q12 12.992 0 24.992l-24.992 24.992q-12 12-24.992 0l-154.016-154.016q-8-8.992-16 0l-154.016 155.008q-12 12-24.992 0l-24-24.992q-12.992-12 0-24.992l154.016-152.992q8-8.992 0-16.992L308.032 216q-12.992-12 0-24.992l24-24q12.992-12.992 24.992 0l155.008 154.016q8 8 16 0l154.016-154.016q12.992-12.992 24.992 0l24.992 24q12 12.992 0 24.992l-154.016 154.016q-6.016 8 0 16z"  horiz-adv-x="1024" />

    
    <glyph glyph-name="uicmd-dotted" unicode="&#59063;" d="M280 453.984q28.992 0 48.992-20.512t20-49.504-20-49.504-48.992-20.512-49.504 20.512-20.512 49.504 20.512 49.504 49.504 20.512z m232 0q28.992 0 49.504-20.512t20.512-49.504-20.512-49.504-49.504-20.512-49.504 20.512-20.512 49.504 20.512 49.504T512 453.984z m232 0q28.992 0 49.504-20.512t20.512-49.504-20.512-49.504-49.504-20.512-48.992 20.512-20 49.504 20 49.504 48.992 20.512z"  horiz-adv-x="1024" />

    
    <glyph glyph-name="uicmd-datetime" unicode="&#59064;" d="M638.496 20.992q-98.496 0-168 69.504t-69.504 168 69.504 168 168 69.504 168-69.504 69.504-168-69.504-168-168-69.504z m0 443.008q-85.504 0-145.504-60t-60-145.504 60-146.016 145.504-60.512 146.016 60.512 60.512 146.016-60.512 145.504-146.016 60z m142.496-220.992h-98.016q-4.992-14.016-16.992-23.008t-27.008-8.992q-20 0-34.016 14.016t-14.016 32.992q0 16 8.992 28t23.008 16.992v98.016q0 7.008 4.512 11.488t11.008 4.512 11.488-4.512 4.992-11.488v-98.016q20.992-7.008 28-28.992h98.016q7.008 0 11.488-4.512t4.512-11.008-4.512-11.008-11.488-4.512z m-142.496 30.976q-6.496 0-11.008-4.512t-4.512-11.008 4.512-11.008 11.008-4.512 11.488 4.512 4.992 11.008-4.992 11.008-11.488 4.512zM448 528q18.016 0 31.488-12t15.488-30.016q-34.016-20.992-60-51.008-15.008 4-24.512 16.512T400.96 480q0 20 14.016 34.016t32.992 14.016z m0.512-64q6.496 0 11.008 4.992t4.512 11.488-4.512 11.008-11.008 4.512-11.008-4.512-4.512-11.008 4.512-11.488 11.008-4.992z m-143.008-31.008q-19.488 0-33.504 14.016t-14.016 33.504 14.016 33.504 33.504 14.016 33.504-14.016 14.016-33.504-14.016-33.504-33.504-14.016z m0 63.008q-6.496 0-11.008-4.512t-4.512-11.008 4.512-11.488 11.008-4.992 11.488 4.992 4.992 11.488-4.992 11.008-11.488 4.512z m0-238.016q-19.488 0-33.504 14.016t-14.016 34.016 14.016 34.016 33.504 14.016 33.504-14.016 14.016-34.016-14.016-34.016-33.504-14.016z m0 64q-6.496 0-11.008-4.512t-4.512-11.488 4.512-11.488 11.008-4.512 11.488 4.512 4.992 11.488-4.992 11.488-11.488 4.512z m412.512 317.024q0 12.992-9.504 22.496t-22.496 9.504h-31.008q0-20-14.016-34.016t-34.016-14.016-34.016 14.016-14.016 34.016h-63.008q0-20-14.016-34.016t-33.504-14.016-33.504 14.016-14.016 34.016h-63.008q0-20-14.016-34.016t-34.016-14.016-34.016 14.016-14.016 34.016h-31.008q-12.992 0-22.496-9.504t-9.504-22.496v-476q0-12.992 9.504-22.016t22.496-8.992h190.016q8-16 20-32H210.816q-27.008 0-45.504 18.496t-18.496 44.512V639.008q0 26.016 18.496 44.512t45.504 18.496h31.008q0 20 14.016 34.016t34.016 14.016 34.016-14.016 14.016-34.016h63.008q0 20 14.016 34.016t33.504 14.016 33.504-14.016 14.016-34.016h63.008q0 20 14.016 34.016t34.016 14.016 34.016-14.016 14.016-34.016h31.008q27.008 0 45.504-18.496t18.496-44.512v-135.008q-16.992 8-32 12V639.008zM306.016 701.984q0 7.008-4.512 11.488t-11.488 4.512-11.488-4.512-4.512-11.488v-31.008q0-7.008 4.512-11.488t11.488-4.512 11.488 4.512 4.512 11.488v31.008z m157.984 0q0 7.008-4.512 11.488t-11.008 4.512-11.008-4.512-4.512-11.488v-31.008q0-7.008 4.512-11.488t11.008-4.512 11.008 4.512 4.512 11.488v31.008z m159.008 0q0 7.008-4.512 11.488t-11.488 4.512-11.488-4.512-4.512-11.488v-31.008q0-7.008 4.512-11.488t11.488-4.512 11.488 4.512 4.512 11.488v31.008z"  horiz-adv-x="1024" />

    
    <glyph glyph-name="uicmd-helpinput" unicode="&#59065;" d="M264.992 568.992h400.992v-31.008H264.992v31.008z m0-123.008h400.992v-31.008H264.992v31.008z m0-124h400.992v-31.008H264.992v31.008z m494.016-184.992h-154.016l154.016 154.016v-154.016z"  horiz-adv-x="1024" />

    
    <glyph glyph-name="uicmd-getter" unicode="&#59066;" d="M166.016 185.984v247.008l94.016-92.992 202.016 216.992L627.04 384l231.008 198.016-231.008-312.992-164.992 164-144-151.008 95.008-96H166.048z"  horiz-adv-x="1024" />

    
    <glyph glyph-name="uicmd-file" unicode="&#59067;" d="M740 439.008l-255.008-248q-27.008-26.016-64-26.016t-63.488 26.016-26.496 62.016 26.016 62.016l212.992 207.008 42.016-42.016-212-206.016q-8.992-8.992-8.992-20.992t8.992-20.512 20.992-8.512 20.992 8L697.024 480q27.008 26.016 27.008 62.496t-26.496 62.016-64 25.504-63.488-26.016L302.048 344h-0.512l-0.512-0.992q-43.008-42.016-43.008-102.496t43.488-103.008 105.504-42.496 106.016 43.008l183.008 178.016 43.008-40.992-184-179.008q-60.992-59.008-148-59.008t-148.512 59.488-61.504 144 62.016 144.512l268 260.992q44 43.008 106.496 43.008t106.496-43.008 44-103.488-44-103.488z"  horiz-adv-x="1024" />

    
    <glyph glyph-name="uicmd-info" unicode="&#59068;" d="M512 804q-114.016 0-210.496-56.512T148.512 594.496 92 384t56.512-210.496 152.992-152.992T512-36t210.496 56.512 152.992 152.992T932 384t-56.512 210.496-152.992 152.992T512 804z m0-799.008q-103.008 0-190.016 51.008t-138.016 138.016-51.008 190.016 51.008 190.016 138.016 138.016T512 763.072t190.016-51.008 138.016-138.016 51.008-190.016-51.008-190.016-138.016-138.016T512 4.992z m120.992 150.016v-55.008q0-4.992-4-4.992h-204q-4.992 0-4.992 4.992v55.008q0 4 4.992 4h58.016V456H424q-4 0-4 4v56.992q0 4 4 4h139.008q4 0 4-4v-358.016h62.016q4 0 4-4zM447.008 624.512q0 26.496 19.008 45.504t45.504 19.008 44.992-19.008 18.496-45.504-18.496-44.992-44.992-18.496-45.504 18.496-19.008 44.992z"  horiz-adv-x="1024" />

    
    <glyph glyph-name="uicmd-land" unicode="&#59069;" d="M770.016 8.992h-528q-44 0-74.496 30.496t-30.496 74.496v528q0 44 32 80.512t75.008 36.512h295.008v-52.992H244.032q-22.016 0-38.016-16t-16-38.016l-0.992-538.016q0-22.016 15.488-37.504t37.504-15.488l538.016 0.992q22.016 0 38.016 16t16 38.016v295.008h52.992v-295.008q0-43.008-36.512-75.008t-80.512-32zM472 304h120q12 0 19.488-8t7.488-19.008-7.488-19.008-19.488-8h-187.008q-11.008 0-19.008 8t-8 19.008V464q0 12 8 19.488t19.008 7.488 19.008-7.488 8-19.488v-124.992L831.008 738.016q7.008 8 18.496 8t19.008-8 7.488-19.008-8-19.008z"  horiz-adv-x="1024" />

    
    <glyph glyph-name="uicmd-max" unicode="&#59070;" d="M816 688h-608q-20.992 0-32.512-11.488t-11.488-31.488v-520.992q0-20.992 11.488-32.512t32.512-11.488h608q20 0 31.488 11.488t12.512 32.512V645.024q-0.992 20-12.512 31.488T816 688z m0-564h-608V558.016h608v-434.016z"  horiz-adv-x="1024" />

    
    <glyph glyph-name="uicmd-min" unicode="&#59071;" d="M195.008 99.008h635.008V32H195.008v67.008z"  horiz-adv-x="1024" />

    
    <glyph glyph-name="uicmd-location" unicode="&#59072;" d="M731.008 49.984v140.992h71.008v-140.992q0-28.992-21.504-50.496t-49.504-21.504h-140.992v72h140.992z m0 566.016q28 0 49.504-21.504t21.504-49.504v-140.992h-71.008v140.992h-140.992V616h140.992zM236 544.992v-140.992h-72v140.992q0 28 22.016 49.504t50.016 21.504h140.992v-71.008H236.032z m0-353.984v-140.992h140.992v-72H236q-28 0-50.016 21.504t-22.016 50.496v140.992h72zM624 156h-282.016v282.016H624v-282.016z"  horiz-adv-x="1024" />

    
    <glyph glyph-name="uicmd-opt" unicode="&#59073;" d="M776 303.008h-35.008q-8.992-31.008-24.992-58.016l32.992-32q15.008-16 15.008-38.016t-15.008-36.992l-19.008-19.008q-15.008-15.008-36.992-15.008t-38.016 15.008l-32 32.992q-27.008-16-58.016-24v-34.016q0-22.016-15.488-37.504t-37.504-15.488h-26.016q-22.016 0-37.504 15.488t-15.488 37.504v34.016q-31.008 8-58.016 24l-32.992-32.992q-15.008-15.008-36.992-15.008t-36.992 15.008l-19.008 19.008q-16 15.008-16 36.992t16 38.016l32 32q-15.008 27.008-24 58.016H221.952q-22.016 0-37.504 15.488t-15.488 37.504v26.016q0 22.016 15.488 37.504t37.504 15.488H256.96q8 31.008 23.008 58.016l-31.008 31.008q-16 15.008-16 36.992t16 38.016l19.008 18.016q15.008 16 36.992 16t36.992-16l31.008-30.016q28 16 60 24.992V648.032q0 20.992 15.488 36.512t37.504 15.488h26.016q22.016 0 37.504-15.488t15.488-36.512v-36q32-8.992 60-24.992l30.016 30.016q16 16 37.504 16t37.504-16l19.008-18.016q15.008-16 15.008-38.016t-15.008-36.992l-31.008-31.008q15.008-27.008 23.008-58.016h35.008q20.992 0 36.512-15.488t15.488-37.504v-26.016q0-22.016-15.488-37.504t-36.512-15.488z m-276.992 210.976q-60 0-103.008-42.496t-43.008-103.008 43.008-103.008 103.008-42.496 102.496 42.496 42.496 103.008-42.496 103.008-102.496 42.496z m-0.512-209.984q-27.488 0-46.496 19.488t-19.008 46.496 19.008 46.496 46.496 19.488 47.008-19.488 19.488-46.496-19.488-46.496-47.008-19.488z"  horiz-adv-x="1024" />

    
    <glyph glyph-name="uicmd-pop" unicode="&#59074;" d="M502.016 463.008l84.992-86.016 160.992 160.992 83.008-83.008V701.984L582.016 704l80.992-80.992z m326.976-109.024L768 416l0.992-288h-512l0.992 510.016L544 640.032l-64 64H256q-26.016 0-44.992-19.008T192 640.032v-512q0-26.016 19.008-44.992T256 64.032h512q26.016 0 44.992 19.008T832 128.032z"  horiz-adv-x="1024" />

    
    <glyph glyph-name="uicmd-pin" unicode="&#59075;" d="M415.008 352L480 287.008 256.992 64l-128-63.008 63.008 128z m476 272q4-8 4-15.008 0-12-9.504-22.496t-22.016-10.496-21.504 8-12 8q-16-18.016-43.008-50.016-27.008-32.992-52.992-72.992t-44.992-83.008-19.008-83.008q0-16 6.016-26.016 4.992-11.008 11.008-20l8.992-18.016 6.016-18.016q0-12.992-8.992-23.008t-23.008-10.016q-4 0-11.008 3.008t-10.016 7.008l-320 320Q320 526.912 320 540.928q0 10.016 8 20t24 10.016q11.008 0 20-6.016 10.016-6.016 20-12.992t22.016-12 27.008-4.992q24 0 52.992 11.008t59.008 31.008 60.992 43.008q31.008 24 59.008 48.992l46.016 39.008-6.016 4.992q-8.992 8.992-8.992 22.016 0 12 7.488 22.016t23.488 10.016q11.008 0 20.992-7.008z m-126.016 37.984l-6.016-3.008q-24-24.992-59.008-55.008t-76-56.992q-39.008-27.008-78.496-48.512t-72.512-27.488q7.008-3.008 16.512-4.512t19.488-1.504q30.016 0 64.992 18.016 35.008 16.992 71.008 43.008 36.992 24.992 74.016 56l68.992 56.992z"  horiz-adv-x="1024" />

    
    <glyph glyph-name="uicmd-radio" unicode="&#59076;" d="M512 64q-132.992 0-226.496 93.504T192 384t93.504 226.496T512 704t226.496-93.504T832 384t-93.504-226.496T512 64z m0 720q-166.016 0-283.008-116.992T112 384t116.992-283.008T512-16t283.008 116.992T912 384t-116.992 283.008T512 784z"  horiz-adv-x="1024" />

    
    <glyph glyph-name="uicmd-radio-checked" unicode="&#59077;" d="M512 64q-132.992 0-226.496 93.504T192 384t93.504 226.496T512 704t226.496-93.504T832 384t-93.504-226.496T512 64z m0 720q-166.016 0-283.008-116.992T112 384t116.992-283.008T512-16t283.008 116.992T912 384t-116.992 283.008T512 784z m0-200q-83.008 0-141.504-58.496T312 384t58.496-141.504T512 184t141.504 58.496T712 384t-58.496 141.504T512 584z"  horiz-adv-x="1024" />

    
    <glyph glyph-name="uicmd-popbox" unicode="&#59078;" d="M846.016 717.984v-292h-42.016V642.976l-300-300.992-34.016 34.016 300.992 300h-216.992V718.016h292z m-42.016-542.976H303.008V676h167.008V718.016h-143.008q-27.008 0-46.016-19.008t-19.008-46.016v-454.016q0-27.008 19.008-46.016t46.016-19.008h454.016q27.008 0 46.016 19.008t19.008 46.016v143.008h-42.016v-167.008z m-584 376H177.984v-442.016q0-32.992 15.008-46.016t50.016-12.992h436v42.016H220V551.008z"  horiz-adv-x="1024" />

    
    <glyph glyph-name="uicmd-refresh" unicode="&#59079;" d="M812.992 317.984q0-2.016-0.992-3.008-26.016-111.008-110.496-180t-197.504-68.992q-60.992 0-117.504 23.008t-100.512 64.992l-52.992-52.992q-8-8-19.008-8t-18.496 7.488-7.488 18.496v186.016q0 10.016 7.488 18.016t18.496 8h184.992q11.008 0 19.008-8t8-18.496-8-18.496l-56.992-56.992q30.016-27.008 67.008-42.016t76.992-15.008q56 0 104 27.008t76.992 74.016q4 7.008 22.016 48 3.008 10.016 12 10.016H800q4.992 0 8.992-4t4-8.992z m10.016 331.008v-186.016q0-10.016-7.488-18.016t-18.496-8h-186.016q-10.016 0-18.016 8t-8 18.496 8 18.496l56.992 56.992q-60.992 56.992-144.992 56.992-55.008 0-103.008-27.008t-76.992-74.016q-4.992-7.008-22.016-48.992-3.008-8.992-12-8.992H207.968q-4.992 0-8.992 4t-4 8.992v3.008q27.008 111.008 112 180t198.016 68.992q60.992 0 118.016-23.008t100.992-64.992l54.016 52.992q8 8 19.008 8t18.496-7.488 7.488-18.496z"  horiz-adv-x="1024" />

    
    <glyph glyph-name="uicmd-restore" unicode="&#59080;" d="M171.008 555.008h170.016V725.024h512v-512h-170.016v-170.016h-512v512z m512 0v-256H768V640H427.008v-84.992h256zM256 384v-256h340.992v256H256z"  horiz-adv-x="1024" />

    
    <glyph glyph-name="uicmd-remove" unicode="&#59081;" d="M620.992 228v232.992q0 12.992-8.992 22.496t-22.016 9.504-22.016-9.504-8.992-22.496v-232.992q0-12.992 8.992-22.496t22.016-9.504 22.016 9.504 8.992 22.496z m109.024 280q-12.992 0-22.016-8.992t-8.992-22.016v-312q0-12.992-8.992-22.016t-22.016-8.992h-312q-12.992 0-22.016 8.992t-8.992 22.016v312q0 12.992-8.992 22.016t-22.016 8.992-22.016-8.992-8.992-22.016v-327.008q0-32.992 22.496-55.488t54.496-22.496h344q32 0 55.008 22.496t23.008 55.488V476.992q0 12.992-9.504 22.016t-22.496 8.992z m46.976 108.992h-111.008q-30.016 6.016-40.992 20l-20.992 24.992q-3.008 4-15.008 10.496t-22.016 6.496H456.96q-8.992 0-20.992-6.016t-15.008-10.016q-3.008-3.008-7.008-8.512t-8-10.016-7.008-7.488q-4.992-7.008-15.488-11.488t-18.496-6.496l-7.008-2.016H246.944q-12.992 0-22.016-8.992t-8.992-22.016 8.992-22.016 22.016-8.992h134.016q10.016 0 22.496 6.496t17.504 12.512q8 10.016 20 24 16 19.008 39.008 19.008h64q22.016 0 36.992-18.016 10.016-11.008 20.992-24.992 6.016-6.016 18.016-12.512t23.008-6.496h134.016q12.992 0 22.016 8.992t8.992 22.016-8.992 22.016-22.016 8.992z m-312-388.992v232.992q0 12.992-8.992 22.496t-22.016 9.504-22.016-9.504-8.992-22.496v-232.992q0-12.992 8.992-22.496t22.016-9.504 22.016 9.504 8.992 22.496z"  horiz-adv-x="1024" />

    
    <glyph glyph-name="uicmd-time" unicode="&#59082;" d="M512 689.984q-127.008 0-216.512-89.504t-89.504-216.512 89.504-216.512T512 77.952t216.512 89.504 89.504 216.512-89.504 216.512T512 689.984z m0-580.992q-114.016 0-194.496 80.512T236.992 384t80.512 194.496T512 659.008t194.496-80.512T787.008 384t-80.512-194.496T512 108.992z m19.008 302.016V584q0 8.992-5.504 15.008T512 605.024t-13.504-6.016-5.504-15.008v-172.992q-14.016-10.016-14.016-27.008 0-4 0.992-8l-80.992-82.016q-11.008-10.016 3.008-23.488t24-3.488l84 84H512q14.016 0 23.488 9.504t9.504 23.488q0 16.992-14.016 27.008z"  horiz-adv-x="1024" />

    
    <glyph glyph-name="uicmd-select" unicode="&#59083;" d="M364.992 220.992H234.976q-20 0-34.496 14.496t-14.496 34.496V660.992q0 20 14.496 34.496t34.496 14.496h456q20 0 34.496-14.496t14.496-34.496v-228q0-7.008-4.512-11.488t-11.488-4.512-11.488 4.512-4.512 11.488V660.992q0 7.008-4.992 11.488t-12 4.512H234.976q-7.008 0-11.488-4.512t-4.512-11.488v-391.008q0-7.008 4.512-11.488t11.488-4.512h130.016q7.008 0 12-4.992t4.992-11.488-4.992-11.488-12-4.992z m245.024-163.008q-11.008 0-15.008 10.016l-56 139.008-96-111.008q-8-8-18.496-4t-10.496 15.008V596q0 10.016 10.016 14.496t18.016-2.496l358.016-326.016q8-8 4-18.016t-15.008-10.016h-139.008l56-140.992q3.008-6.016 0.512-12.512t-9.504-8.512l-80.992-32.992q-3.008-0.992-6.016-0.992z m-65.024 196q0.992 0 2.016-0.992 8.992-0.992 12.992-10.016l59.008-147.008 51.008 20-59.008 148q-3.008 8 1.504 15.008t13.504 7.008h120.992l-300 272.992v-408.992l84.992 98.016q4.992 6.016 12.992 6.016z"  horiz-adv-x="1024" />

    
    <glyph glyph-name="uicmd-save" unicode="&#59084;" d="M558.016 620.992h66.016v-120h-66.016v120z m262.976-32v-523.008H202.976V701.984h504.992z m-472-121.984h314.016V656h-314.016v-188.992z m383.008-104H292v-247.008h440v247.008z"  horiz-adv-x="1024" />

    
    <glyph glyph-name="uicmd-toggle" unicode="&#59085;" d="M443.008 97.984L768 384 443.008 670.016v-572z"  horiz-adv-x="1024" />

    
    <glyph glyph-name="uicmd-toggle-checked" unicode="&#59086;" d="M688 629.984L277.984 219.968H688V629.984z"  horiz-adv-x="1024" />

    
    <glyph glyph-name="icon-alignright" unicode="&#59087;" d="M883.008 199.008v-52.992q0-11.008-8-19.008t-19.008-8H168q-11.008 0-19.008 8t-8 19.008v52.992q0 10.016 8 18.016t19.008 8h688q11.008 0 19.008-8t8-18.016z m0 158.976v-52.992q0-11.008-8-19.008t-19.008-8H327.008q-11.008 0-19.008 8t-8 19.008v52.992q0 10.016 8 18.016t19.008 8H856q11.008 0 19.008-8t8-18.016z m0 158.016v-52.992q0-10.016-8-18.016t-19.008-8H220.992q-11.008 0-19.008 8t-8 18.016v52.992q0 11.008 8 19.008t19.008 8H856q11.008 0 19.008-8t8-19.008z m0 159.008v-52.992q0-10.016-8-18.016t-19.008-8H380q-11.008 0-19.008 8t-8 18.016V675.008q0 11.008 8 19.008t19.008 8H856q11.008 0 19.008-8t8-19.008z"  horiz-adv-x="1024" />

    
    <glyph glyph-name="icon-aligncenter" unicode="&#59088;" d="M883.008 199.008v-52.992q0-11.008-8-19.008t-19.008-8H168q-11.008 0-19.008 8t-8 19.008v52.992q0 10.016 8 18.016t19.008 8h688q11.008 0 19.008-8t8-18.016z m-159.008 158.976v-52.992q0-11.008-8-19.008t-19.008-8H326.976q-11.008 0-19.008 8t-8 19.008v52.992q0 10.016 8 18.016t19.008 8h370.016q11.008 0 19.008-8t8-18.016z m106.016 158.016v-52.992q0-10.016-8-18.016t-19.008-8H220.992q-11.008 0-19.008 8t-8 18.016v52.992q0 11.008 8 19.008t19.008 8h582.016q11.008 0 19.008-8t8-19.008z m-159.008 159.008v-52.992q0-10.016-8-18.016t-19.008-8h-264q-11.008 0-19.008 8t-8 18.016V675.008q0 11.008 8 19.008t19.008 8h264q11.008 0 19.008-8t8-19.008z"  horiz-adv-x="1024" />

    
    <glyph glyph-name="icon-alignjustify" unicode="&#59089;" d="M883.008 199.008v-52.992q0-11.008-8-19.008t-19.008-8H168q-11.008 0-19.008 8t-8 19.008v52.992q0 10.016 8 18.016t19.008 8h688q11.008 0 19.008-8t8-18.016z m0 158.976v-52.992q0-11.008-8-19.008t-19.008-8H168q-11.008 0-19.008 8t-8 19.008v52.992q0 10.016 8 18.016T168 384h688q11.008 0 19.008-8t8-18.016z m0 158.016v-52.992q0-10.016-8-18.016t-19.008-8H168q-11.008 0-19.008 8t-8 18.016v52.992q0 11.008 8 19.008t19.008 8h688q11.008 0 19.008-8t8-19.008z m0 159.008v-52.992q0-10.016-8-18.016t-19.008-8H168q-11.008 0-19.008 8t-8 18.016V675.008q0 11.008 8 19.008t19.008 8h688q11.008 0 19.008-8t8-19.008z"  horiz-adv-x="1024" />

    
    <glyph glyph-name="icon-alignleft" unicode="&#59090;" d="M883.008 199.008v-52.992q0-11.008-8-19.008t-19.008-8H168q-11.008 0-19.008 8t-8 19.008v52.992q0 10.016 8 18.016t19.008 8h688q11.008 0 19.008-8t8-18.016z m-159.008 158.976v-52.992q0-11.008-8-19.008t-19.008-8H168q-11.008 0-19.008 8t-8 19.008v52.992q0 10.016 8 18.016T168 384h528.992q11.008 0 19.008-8t8-18.016z m106.016 158.016v-52.992q0-10.016-8-18.016t-19.008-8H168q-11.008 0-19.008 8t-8 18.016v52.992q0 11.008 8 19.008t19.008 8h635.008q11.008 0 19.008-8t8-19.008z m-159.008 159.008v-52.992q0-10.016-8-18.016t-19.008-8H168q-11.008 0-19.008 8t-8 18.016V675.008q0 11.008 8 19.008t19.008 8h476q11.008 0 19.008-8t8-19.008z"  horiz-adv-x="1024" />

    
    <glyph glyph-name="icon-arrowbottom" unicode="&#59091;" d="M282.016 725.984l230.016-251.008 230.016 251.008q7.008 7.008 16 7.008t16-6.496 7.008-16-7.008-15.488l-244.992-268q-7.008-6.016-16.992-6.016t-16.992 6.016L250.08 695.008q-7.008 6.016-7.008 15.488t7.008 16 16 6.496 16-7.008z"  horiz-adv-x="1024" />

    


  </font>
</defs>
</svg>
