<?xml version="1.0" standalone="no"?>
<!DOCTYPE svg PUBLIC "-//W3C//DTD SVG 1.1//EN" "http://www.w3.org/Graphics/SVG/1.1/DTD/svg11.dtd" >
<svg xmlns="http://www.w3.org/2000/svg">
<metadata>
Created by FontForge 20120731 at Sun Jul  3 15:45:57 2016
 By admin
</metadata>
<defs>
<font id="xuicon" horiz-adv-x="1024" >
  <font-face 
    font-family="xuicon"
    font-weight="500"
    font-stretch="normal"
    units-per-em="1024"
    panose-1="2 0 6 3 0 0 0 0 0 0"
    ascent="896"
    descent="-128"
    x-height="792"
    bbox="-151 -279 1274 1047"
    underline-thickness="50"
    underline-position="-100"
    unicode-range="U+0078-E669"
  />
<missing-glyph horiz-adv-x="374" 
d="M34 0v682h272v-682h-272zM68 34h204v614h-204v-614z" />
    <glyph glyph-name=".notdef" horiz-adv-x="374" 
d="M34 0v682h272v-682h-272zM68 34h204v614h-204v-614z" />
    <glyph glyph-name=".null" horiz-adv-x="0" 
 />
    <glyph glyph-name="nonmarkingreturn" horiz-adv-x="341" 
 />
    <glyph glyph-name="x" unicode="x" horiz-adv-x="1001" 
d="M281 543q-27 -1 -53 -1h-83q-18 0 -36.5 -6t-32.5 -18.5t-23 -32t-9 -45.5v-76h912v41q0 16 -0.5 30t-0.5 18q0 13 -5 29t-17 29.5t-31.5 22.5t-49.5 9h-133v-97h-438v97zM955 310v-52q0 -23 0.5 -52t0.5 -58t-10.5 -47.5t-26 -30t-33 -16t-31.5 -4.5q-14 -1 -29.5 -0.5
t-29.5 0.5h-32l-45 128h-439l-44 -128h-29h-34q-20 0 -45 1q-25 0 -41 9.5t-25.5 23t-13.5 29.5t-4 30v167h911zM163 247q-12 0 -21 -8.5t-9 -21.5t9 -21.5t21 -8.5q13 0 22 8.5t9 21.5t-9 21.5t-22 8.5zM316 123q-8 -26 -14 -48q-5 -19 -10.5 -37t-7.5 -25t-3 -15t1 -14.5
t9.5 -10.5t21.5 -4h37h67h81h80h64h36q23 0 34 12t2 38q-5 13 -9.5 30.5t-9.5 34.5q-5 19 -11 39h-368zM336 498v228q0 11 2.5 23t10 21.5t20.5 15.5t34 6h188q31 0 51.5 -14.5t20.5 -52.5v-227h-327z" />
    <glyph glyph-name="uniE600" unicode="&#xe600;" 
d="M736 896h-448q-40 0 -68 -28t-28 -68v-832q0 -40 28 -68t68 -28h448q40 0 68 28t28 68v832q0 40 -28 68t-68 28zM384 848h256v-32h-256v32zM512 -64q-27 0 -45.5 18.5t-18.5 45.5t18.5 45.5t45.5 18.5t45.5 -18.5t18.5 -45.5t-18.5 -45.5t-45.5 -18.5zM768 128h-512v640
h512v-640z" />
    <glyph glyph-name="uniE601" unicode="&#xe601;" 
d="M864 -38h-704q-29 0 -49.5 20.5t-20.5 49.5v704q0 29 20.5 49.5t49.5 20.5h704q29 0 49.5 -20.5t20.5 -49.5v-704q0 -29 -20.5 -49.5t-49.5 -20.5zM864 718q0 8 -5 13t-13 5h-668q-8 0 -13 -5t-5 -13v-668q0 -8 5 -13t13 -5h668q8 0 13 5t5 13v668z" />
    <glyph glyph-name="uniE602" unicode="&#xe602;" 
d="M512 768q-122 0 -225 -60t-163 -163t-60 -225t60 -225t163 -163t225 -60t225 60t163 163t60 225t-60 225t-163 163t-225 60zM512 -40q-149 0 -254.5 105.5t-105.5 254.5t105.5 254.5t254.5 105.5t254.5 -105.5t105.5 -254.5t-105.5 -254.5t-254.5 -105.5zM935 609
q25 44 25 95q0 80 -56 136t-136 56q-46 0 -85.5 -20t-66.5 -55q98 -20 180.5 -75.5t138.5 -136.5zM408 821q-27 35 -66.5 55t-85.5 20q-80 0 -136 -56t-56 -136q0 -51 25 -95q56 81 138.5 136.5t180.5 75.5zM512 320v256h-64v-320h256v64h-192z" />
    <glyph glyph-name="uniE603" unicode="&#xe603;" 
d="M860 384q0 94 -46.5 174.5t-127 127t-174.5 46.5t-174.5 -46.5t-127 -127t-46.5 -174.5t46.5 -174.5t127 -127t174.5 -46.5t174.5 46.5t127 127t46.5 174.5zM230 384q0 117 82.5 199.5t199.5 82.5t199.5 -82.5t82.5 -199.5t-82.5 -199.5t-199.5 -82.5t-199.5 82.5
t-82.5 199.5zM380 491l-62 -62l194 -193l194 193l-62 62l-132 -132z" />
    <glyph glyph-name="uniE604" unicode="&#xe604;" 
d="M512 43q-93 0 -171.5 45.5t-124 124t-45.5 171.5t45.5 171.5t124 124t171.5 45.5t171.5 -45.5t124 -124t45.5 -171.5t-45.5 -171.5t-124 -124t-171.5 -45.5zM512 811q-116 0 -214 -57.5t-155.5 -155.5t-57.5 -214t57.5 -214t155.5 -155.5t214 -57.5t214 57.5t155.5 155.5
t57.5 214t-57.5 214t-155.5 155.5t-214 57.5z" />
    <glyph glyph-name="uniE605" unicode="&#xe605;" 
d="M512 43q-93 0 -171.5 45.5t-124 124t-45.5 171.5t45.5 171.5t124 124t171.5 45.5t171.5 -45.5t124 -124t45.5 -171.5t-45.5 -171.5t-124 -124t-171.5 -45.5zM512 811q-116 0 -214 -57.5t-155.5 -155.5t-57.5 -214t57.5 -214t155.5 -155.5t214 -57.5t214 57.5t155.5 155.5
t57.5 214t-57.5 214t-155.5 155.5t-214 57.5zM512 597q-88 0 -150.5 -62.5t-62.5 -150.5t62.5 -150.5t150.5 -62.5t150.5 62.5t62.5 150.5t-62.5 150.5t-150.5 62.5z" />
    <glyph glyph-name="uniE606" unicode="&#xe606;" 
d="M768 427h-512q-35 0 -60 -25t-25 -60.5t25 -60.5t60 -25h512q35 0 60 25t25 60.5t-25 60.5t-60 25z" />
    <glyph glyph-name="uniE607" unicode="&#xe607;" 
d="M512 36q94 0 174.5 46.5t127 127t46.5 174.5t-46.5 174.5t-127 127t-174.5 46.5t-174.5 -46.5t-127 -127t-46.5 -174.5t46.5 -174.5t127 -127t174.5 -46.5zM512 666q117 0 199.5 -82.5t82.5 -199.5t-82.5 -199.5t-199.5 -82.5t-199.5 82.5t-82.5 199.5t82.5 199.5
t199.5 82.5zM619 516l-62 62l-193 -194l193 -194l62 62l-132 132z" />
    <glyph glyph-name="uniE608" unicode="&#xe608;" 
d="M833 803q40 0 69 -28.5t29 -69.5v-642q0 -40 -29 -69t-69 -29h-642q-41 0 -69.5 29t-28.5 69v642q0 41 28.5 69.5t69.5 28.5h642zM177 721v-669h666v669h-666zM233 320zM256 351l230 -166l-45 -62l-230 166zM425 135zM764 665l62 -45l-370 -508l-62 45z" />
    <glyph glyph-name="uniE609" unicode="&#xe609;" 
d="M768 469h-171v171q0 35 -25 60t-60 25t-60 -25t-25 -60l3 -171h-174q-35 0 -60 -25t-25 -60t25 -60t60 -25l174 3l-3 -174q0 -35 25 -60t60 -25t60 25t25 60v174l171 -3q35 0 60 25t25 60t-25 60t-60 25z" />
    <glyph glyph-name="uniE60A" unicode="&#xe60a;" 
d="M629 128q0 -24 -4 -32.5t-19 1.5l-90 62q-21 13 -79 50l-97 62q-16 11 -16.5 25.5t16.5 25.5l96 62q10 6 38 24.5t39 25.5l93 62q15 9 19 0.5t4 -32.5v-336zM513.5 758q93.5 0 178.5 -36.5t146.5 -98t98 -146.5t36.5 -178.5t-36.5 -178.5t-98 -146.5t-146.5 -98
t-178.5 -36.5t-178.5 36.5t-146.5 98t-98 146.5t-36.5 178.5t36.5 178.5t98 146.5t146.5 98t178.5 36.5zM514 809q-104 0 -198.5 -40.5t-163 -109t-109 -163t-40.5 -198t40.5 -198t109 -163t163 -109t198 -40.5t198 40.5t163 109t109 163t40.5 198t-40.5 198t-109 163
t-163 109t-197.5 40.5z" />
    <glyph glyph-name="uniE60B" unicode="&#xe60b;" 
d="M384 684q0 53 37.5 90.5t90.5 37.5t90.5 -37.5t37.5 -90.5t-37.5 -90.5t-90.5 -37.5t-90.5 37.5t-37.5 90.5zM656 572q0 53 37.5 90.5t90.5 37.5t90.5 -37.5t37.5 -90.5t-37.5 -90.5t-90.5 -37.5t-90.5 37.5t-37.5 90.5zM832 300q0 27 18.5 45.5t45.5 18.5t45.5 -18.5
t18.5 -45.5t-18.5 -45.5t-45.5 -18.5t-45.5 18.5t-18.5 45.5zM720 28.5q0 26.5 18.5 45t45 18.5t45.5 -18.5t19 -45t-19 -45.5t-45.5 -19t-45 19t-18.5 45.5zM448 -84q0 27 18.5 45.5t45.5 18.5t45.5 -18.5t18.5 -45.5t-18.5 -45.5t-45.5 -18.5t-45.5 18.5t-18.5 45.5z
M176 28q0 27 19 45.5t45.5 18.5t45 -18.5t18.5 -45.5q0 -26 -18.5 -45t-45 -19t-45.5 19t-19 45zM144 572q0 39 28.5 67.5t68 28.5t67.5 -28.5t28 -67.5q0 -40 -28 -68t-67.5 -28t-68 28t-28.5 68zM56 300q0 30 21 51t51 21t51 -21t21 -51t-21 -51t-51 -21t-51 21t-21 51z
" />
    <glyph glyph-name="uniE60C" unicode="&#xe60c;" 
d="M420.5 139q5.5 0 9.5 3.5t4 9.5v270q0 6 -4 9.5t-9.5 3.5t-9 -3.5t-3.5 -9.5v-270q0 -6 3.5 -9.5t9 -3.5zM501.5 139q5.5 0 9.5 3.5t4 9.5v270q0 6 -4 9.5t-9.5 3.5t-9 -3.5t-3.5 -9.5v-270q0 -6 3.5 -9.5t9 -3.5zM582.5 139q5.5 0 9 3.5t3.5 9.5v270q0 6 -3.5 9.5
t-9 3.5t-9.5 -3.5t-4 -9.5v-270q0 -6 4 -9.5t9.5 -3.5zM695 521h-94v28q0 16 -11.5 27t-26.5 11h-123q-15 0 -26.5 -11t-11.5 -27v-28h-94q-10 0 -18 -7.5t-8 -18.5t8 -18.5t18 -7.5h17v-379q0 -9 6 -15t15 -6h311q9 0 15 6t6 15v379h17q10 0 18 7.5t8 18.5t-8 18.5t-18 7.5
zM437 549q0 4 3 4h123q3 0 3 -4v-28h-129v28zM635 112h-267v357h267v-357z" />
    <glyph glyph-name="uniE60D" unicode="&#xe60d;" 
d="M959 832h-895q-30 0 -47 -17t-17 -47v-768q0 -30 17 -46.5t47 -16.5h895q31 0 48 16.5t17 46.5v768q0 30 -17 47t-48 17zM959 0h-895v640h895v-640z" />
    <glyph glyph-name="uniE60E" unicode="&#xe60e;" 
d="M704 576h-640q-31 0 -47.5 -19t-16.5 -45v-512q0 -27 14.5 -45t49.5 -18h640q31 0 47 19t17 44v512q0 28 -20 46t-44 18zM704 1h-640v383h640v-383zM384 640v128h575v-512h-127v-64h127q22 0 43.5 21.5t21.5 42.5v512q0 23 -18.5 43.5t-46.5 20.5h-575q-31 0 -47.5 -20
t-16.5 -44v-128h64z" />
    <glyph glyph-name="uniE60F" unicode="&#xe60f;" horiz-adv-x="1025" 
d="M512 812q-139 0 -257 -68.5t-186.5 -186.5t-68.5 -257t68.5 -257t186.5 -186.5t257 -68.5t257 68.5t186.5 186.5t68.5 257t-68.5 257t-186.5 186.5t-257 68.5zM512 -164q-192 0 -328 136t-136 328t136 328t328 136t328 -136t136 -328t-136 -328t-328 -136zM591 337
l-222 146q-26 16 -45 5t-19 -41v-294q0 -30 19 -41t45 5l222 146q26 15 26 37t-26 37zM686.5 508q-13.5 0 -22.5 -9.5t-9 -22.5v-352q0 -13 9 -22.5t22.5 -9.5t23 9.5t9.5 22.5v352q0 13 -9.5 22.5t-23 9.5z" />
    <glyph glyph-name="uniE610" unicode="&#xe610;" 
d="M832 286h-43q-10 -38 -29 -71l39 -39q19 -19 19 -45.5t-19 -45.5l-22 -22q-19 -19 -45.5 -19t-45.5 19l-40 39q-33 -19 -70 -29v-41q0 -26 -18.5 -45t-45.5 -19h-32q-27 0 -45.5 19t-18.5 45v41q-37 10 -70 29l-40 -39q-19 -19 -45.5 -19t-45.5 19l-22 22
q-19 19 -19 45.5t19 45.5l39 39q-19 33 -30 71h-42q-26 0 -45 18.5t-19 45.5v32q0 27 19 45.5t45 18.5h42q10 38 28 70l-37 38q-19 19 -19 45.5t19 45.5l22 22q19 19 45.5 19t45.5 -19l37 -37q34 20 73 31v43q0 26 18.5 45t45.5 19h32q27 0 45.5 -19t18.5 -45v-43
q39 -11 73 -31l37 37q19 19 45.5 19t45.5 -19l22 -22q19 -19 19 -45.5t-19 -45.5l-37 -38q18 -32 28 -70h42q26 0 45 -18.5t19 -45.5v-32q0 -27 -19 -45.5t-45 -18.5zM496 541q-73 0 -124.5 -51.5t-51.5 -124.5t51.5 -124.5t124.5 -51.5t124.5 51.5t51.5 124.5t-51.5 124.5
t-124.5 51.5zM496 287q-33 0 -56.5 23.5t-23.5 56.5t23.5 56.5t56.5 23.5t56.5 -23.5t23.5 -56.5t-23.5 -56.5t-56.5 -23.5z" />
    <glyph glyph-name="uniE611" unicode="&#xe611;" 
d="M846 780h-668q-26 0 -44 -18.5t-18 -43.5v-668q0 -25 18 -43.5t44 -18.5h668q26 0 44 18.5t18 43.5v668q0 25 -18 43.5t-44 18.5zM804 709q11 0 18.5 -8t7.5 -19t-7.5 -18.5t-18.5 -7.5t-19 7.5t-8 18.5t8 19t19 8zM709 709q11 0 18.5 -8t7.5 -19t-7.5 -18.5t-18.5 -7.5
t-19 7.5t-8 18.5t8 19t19 8zM560 59h-373v531h373v-531zM837 59h-250v531h250v-531zM809 435h-189v118h189v-118zM809 271h-189v118h189v-118zM809 105h-189v118h189v-118z" />
    <glyph glyph-name="uniE612" unicode="&#xe612;" 
d="M730 102q15 0 29.5 8t20.5 21l159 300q7 13 -1.5 21t-27.5 8h-161v72q0 19 -13 32t-32 13h-392l-29 76q-5 14 -19 14h-159q-9 0 -15 -6.5t-6 -14.5v-114v-386q0 -18 13 -31.5t32 -13.5zM708 460h-349q-25 0 -40 -29l-142 -289h-48q-4 0 -4 4v386v94h125l29 -77
q5 -13 19 -13h406q4 0 4 -4v-72z" />
    <glyph glyph-name="uniE613" unicode="&#xe613;" 
d="M874 659h-91v60h-542v-60h-91q-21 0 -36 -15t-15 -36v-266q0 -21 15 -36t36 -15h19v119h72v-361h542v361h72v-119h19q21 0 36 15t15 36v266q0 21 -15 36t-36 15zM229 552h-69v13h69v-13zM753 80h-482v330h482v-330zM753 594h-482v65v29h482v-94zM675 333h-326v23h326v-23
zM675 254h-326v22h326v-22zM675 180h-326v22h326v-22z" />
    <glyph glyph-name="uniE614" unicode="&#xe614;" 
d="M866 425q15 -15 15 -36.5t-15 -37.5l-317 -317q-16 -15 -37 -15t-37 15l-317 317q-15 16 -15 37.5t15 36.5t36.5 15t36.5 -15l281 -281l281 281q15 15 36.5 15t36.5 -15zM475 343q16 -15 37 -15t37 15l317 318q15 15 15 36.5t-15 36.5t-36.5 15t-36.5 -15l-281 -281
l-281 281q-15 15 -36.5 15t-36.5 -15t-15 -36.5t15 -36.5z" />
    <glyph glyph-name="uniE615" unicode="&#xe615;" 
d="M158 343q-15 15 -15 36.5t15 37.5l317 317q16 15 37 15t37 -15l317 -317q15 -16 15 -37.5t-15 -36.5t-36.5 -15t-36.5 15l-281 281l-281 -281q-15 -15 -36.5 -15t-36.5 15zM549 425q-16 15 -37 15t-37 -15l-317 -318q-15 -15 -15 -36.5t15 -36.5t36.5 -15t36.5 15
l281 281l281 -281q15 -15 36.5 -15t36.5 15t15 36.5t-15 36.5z" />
    <glyph glyph-name="uniE616" unicode="&#xe616;" 
d="M910 591l-498 -498q-8 -8 -15 0l-283 283q-8 7 0 15l69 69q8 8 16 0l205 -206l421 421q8 8 16 0l69 -69q8 -8 0 -15z" />
    <glyph glyph-name="uniE617" unicode="&#xe617;" 
d="M677 759h-401q-20 0 -34 -14.5t-14 -34.5v-698q0 -20 14 -34.5t34 -14.5h491q20 0 34.5 14t14.5 35v596zM689 686l60 -66h-60v66zM775 12q0 -8 -8 -8h-491q-7 0 -7 8v698q0 8 7 8h372v-119q0 -8 6 -14t14 -6h107v-567z" />
    <glyph glyph-name="uniE618" unicode="&#xe618;" 
d="M512 804q-114 0 -210.5 -56.5t-153 -153t-56.5 -210.5t56.5 -210.5t153 -153t210.5 -56.5t210.5 56.5t153 153t56.5 210.5t-56.5 210.5t-153 153t-210.5 56.5zM512 5q-103 0 -190 51t-138 138t-51 190t51 190t138 138t190 51t190 -51t138 -138t51 -190t-51 -190
t-138 -138t-190 -51zM633 155v-55q0 -5 -4 -5h-204q-5 0 -5 5v55q0 4 5 4h58v297h-59q-4 0 -4 4v57q0 4 4 4h139q4 0 4 -4v-358h62q4 0 4 -4zM447 624.5q0 26.5 19 45.5t45.5 19t45 -19t18.5 -45.5t-18.5 -45t-45 -18.5t-45.5 18.5t-19 45z" />
    <glyph glyph-name="uniE619" unicode="&#xe619;" 
d="M916 772h-583q-18 0 -31 -13t-13 -31t13 -30.5t31 -12.5h583q19 0 31.5 12.5t12.5 30.5t-12.5 31t-31.5 13zM916 547h-583q-18 0 -31 -13t-13 -31t13 -30.5t31 -12.5h583q19 0 31.5 12.5t12.5 30.5t-12.5 31t-31.5 13zM916 321h-583q-18 0 -31 -12.5t-13 -30.5t13 -31
t31 -13h583q19 0 31.5 13t12.5 31t-12.5 30.5t-31.5 12.5zM916 83h-583q-18 0 -31 -12.5t-13 -30.5t13 -31t31 -13h583q19 0 31.5 13t12.5 31t-12.5 30.5t-31.5 12.5zM106 728zM62 728q0 18 13 31t31 13t30.5 -13t12.5 -31t-12.5 -30.5t-30.5 -12.5t-31 12.5t-13 30.5z
M106 503zM62 503q0 18 13 31t31 13t30.5 -13t12.5 -31t-12.5 -30.5t-30.5 -12.5t-31 12.5t-13 30.5zM106 278zM62 278q0 18 13 30.5t31 12.5t30.5 -12.5t12.5 -30.5t-12.5 -31t-30.5 -13t-31 13t-13 31zM106 40zM62 40q0 18 13 30.5t31 12.5t30.5 -12.5t12.5 -30.5
t-12.5 -31t-30.5 -13t-31 13t-13 31z" />
    <glyph glyph-name="uniE61A" unicode="&#xe61a;" 
d="M779 250v0v0zM779 250zM751 264v0v0zM751 264zM652 208l223 -223h-176q-11 0 -18.5 -7.5t-7.5 -18t7.5 -17.5t18.5 -7h237h2q3 0 6 1q1 0 1.5 0.5t2.5 1.5h1l1 1q2 1 4 3t3 4l1 1v1l1 2l1 1v1q1 3 1 6v2v234q0 10 -7.5 17.5t-18 7.5t-17.5 -7.5t-7 -18.5v-172l-223 222
q-7 8 -17.5 8t-18 -7.5t-7.5 -18t7 -17.5zM652 208zM688 525l223 222v-176q-1 -10 6.5 -17.5t18 -7.5t18 7t7.5 18v237v2q0 3 -1 6q-1 1 -1 1.5t-1 2.5v1l-1 1q-1 2 -3 4t-4 3l-1 1h-1l-2 1q-1 1 -2 1q-3 1 -6 1h-2h-234q-10 0 -17.5 -7t-7.5 -17.5t7.5 -18t17.5 -7.5h173
l-223 -223q-7 -7 -7 -17.5t7.5 -18t18 -7.5t17.5 8zM688 525zM372 208l-223 -223h176q11 0 18.5 -7.5t7.5 -18t-7.5 -17.5t-18.5 -7h-237h-2q-3 0 -6 1q-1 0 -1.5 0.5t-2.5 1.5h-1l-1 1q-2 1 -4 3t-3 4l-1 1v1l-1 2q0 1 -1 2q-1 3 -1 6v2v234q0 10 7.5 17.5t18 7.5
t17.5 -7.5t7 -18.5v-172l223 222q7 8 17.5 8t18 -7.5t7.5 -18t-7 -17.5zM372 208zM336 525l-223 222v-176q1 -10 -6.5 -17.5t-18 -7.5t-18 7t-7.5 18v237v2q0 3 1 6q1 1 1 1.5t1 2.5v1l1 1q1 2 3 4t4 3l1 1h1l2 1q1 1 2 1q3 1 6 1h2h234q10 0 17.5 -7t7.5 -17.5t-7.5 -18
t-17.5 -7.5h-173l223 -223q7 -7 7 -17.5t-7.5 -18t-18 -7.5t-17.5 8zM336 525z" />
    <glyph glyph-name="uniE61B" unicode="&#xe61b;" 
d="M450 353q0 15 -11.5 23t-28.5 8h-312q-14 0 -23 -9.5t-9 -22.5t9 -22.5t23 -9.5h242l-267 -268q-9 -9 -9 -21.5t9 -21.5t21.5 -9t21.5 9l270 269v-246q0 -13 9 -22.5t22.5 -9.5t23 9.5t9.5 22.5v320v1zM866 512h-243l267 268q9 9 9 21.5t-9 21.5t-21.5 9t-21.5 -9
l-269 -269v246q0 13 -9.5 22.5t-22.5 9.5q-14 0 -23 -9.5t-9 -22.5v-320v-1l1 -1q0 -14 9 -22q12 -13 29 -8h312q14 0 23 9.5t9 22.5q1 13 -8.5 22.5t-22.5 9.5z" />
    <glyph glyph-name="uniE61C" unicode="&#xe61c;" 
d="M1002 554q-28 97 -100 173q-126 130 -317 155q-108 14 -216 -14q-129 -33 -221 -118q-125 -115 -138 -274q-9 -105 39 -203q47 -98 141 -167q8 -6 8 -15v-204v-10q8 6 9 6q156 95 206 125q6 3 11 2q97 -15 193 3q120 22 214 89q152 109 181 279q16 86 -10 173zM894 253
q-66 -96 -184 -147q-62 -27 -133.5 -35.5t-145.5 2.5q-9 2 -11 2q-11 5 -27 -5q-23 -14 -127 -77q-1 0 -8 -4v9q1 104 2 130q0 7 -6 11q-107 67 -154 172q-40 89 -24 186q20 126 126 217q87 74 207 99q88 18 176 5q174 -25 282 -147q66 -74 82 -167q24 -135 -55 -251z
M730 540h-237h-196q-6 0 -11 -1q-9 -2 -16 -9t-8 -16q-3 -16 6.5 -26.5t25.5 -10.5h219h56h164q21 0 29 18q8 17 -3 32q-10 13 -29 13zM667 351h-308q-4 0 -5 -1q-16 -1 -24.5 -13.5t-3.5 -28.5q7 -21 32 -21h155h97h61q16 1 25.5 14t4.5 28q-8 22 -34 22z" />
    <glyph glyph-name="uniE61D" unicode="&#xe61d;" 
d="M936 -71h1l-248 249q75 92 79 207q3 69 -21.5 136t-71.5 116q-40 44 -94 72t-113 36q-22 3 -46 3q-119 0 -210 -73q-52 -39 -86 -95.5t-44 -120.5q-11 -59 0 -120t41 -113q42 -73 112 -118q65 -43 142 -52q22 -4 45 -4q110 0 199 63l247 -249l5 -4q13 -10 29 -10
q19 0 32.5 13.5t13.5 32.5q0 17 -12 31zM472 109q-65 -11 -129 7q-61 17 -110.5 59t-75.5 100q-31 64 -27.5 139t40.5 136q32 56 86.5 93.5t118.5 47.5l6 1q5 1 9 1q16 2 32 2q66 0 124 -27q51 -24 90.5 -66.5t59.5 -95.5q23 -57 20 -120t-31 -118q-30 -62 -87.5 -105
t-125.5 -54zM448 567h-52v-141h-140v-52h140v-141h52v141h141v52h-140z" />
    <glyph glyph-name="uniE61E" unicode="&#xe61e;" 
d="M948 -82h1l-255 257q77 94 81 213q3 70 -22 139t-74 120q-41 45 -96.5 73.5t-115.5 36.5q-23 3 -47 3q-123 0 -217 -74q-53 -40 -88 -98.5t-46 -123.5q-10 -61 1 -124t42 -116q43 -75 116 -122q66 -43 145 -53q23 -4 47 -4q113 0 204 65l254 -256l5 -4q13 -11 30 -11
q20 0 33.5 14t13.5 34q0 17 -12 31zM471 104q-67 -12 -133 7q-63 17 -113.5 60.5t-77.5 102.5q-32 66 -28.5 143t41.5 140q33 58 89 96.5t122 48.5l6 1q6 1 10 2q16 1 32 1q68 0 127 -28q54 -24 94.5 -67.5t61.5 -98.5q22 -59 19 -124t-31 -121q-31 -64 -90 -108t-129 -55z
M249 430h342v-54h-342v54z" />
    <glyph glyph-name="uniE61F" unicode="&#xe61f;" 
d="M16 896zM32 896zM48 896zM64 896zM80 896zM96 896zM112 896zM128 896zM144 896zM160 896zM176 896zM192 896zM208 896zM224 896zM240 896zM256 896zM272 896zM288 896zM304 896zM320 896zM336 896zM352 896zM368 896zM384 896zM400 896zM416 896zM432 896zM448 896z
M464 896zM480 896zM496 896zM512 896zM528 896zM544 896zM560 896zM576 896zM592 896zM608 896zM624 896zM640 896zM656 896zM672 896zM688 896zM704 896zM720 896zM736 896zM752 896zM768 896zM784 896zM800 896zM816 896zM832 896zM848 896zM864 896zM880 896zM896 896z
M912 896zM928 896zM944 896zM960 896zM976 896zM992 896zM1008 896zM0 880zM0 864zM0 848zM0 832zM0 816zM0 800zM0 784zM0 768zM0 752zM0 736zM0 720zM0 704zM0 688zM0 672zM0 656zM0 640zM0 624zM0 608zM0 592zM0 576zM0 560zM0 544zM0 528zM0 512zM0 496zM0 480zM0 464z
M0 448zM0 432zM0 416zM0 400zM0 384zM0 368zM0 352zM0 336zM0 320zM0 304zM0 288zM0 272zM0 256zM0 240zM0 224zM0 208zM0 192zM0 176zM0 160zM0 144zM0 128zM0 112zM0 96zM0 80zM0 64zM0 48zM0 32zM0 16zM0 0zM0 -16zM0 -32zM0 -48zM0 -64zM0 -80zM0 -96zM0 -112zM502 463
l85 -86l161 161l83 -83v247l-249 2l81 -81zM829 354l-61 62l1 -288h-512l1 510l286 2l-64 64h-224q-26 0 -45 -19t-19 -45v-512q0 -26 19 -45t45 -19h512q26 0 45 19t19 45z" />
    <glyph glyph-name="uniE620" unicode="&#xe620;" 
d="M320 338h384v-76h-384v76zM474 492h76v-384h-76v384zM512 684q-159 0 -271.5 -112.5t-112.5 -271.5t112.5 -271.5t271.5 -112.5t271.5 112.5t112.5 271.5t-112.5 271.5t-271.5 112.5zM512 -7q-127 0 -217 90t-90 217t90 217t217 90t217 -90t90 -217t-90 -217t-217 -90z
" />
    <glyph glyph-name="uniE621" unicode="&#xe621;" horiz-adv-x="1025" 
d="M833 313v-3q-29 -118 -119 -191.5t-211 -73.5q-64 0 -124.5 24.5t-107.5 69.5l-57 -57q-8 -9 -19.5 -9t-20 8.5t-8.5 19.5v198q0 12 8.5 20t19.5 8h198q11 0 19.5 -8t8.5 -19.5t-8 -20.5l-61 -60q32 -29 71.5 -45t82.5 -16q59 0 110 28.5t82 79.5q5 7 24 51q3 10 13 10
h85q6 0 10 -4t4 -10zM844 667v-198q0 -12 -8.5 -20.5t-19.5 -8.5h-198q-11 0 -19.5 8.5t-8.5 20t8 20.5l61 61q-65 60 -154 60q-59 0 -110.5 -28.5t-81.5 -79.5q-5 -7 -24 -51q-3 -10 -13 -10h-88q-6 0 -10 4t-4 10v3q29 118 119.5 191.5t211.5 73.5q64 0 125 -24.5
t109 -69.5l57 57q8 9 19.5 9t20 -8.5t8.5 -19.5z" />
    <glyph glyph-name="uniE622" unicode="&#xe622;" 
d="M874 625h-348q-36 0 -61 25l-93 92q-25 25 -61 25h-161q-36 0 -61.5 -25.5t-25.5 -61.5v-593q0 -36 25.5 -61.5t61.5 -25.5h724q36 0 61.5 25.5t25.5 61.5v451q0 36 -25.5 61.5t-61.5 25.5zM150 702h161q9 0 15 -6l93 -92q21 -22 49 -33.5t58 -11.5h348q9 0 15.5 -6
t6.5 -15v-87h-768v229q0 9 6.5 15.5t15.5 6.5zM874 65h-724q-9 0 -15.5 6.5t-6.5 15.5v298h768v-298q0 -9 -6.5 -15.5t-15.5 -6.5z" />
    <glyph glyph-name="uniE623" unicode="&#xe623;" 
d="M299 490l213 -213l214 213h-427z" />
    <glyph glyph-name="uniE624" unicode="&#xe624;" 
d="M1023 340q0 -75 -53.5 -128.5t-128.5 -53.5h-185q-9 0 -15 6t-6 14.5t6 14.5t15 6h185q58 0 99.5 41.5t41.5 99.5t-41 99t-99 42l-1 -1q-10 0 -16 7t-5 16q2 16 2 29q0 94 -67 160.5t-161 66.5q-72 0 -131 -42q-57 -41 -82 -107q-4 -10 -15 -12.5t-19 5.5
q-29 30 -71.5 30t-72.5 -30t-30 -72v-2v-3q1 -16 -15 -20q-50 -14 -82 -55q-32 -42 -32 -96q0 -64 45.5 -110t110.5 -46h170q8 0 14 -6t6 -14.5t-6 -14.5t-14 -6h-170q-82 0 -139.5 58t-57.5 139q0 68 41 121q35 45 88 65q4 56 45.5 94.5t97.5 38.5q43 0 79 -24
q30 61 85 101q70 49 155 49q111 0 190 -78.5t79 -189.5q0 -6 -1 -12q68 -8 114.5 -59.5t46.5 -120.5zM629 307q-6 -6 -14.5 -6t-14.5 6l-67 67v-359q0 -8 -6 -14t-14.5 -6t-14.5 6t-6 14v359l-67 -67q-6 -6 -14.5 -6t-14.5 6t-6 14.5t6 14.5l102 102q6 6 14.5 6t14.5 -6
l102 -102q6 -6 6 -14.5t-6 -14.5z" />
    <glyph glyph-name="uniE625" unicode="&#xe625;" 
d="M778 398h-172q-8 0 -14 5.5t-6 14t6 14.5t14 6h152v143q0 8 5.5 14t14 6t14.5 -6t6 -14v-163q0 -9 -6 -14.5t-14 -5.5zM512 -9h-9q-128 4 -215.5 97t-83.5 220.5t97 215t220.5 84t214.5 -96.5q32 -35 53 -76q4 -8 1 -16t-10.5 -11.5t-15 -0.5t-11.5 10q-18 36 -46 66
q-76 81 -187 84.5t-192 -72.5t-84 -187.5t73 -192t187 -84t192 72.5q30 28 49 64q5 7 12.5 9t15 -2t9.5 -12t-2 -15q-23 -41 -57 -73q-89 -84 -211 -84z" />
    <glyph glyph-name="uniE626" unicode="&#xe626;" 
d="M360 -7h60v297h-48q-2 -17 -10 -28t-20 -19q-12 -7 -27 -9q-14 -3 -30 -3v-45h75v-193zM633.5 54.5q-6.5 -7.5 -16.5 -12.5q-9 -5 -21 -5q-21 0 -34 12t-15 33h-60q0 -24 9 -42q9 -17 25 -29q15 -12 35 -18q19 -5 41 -5q22 -1 43 7q19 8 34.5 22.5t24.5 34t9 42.5
q0 21 -7 39q-6 19 -18 33q-11 13 -28 21t-39 8q-18 0 -32 -5t-26 -18l-1 1l12 68h122v49h-166l-29 -164h54q10 12 20 18t26 6q12 0 21.5 -4.5t16.5 -11.5q6 -8 9.5 -18t3.5 -22q0 -11 -3 -21q-4 -11 -10.5 -18.5zM229 571h71q7 0 13 5.5t6 13.5v155q0 8 -6 13.5t-13 5.5h-71
q-8 0 -13.5 -5.5t-5.5 -13.5v-155q0 -8 5.5 -13.5t13.5 -5.5zM725 571h70q8 0 13.5 5.5t5.5 13.5v155q0 8 -5.5 13.5t-13.5 5.5h-70q-8 0 -14 -5.5t-6 -13.5v-155q0 -8 6 -13.5t14 -5.5zM878 690h-25v-100q0 -24 -17 -41t-41 -17h-70q-24 0 -41.5 17t-17.5 41v100h-308v-100
q0 -24 -17 -41t-41 -17h-71q-24 0 -41 17t-17 41v100h-25q-46 0 -79 -32.5t-33 -79.5v-207v-423q0 -46 33 -79t79 -33h732q46 0 79 33t33 79v423v207q0 47 -33 79.5t-79 32.5zM919 -52q0 -17 -12 -29t-29 -12h-732q-17 0 -29 12t-12 29v423h814v-423z" />
    <glyph glyph-name="uniE627" unicode="&#xe627;" 
d="M480 684q146 0 249 -103t103 -249t-103 -249t-249 -103t-249 103t-103 249t103 249t249 103zM480 748q-172 0 -294 -122t-122 -294t122 -294t294 -122t294 122t122 294t-122 294t-294 122zM256 364h448v-64h-448v64z" />
    <glyph glyph-name="uniE628" unicode="&#xe628;" 
d="M387 343l84 -84l-289 -289l-166 -82l82 166zM1002 694q6 -9 6 -19q0 -16 -12.5 -29.5t-28.5 -13.5t-27.5 10.5t-15.5 10.5q-21 -23 -57 -65q-35 -42 -68 -94q-33 -51 -58 -107q-24 -56 -24 -108q0 -20 7 -34t14 -25l12 -23l8 -24q0 -17 -11.5 -30t-29.5 -13q-6 0 -14.5 4
t-12.5 10l-414 414q-12 12 -12 29q0 14 10 26.5t31 12.5q14 0 26 -8q13 -7 26 -16q12 -9 28 -16t35 -7q32 0 69 15t76 40t79 56q40 30 77 63l58 51l-7 6q-12 11 -12 29q0 16 10 28.5t31 12.5q14 0 27 -10zM840 743l-8 -4q-31 -31 -76.5 -70t-98.5 -74q-51 -35 -102 -63
q-51 -27 -94 -35q10 -4 22 -6t25 -2q39 0 84 23q45 22 93 56q48 33 94 72l90 74z" />
    <glyph glyph-name="uniE629" unicode="&#xe629;" 
d="M571 691h86v-155h-86v155zM912 650v-678h-800v824h654zM301 492h407v244h-407v-244zM797 357h-570v-320h570v320z" />
    <glyph glyph-name="uniE62A" unicode="&#xe62a;" 
d="M177 719q21 21 51 21t51 -21l568 -568q21 -21 21 -51t-21 -51t-51 -21t-51 21l-568 568q-21 21 -21 51t21 51zM847 719q21 -21 21 -51t-21 -51l-568 -568q-21 -21 -51 -21t-51 21t-21 51t21 51l568 568q21 21 51 21t51 -21z" />
    <glyph glyph-name="uniE62B" unicode="&#xe62b;" 
d="M934 173v-60q0 -12 -9 -21t-21 -9h-784q-12 0 -21 9t-9 21v60q0 12 9 21t21 9h784q12 0 21 -9t9 -21zM934 354v-60q0 -13 -9 -22t-21 -9h-784q-12 0 -21 9t-9 22v60q0 12 9 21t21 9h784q12 0 21 -9t9 -21zM934 535v-61q0 -12 -9 -21t-21 -9h-784q-12 0 -21 9t-9 21v61
q0 12 9 21t21 9h784q12 0 21 -9t9 -21zM934 715v-60q0 -12 -9 -21t-21 -9h-784q-12 0 -21 9t-9 21v60q0 13 9 22t21 9h784q12 0 21 -9t9 -22z" />
    <glyph glyph-name="uniE62C" unicode="&#xe62c;" 
d="M512 226l-256 256l60 60l196 -196l196 196l60 -60z" />
    <glyph glyph-name="uniE62D" unicode="&#xe62d;" 
d="M95 564l330 -329v199q23 0 39 -0.5t46 -3t52 -7t52 -14t51.5 -23t44.5 -34.5t37 -47.5t23.5 -63.5t9.5 -81q0 -105 -64.5 -186t-162.5 -102q157 22 263 145.5t106 289.5q0 67 -15.5 124t-39.5 97t-59.5 72.5t-70 52.5t-77.5 35t-75 22t-69.5 11t-54.5 4.5t-36 0.5v170z
" />
    <glyph glyph-name="uniE62E" unicode="&#xe62e;" 
d="M704 412q-12 91 -63.5 160t-125.5 99.5t-149 12.5q-42 -10 -82 -36.5t-76.5 -70t-58 -112t-21.5 -151.5q1 -124 40.5 -199.5t107.5 -87.5q40 -7 73 4t50.5 28.5t37.5 35t35 20.5q25 5 58 -0.5t69 1.5q57 11 89 93.5t16 202.5zM218.5 435q-3.5 17 6 31t26.5 17.5t31 -6
t17.5 -26.5t-6 -31t-26.5 -17.5t-31 6t-17.5 26.5zM323.5 93q-34.5 -7 -64 12.5t-36 54t13 64t54 36t63.5 -13t36 -54t-12.5 -63.5t-54 -36zM340.5 503q-16.5 -3 -30.5 6.5t-17.5 26t6 30.5t26 17.5t31 -6t17.5 -26t-6.5 -31t-26 -17.5zM463.5 538.5q-16.5 -3.5 -31 6
t-17.5 26t6.5 31t26 17.5t30.5 -6.5t17.5 -26t-6 -30.5t-26 -17.5zM512 492.5q-3 16.5 6.5 30.5t26 17.5t30.5 -6t17.5 -26t-6 -31t-26 -17.5t-31 6.5t-17.5 26zM602.5 338.5q-16.5 -3.5 -31 6t-17.5 26t6 31t26 17.5t31 -6.5t17.5 -26t-6 -30.5t-26 -17.5zM896 642h-148
q-3 71 -15 98q-4 9 -12 19.5t-14 16.5l-7 7q111 3 144 -11q21 -9 31.5 -20.5t15.5 -31.5q2 -11 3.5 -30.5t1.5 -33.5v-14zM895 593h-147v21h148q0 -10 -1 -21zM890 353q-4 -48 -19 -173t-22 -171q-2 -12 -7 -17q-8 -7 -20 -7t-21 7q-5 5 -7 17q-7 46 -22 171t-19 173
q-3 47 -5 212h147q-1 -165 -5 -212z" />
    <glyph glyph-name="uniE62F" unicode="&#xe62f;" 
d="M280 454q29 0 49 -20.5t20 -49.5t-20 -49.5t-49 -20.5t-49.5 20.5t-20.5 49.5t20.5 49.5t49.5 20.5zM512 454q29 0 49.5 -20.5t20.5 -49.5t-20.5 -49.5t-49.5 -20.5t-49.5 20.5t-20.5 49.5t20.5 49.5t49.5 20.5zM744 454q29 0 49.5 -20.5t20.5 -49.5t-20.5 -49.5
t-49.5 -20.5t-49 20.5t-20 49.5t20 49.5t49 20.5z" />
    <glyph glyph-name="uniE630" unicode="&#xe630;" 
d="M171 555h170v170h512v-512h-170v-170h-512v512zM683 555v-256h85v341h-341v-85h256zM256 384v-256h341v256h-341z" />
    <glyph glyph-name="uniE631" unicode="&#xe631;" 
d="M688 630l-410 -410h410v410z" />
    <glyph glyph-name="uniE632" unicode="&#xe632;" 
d="M284 662q22 0 36.5 -14.5t14.5 -35.5v-39q0 -22 -14.5 -36.5t-36.5 -14.5h-40q-21 0 -36 14.5t-15 36.5v39q0 21 15 35.5t36 14.5h40zM808 662q20 0 35 -14.5t15 -35.5v-39q0 -22 -15 -36.5t-35 -14.5h-326q-21 0 -36 14.5t-15 36.5v39q0 21 15 35.5t36 14.5h326z
M284 425q22 0 36.5 -15t14.5 -36v-39q0 -21 -14.5 -36t-36.5 -15h-40q-21 0 -36 15t-15 36v39q0 21 15 36t36 15h40zM808 425q20 0 35 -15t15 -36v-39q0 -21 -14.5 -36t-35.5 -15h-326q-21 0 -36 15t-15 36v39q0 21 15 36t36 15h326zM284 187q22 0 36.5 -15t14.5 -36v-39
q0 -21 -14.5 -36t-36.5 -15h-40q-21 0 -36 15t-15 36v39q0 21 15 36t36 15h40zM808 187q20 0 35 -15t15 -36v-39q0 -21 -14.5 -36t-35.5 -15h-326q-21 0 -36 15t-15 36v39q0 21 15 36t36 15h326zM808 187z" />
    <glyph glyph-name="uniE633" unicode="&#xe633;" 
d="M807 683q20 0 34.5 -14t14.5 -35v-38q0 -21 -14 -35.5t-35 -14.5h-317q-20 0 -34.5 14.5t-14.5 35.5v38q0 21 14.5 35t34.5 14h317zM807 452q20 0 34.5 -14.5t14.5 -35.5v-37q0 -21 -14 -35t-35 -14h-317q-20 0 -34.5 14t-14.5 35v37q0 21 14 35.5t35 14.5h317zM807 220
q20 0 34.5 -14t14.5 -35v-37q0 -21 -14 -35.5t-35 -14.5h-317q-20 0 -34.5 14.5t-14.5 35.5v37q0 20 14 34.5t35 14.5h317zM171 632v30q21 10 39 23h31v-153h-33v120q-17 -12 -37 -20zM172 316v30q3 4 17 16q56 47 55 64q-2 19 -19 20q-17 -2 -18 -23h-33q1 43 51 44
q50 -2 51 -42q0 -26 -48 -66q-18 -15 -24 -22h73v-21h-105zM171 127h35q1 -21 19 -24q19 2 21 24q-1 27 -38 26v22q39 1 38 25q-1 21 -20 21q-16 -2 -18 -21h-35q3 43 53 45q50 -5 54 -40q-1 -32 -31 -40q31 -8 31 -42q-4 -37 -55 -41q-54 0 -54 45z" />
    <glyph glyph-name="uniE634" unicode="&#xe634;" 
d="M102 777h822v-88h-822v88zM455 611h469v-88h-469v88zM455 445h469v-88h-469v88zM455 279h469v-88h-469v88zM102 114h822v-89h-822v89zM102 233v312l208 -156z" />
    <glyph glyph-name="uniE635" unicode="&#xe635;" 
d="M102 777h822v-88h-822v88zM455 611h469v-88h-469v88zM455 445h469v-88h-469v88zM455 279h469v-88h-469v88zM102 114h822v-89h-822v89zM102 389l208 156v-312z" />
    <glyph glyph-name="uniE636" unicode="&#xe636;" 
d="M934 419h-298q-33 13 -76 26q-9 2 -25 7q-172 52 -172 131q0 49 35 79t94 30q79 0 131 -37t52 -91v-2h69v177h-71v-57q-42 36 -87.5 53.5t-97.5 17.5q-105 0 -168.5 -58.5t-63.5 -153.5q0 -72 42 -117l5 -5h-204v-71h332q7 -2 14 -5q25 -8 66 -21q153 -49 153 -125
q0 -58 -38 -91.5t-104 -33.5q-81 0 -139.5 45.5t-58.5 106.5v10h-69v-206h69v72q42 -44 93 -65t114 -21q112 0 179.5 61t67.5 161q0 68 -34 112h190v71z" />
    <glyph glyph-name="uniE637" unicode="&#xe637;" 
d="M323 746v-275h52v224h451v-224h51v275h-554zM140 540l137 -138l-137 -137v275zM323 16v317h52v-265h451v266l51 -1v-317h-554zM382 431h438v-58h-438v58z" />
    <glyph glyph-name="uniE638" unicode="&#xe638;" 
d="M784 542v-44h114v-58h-171v131l114 53v45h-114v57h171v-130zM702 498h-121l-168 -168l-168 168h-121l228 -229l-228 -228h121l168 168l168 -168h121l-228 228z" />
    <glyph glyph-name="uniE639" unicode="&#xe639;" 
d="M788 139v-45h115v-58h-173v132l115 54v45h-115v57h173v-131zM705 727h-122l-169 -169l-169 169h-122l230 -230l-230 -230h122l169 169l169 -169h122l-230 230z" />
    <glyph glyph-name="uniE63A" unicode="&#xe63a;" 
d="M714 691l193 111l91 -112l-144 -160zM568 752q26 -3 107.5 -89.5t150 -178.5t65.5 -110q-3 -17 -43 -52t-78 -62l-39 -27l-346 399q-2 0 32.5 31.5t80 61.5t70.5 27zM351 583l335 -390l-205 -267l-464 587q92 4 168 24q23 6 64.5 17.5t71.5 19.5z" />
    <glyph glyph-name="uniE63B" unicode="&#xe63b;" 
d="M704 791l-184 -185q-35 -34 -40.5 -83.5t18.5 -91.5l-33 -33q-42 24 -91.5 18.5t-83.5 -40.5l-185 -184q-42 -43 -41 -104.5t45.5 -106t106 -45.5t104.5 41l184 185q35 35 40.5 84t-18.5 91l33 33q42 -24 91.5 -18.5t83.5 40.5l185 184q42 43 41 104.5t-45.5 106
t-106 45.5t-104.5 -41zM408 191l-122 -122q-28 -28 -61 -35t-51.5 11.5t-11.5 51.5t35 61l122 122q34 34 72 36q-7 -24 11 -42t42 -11q-2 -38 -36 -72zM825 607l-122 -121q-32 -33 -69 -37q11 27 -9.5 47.5t-47.5 9.5q5 37 37 69l121 122q29 28 62 34.5t51.5 -11.5t11.5 -51
t-35 -62z" />
    <glyph glyph-name="uniE63C" unicode="&#xe63c;" 
d="M981 602l-369 -366q-6 -5 -30.5 -22t-45.5 -30l-22 -14q51 85 64 98l368 366q33 32 49 16q17 -17 -14 -48zM707 520q0 -19 -13.5 -32t-32.5 -13t-32 13t-13 32t13 32.5t32 13.5t32.5 -13.5t13.5 -32.5zM229 361q-19 0 -32.5 13t-13.5 32t13.5 32.5t32.5 13.5t32 -13.5
t13 -32.5t-13 -32t-32 -13zM297 520q0 19 13.5 32.5t32.5 13.5t32 -13.5t13 -32.5t-13 -32t-32 -13t-32.5 13t-13.5 32zM456 565.5q0 18.5 13.5 32t32.5 13.5t32 -13.5t13 -32t-13 -32t-32 -13.5t-32.5 13.5t-13.5 32zM465 702q-77 -9 -149 -42t-127 -84t-88.5 -120.5
t-33.5 -146.5q0 -36 14 -51.5t39.5 -14.5t62.5 5q42 5 77.5 -18t42.5 -79q5 -39 52.5 -63.5t121.5 -24.5q91 0 175 42t140 115.5t70 161.5q0 3 0.5 9t0.5 8l48 48q1 -28 -2 -52q-9 -73 -44.5 -140.5t-90.5 -120t-132 -84t-162 -31.5q-71 0 -135 26t-76 65q-2 6 -4.5 16
t-4 17t-4.5 17t-6 15.5t-8 13.5t-10 11l-12 8q-8 4 -16.5 2.5t-20.5 -1.5q-65 -15 -111 7t-48 76q-3 98 32.5 180t98 137.5t142.5 90.5t171 45q113 13 217 -22t165 -110l-34 -33q-53 70 -150 102t-201 20z" />
    <glyph glyph-name="uniE63D" unicode="&#xe63d;" 
d="M809.5 682q-59.5 60 -136.5 92t-161 32q-85 0 -161.5 -32t-135.5 -92q-81 -80 -109.5 -188.5t0 -217.5t109.5 -190q59 -60 136 -92t161 -32q85 0 161.5 32t135.5 92q60 60 92 136.5t32 160.5q0 85 -32 162t-91.5 137zM786 110.5q-55 -54.5 -125.5 -84t-148.5 -29.5
t-149 29t-125 85q-75 74 -101.5 174.5t0 200t101.5 173.5q55 55 125.5 84.5t148.5 29.5t149 -29.5t125 -84.5q55 -55 84.5 -126t29.5 -148.5t-29.5 -148.5t-84.5 -125.5zM481 274q0 48 8 66q11 26 38 55q4 4 11.5 13t11.5 13q18 24 23 36q8 20 8 42q0 26 -13 49
q-14 21 -46 23q-45 -2 -60 -29q-7 -13 -9 -30q-4 -23 -4 -36h-48q-2 54 25 94q29 41 89 41q55 0 85 -30q31 -29 31 -79q0 -30 -7 -48q-9 -24 -21 -36q-9 -10 -28 -33q-10 -12 -33 -38l-10 -20q-3 -16 -3 -49q0 -2 -12 -3t-24 -1h-12zM481 175v58h51v-58h-51z" />
    <glyph glyph-name="uniE63E" unicode="&#xe63e;" 
d="M296 308l90 288l89 -288h-179zM466 707h-136l-204 -646h94l49 154h236l49 -154h118zM680 211l52 138l52 -138h-104zM779 413h-79l-64 -171l28 -87v2h137l29 -89h68z" />
    <glyph glyph-name="uniE63F" unicode="&#xe63f;" 
d="M512 51zM512 719q-102 0 -188 -33.5t-137.5 -94.5t-51.5 -136q0 -76 50.5 -145.5t138.5 -113t187 -43.5h1h1q12 98 111.5 165t234.5 67h11h7q1 6 6.5 15t5.5 18q0 76 -51 145.5t-138.5 112.5t-187.5 43zM286 343q-31 0 -53.5 22t-22.5 53.5t22.5 53.5t53.5 22t53 -22
t22 -53.5t-22 -53.5t-53 -22zM418 531q-24 0 -40.5 16.5t-16.5 40t16.5 40t40 16.5t40 -16.5t16.5 -40t-16.5 -40t-39.5 -16.5zM604 571q-19 0 -32.5 13.5t-13.5 33t13.5 33t33 13.5t33 -13.5t13.5 -33t-13.5 -33t-33.5 -13.5zM738 495q-16 0 -26.5 10.5t-10.5 26t10.5 26.5
t26 11t26.5 -11t11 -26.5t-11 -26t-26 -10.5zM738 495z" />
    <glyph glyph-name="uniE640" unicode="&#xe640;" 
d="M384 704v-64h128l-128 -512h-128v-64h384v64h-128l128 512h128v64h-384z" />
    <glyph glyph-name="uniE641" unicode="&#xe641;" 
d="M427 27q42 -18 80 -18q215 0 215 191q0 65 -24 103q-15 25 -34.5 42t-38.5 26.5t-46.5 14.5t-48 6t-53.5 1q-42 0 -58 -6q0 -30 -0.5 -90.5t-0.5 -90.5q0 -4 -0.5 -38t0 -55.5t2.5 -48t7 -37.5zM419 453q24 -4 62 -4q47 0 82 7.5t63 25.5t42.5 51t14.5 81q0 40 -16.5 70
t-45 47t-62 25t-70.5 8q-29 0 -75 -7q0 -29 2.5 -87t2.5 -87q0 -15 -0.5 -45.5t-0.5 -44.5q0 -27 1 -40zM110 -55l1 54q8 2 48 9t61 15q4 7 7 15.5t5 19.5t3.5 19t1.5 21v19v38q0 561 -12 586q-3 4 -13 8t-25.5 6.5t-28.5 4t-27.5 2.5t-17.5 1l-2 48q56 1 194 6.5t213 5.5
q13 0 39 -0.5t39 -0.5q40 0 78 -7.5t73.5 -24t61.5 -40.5t42 -59.5t16 -78.5q0 -30 -9.5 -54.5t-22 -41t-36.5 -33t-42 -26t-48 -22.5q88 -20 146.5 -76.5t58.5 -141.5q0 -58 -20 -103t-53.5 -74.5t-78.5 -49t-93 -27.5t-101 -8q-25 0 -75.5 1.5t-75.5 1.5q-60 0 -175 -6
t-132 -7z" />
    <glyph glyph-name="uniE642" unicode="&#xe642;" 
d="M433 507l-125 -125q-10 -10 -10 -24.5t10 -24.5t24.5 -10t24.5 10l134 133v36l-58 -57v62zM624 466q14 -3 26.5 4.5t15.5 21.5t-4.5 26.5t-21.5 15.5l-107 25l-53 -33l79 -18q-23 -14 -31 -19zM221 156q-13 -12 -39.5 -12t-39.5 12l-12 12q-11 14 -3.5 48.5t21.5 48.5
l98 98q1 1 12 12.5t18 20.5t17.5 28t17.5 40q-36 7 -71.5 -3t-61.5 -37l-104 -103q-43 -43 -43 -104t43 -105l12 -12q43 -43 104.5 -43t104.5 43l104 104q27 27 37 64t2 74q-38 -20 -114 -83zM733 645q-36 8 -71 -1.5t-62 -33.5q13 -10 28 -17t43 -17t43 -16l139 -32
q18 -4 35.5 -28.5t14.5 -41.5l-4 -16q-5 -18 -29 -36t-41 -14l-141 32q-11 2 -34.5 5t-32 4t-23 2t-23.5 0t-17 -3q13 -34 40.5 -58t63.5 -33l143 -33q60 -14 112 18.5t66 91.5l4 17q13 59 -19 111t-92 66zM365 641l-26 -62l79 -30zM539 680l-42 -26l35 -51zM439 728l-43 3
l60 -132z" />
    <glyph glyph-name="uniE643" unicode="&#xe643;" 
d="M820 804h-616q-9 0 -17.5 -1t-27.5 -7t-32 -16.5t-24 -33.5t-11 -54v-616q0 -32 12 -55t27 -33.5t34.5 -16.5t27 -6.5t11.5 -0.5h616q32 0 55 12t33.5 26.5t16.5 34t6.5 27t0.5 12.5v616q0 31 -10.5 54t-23.5 33.5t-32 16.5t-27.5 7t-18.5 1zM876 76v-6q0 -4 -3 -13.5
t-8.5 -17t-17 -13.5t-27.5 -6l-211 220l-115 -100l-173 160l-173 -160v552q0 19 6 31.5t17 17t17.5 6t15.5 1.5h616q10 0 16.5 -1.5t17 -6t16.5 -17t6 -31.5v-616zM652.5 580q-46.5 0 -79.5 -33t-33 -79.5t33 -79.5t79.5 -33t79 33t32.5 79.5t-32.5 79.5t-79 33z" />
    <glyph glyph-name="uniE644" unicode="&#xe644;" 
d="M778 297l215 215q31 31 31 72t-31 71l-215 215q-13 13 -36 21q-5 5 -35 5q-26 0 -36 -5q-3 -1 -8.5 -4t-9.5 -4.5t-9.5 -5t-8.5 -7.5l-210 -220l-394 -394q-31 -31 -31 -72t31 -71l215 -215q25 -26 61 -26h5h5h6h599v51h-512zM348 -61q-8 -16 -31 -16h-5q-20 0 -36 16
l-215 215q-10 20 -10 35q0 21 16 36l332 333q0 -26 26 -51l215 -215q15 -16 46 -26z" />
    <glyph glyph-name="uniE645" unicode="&#xe645;" 
d="M870 701h-283v-19h26q31 0 50 -18.5t19 -81.5v-302q0 -81 -19 -138q-19 -47 -57 -75q-33 -25 -100 -25t-101 25q-37 28 -56 75t-19 138v302q0 72 19 82q17 13 28.5 15.5t33.5 2.5h26v19h-296v-19h25h19h7q30 -10 37 -25q13 -37 13 -75v-270q0 -126 19 -182q17 -52 81 -95
q74 -31 170 -31v0q107 0 163 38q62 35 82 94q19 56 19 182v264q0 50 12 75q8 15 38 25h6h19h25v19h-6zM135 -46h754v-63h-754v63z" />
    <glyph glyph-name="uniE646" unicode="&#xe646;" 
d="M934 173v-60q0 -12 -9 -21t-21 -9h-784q-12 0 -21 9t-9 21v60q0 12 9 21t21 9h784q12 0 21 -9t9 -21zM934 354v-60q0 -13 -9 -22t-21 -9h-603q-12 0 -21 9t-9 22v60q0 12 9 21t21 9h603q12 0 21 -9t9 -21zM934 535v-61q0 -12 -9 -21t-21 -9h-723q-13 0 -22 9t-9 21v61
q0 12 9 21t22 9h723q12 0 21 -9t9 -21zM934 715v-60q0 -12 -9 -21t-21 -9h-543q-12 0 -21 9t-9 21v60q0 13 9 22t21 9h543q12 0 21 -9t9 -22z" />
    <glyph glyph-name="uniE647" unicode="&#xe647;" 
d="M934 173v-60q0 -12 -9 -21t-21 -9h-784q-12 0 -21 9t-9 21v60q0 12 9 21t21 9h784q12 0 21 -9t9 -21zM753 354v-60q0 -13 -9 -22t-21 -9h-603q-12 0 -21 9t-9 22v60q0 12 9 21t21 9h603q12 0 21 -9t9 -21zM874 535v-61q0 -12 -9 -21t-22 -9h-723q-12 0 -21 9t-9 21v61
q0 12 9 21t21 9h723q13 0 22 -9t9 -21zM693 715v-60q0 -12 -9 -21t-21 -9h-543q-12 0 -21 9t-9 21v60q0 13 9 22t21 9h543q12 0 21 -9t9 -22z" />
    <glyph glyph-name="uniE648" unicode="&#xe648;" horiz-adv-x="1138" 
d="M95 383q0 113 55.5 209t152 152.5t210.5 57.5q114 0 210 -56t152 -153t56 -210q0 -114 -56 -210.5t-152.5 -152.5t-210.5 -56q-113 0 -209.5 56.5t-152 153t-55.5 209.5zM887 388q-1 103 -53 189t-140.5 134.5t-190.5 45.5q-101 -2 -184.5 -53.5t-132 -137.5t-47.5 -186
q1 -104 53 -190.5t141 -135.5t192 -46q100 3 184 54.5t132 138t46 187.5zM455 157q-5 1 -16 4q-13 3 -14 3q-3 1 -2 5q7 28 20.5 79.5t17.5 65.5q9 36 28 108t28 108q10 38 18 66q1 4 5 3q11 -3 26 -7q4 -1 3 -5q-4 -16 -12 -46t-9 -34q-25 -96 -38 -145l-40 -153
q-9 -33 -13 -49q-1 -3 -2 -3zM397 521q0 -1 2 -2l20 -20q3 -3 0 -6q-20 -19 -58.5 -58t-57.5 -58q-4 -3 0 -7q36 -36 107 -108q4 -3 4 -4t-3 -4l-9 -8l-9 -10q-3 -3 -7 0l-93 93l-30 30q-14 15 0 29q65 65 131 130zM763 381q0 -8 -7 -15l-34 -34l-34 -34l-62 -62q-3 -3 -6 0
l-19 19q-4 3 0 6q16 17 49 49l48 50q17 16 19 17q3 3 0 7q-12 12 -50.5 50t-58.5 59q-4 3 0 6q5 5 19 20q3 2 5 0l125 -125q6 -6 6 -13z" />
    <glyph glyph-name="uniE649" unicode="&#xe649;" 
d="M750 17l-237 164l-238 -165l82 278l-229 176l288 8l96 274l96 -274l289 -7l-229 -176z" />
    <glyph glyph-name="uniE64A" unicode="&#xe64a;" 
d="M512 812q18 0 30 -12l151 -151q13 -13 13 -30.5t-12.5 -30t-30.5 -12.5t-30 12l-78 78v-323h323l-78 78q-12 12 -12 30t12.5 30.5t30 12.5t30.5 -13l151 -151q12 -12 12 -30t-12 -30l-151 -151q-13 -13 -30.5 -13t-30 12.5t-12.5 30.5t12 30l78 78h-323v-323l78 78
q12 12 30 12t30.5 -12.5t12.5 -30t-13 -30.5l-151 -151q-12 -12 -30 -12t-30 12l-151 151q-13 13 -13 30.5t12.5 30t30.5 12.5t30 -12l78 -78v323h-323l78 -78q12 -12 12 -30t-12.5 -30.5t-30 -12.5t-30.5 13l-151 151q-12 12 -12 30t12 30l151 151q13 13 30.5 13t30 -12.5
t12.5 -30.5t-12 -30l-78 -78h323v323l-78 -78q-12 -12 -30 -12t-30.5 12.5t-12.5 30t13 30.5l151 151q12 12 30 12z" />
    <glyph glyph-name="uniE64B" unicode="&#xe64b;" 
d="M483 362zM290 572q19 0 31.5 13t12.5 33v43v0v43q0 19 -12 32q-20 21 -48 10.5t-28 -40.5v-45v-42q0 -20 12.5 -33.5t31.5 -13.5zM737.5 571q18.5 0 31 13.5t12.5 32.5v43v0v43q0 20 -11 32q-21 22 -49 11t-28 -41v-45v-42q0 -20 13 -33.5t31.5 -13.5zM544 243h118v-87
h-118v87zM723 362h117v-87h-117v87zM723 243h117v-87h-117v87zM365 124h118v-88h-118v88zM544 124h117v-87h-117v87zM723 124h117v-87h-117v87zM186 124h118v-88h-118v88zM187 243h117v-88h-117v88zM544 362h117v-87h-117v87zM365 243h118v-87h-118v87zM365 362h118v-87
h-118v87zM942 661h-110v-15q-1 -40 -26 -68t-63 -31h-7q-4 0 -8 1q-37 3 -62 31.5t-25 67.5v7v7h-258v-15q0 -42 -27.5 -70.5t-67.5 -28.5t-68 29t-28 71v8v6h-110q-8 0 -13 -5t-5 -12v-739q0 -7 5 -12t13 -5h860q8 0 13 5t5 12v739q0 7 -5 12t-13 5zM907 -54h-787v24v28
v430h787v-430v-52z" />
    <glyph glyph-name="uniE64C" unicode="&#xe64c;" horiz-adv-x="1025" 
d="M1008 -279h-992q-68 0 -117.5 49.5t-49.5 117.5v992q0 68 49.5 117.5t117.5 49.5h992q68 0 117.5 -49.5t49.5 -117.5v-992q4 -67 -47 -117t-120 -50zM1131 880q0 44 -36.5 83.5t-86.5 39.5h-995q-50 0 -86.5 -39.5t-36.5 -83.5v-995q0 -46 38.5 -84.5t84.5 -38.5h995
q49 0 86 35.5t37 87.5v995z" />
    <glyph glyph-name="uniE64D" unicode="&#xe64d;" 
d="M521 58h-21q-92 0 -158 59q-65 60 -65 144v316q0 84 65 144q66 59 158 59h21q92 0 157 -59q66 -60 66 -144v-316q0 -84 -66 -144q-65 -59 -157 -59zM500 765q-86 0 -147 -55t-61 -133v-316q0 -78 61 -133t147 -55h21q86 0 147 55t61 133v316q0 78 -61 133t-147 55h-21z
M511.5 399q-7.5 0 -7.5 8v272q0 8 7.5 8t7.5 -8v-272q0 -8 -7.5 -8zM570 -18l-10 11l-56 -56l-55 56l-11 -11l66 -66v0zM571 -119l-10 11l-56 -56l-55 55l-11 -10l66 -67v1z" />
    <glyph glyph-name="uniE64F" unicode="&#xe64f;" 
d="M512 806q-115 0 -212 -56.5t-153.5 -153.5t-56.5 -212t56.5 -212t153.5 -153.5t212 -56.5t212 56.5t153.5 153.5t56.5 212t-56.5 212t-153.5 153.5t-212 56.5zM512 5q-103 0 -190.5 50.5t-138 138t-50.5 190.5t50.5 190.5t138 138t190.5 50.5t190.5 -50.5t138 -138
t50.5 -190.5t-50.5 -190.5t-138 -138t-190.5 -50.5zM539 421v240q0 12 -8 20.5t-19 8.5t-19 -8.5t-8 -20.5v-240q-18 -14 -18 -37q0 -5 1 -11l-113 -113q-5 -6 -4 -15.5t9 -17t17.5 -9t15.5 3.5l116 117h3q19 0 32 13t13 32q0 23 -18 37z" />
    <glyph glyph-name="uniE650" unicode="&#xe650;" 
d="M790 667l-259 222q-5 5 -19 4q-7 0 -13 -2q-8 -3 -13 -8l-1 -1l-2 -2l-257 -222q-6 -3 -5 -19t11 -26t26 -10.5t19 4.5l198 170v-873q0 -8 11 -18t25 -10t25.5 10t11.5 18v875l190 -163q28 -28 53.5 -2t-1.5 53z" />
    <glyph glyph-name="uniE651" unicode="&#xe651;" 
d="M782 384q0 80 -43 147l-374 -374q68 -44 147 -44q55 0 105 21.5t86 57.5t57.5 86.5t21.5 105.5zM286 236l375 374q-67 45 -149 45q-73 0 -135 -36t-98.5 -98.5t-36.5 -136.5q0 -80 44 -148zM893 384q0 -78 -30 -149t-81 -122t-122 -81t-148 -30t-148 30t-122 81t-81 122
t-30 149t30 149t81 122t122 81t148 30t148 -30t122 -81t81 -122t30 -149z" />
    <glyph glyph-name="uniE652" unicode="&#xe652;" 
d="M336 755q14 0 23 -9l361 -361l-361 -361q-10 -11 -23 -11t-23 10.5t-10 23t10 23.5l315 315l-315 314q-10 11 -10 23.5t10 23.5q9 9 23 9z" />
    <glyph glyph-name="uniE653" unicode="&#xe653;" 
d="M688 13q-14 0 -23 9l-361 361l361 361q10 11 23 11t23 -10.5t10 -23t-10 -23.5l-315 -315l315 -314q10 -11 10 -23.5t-10 -23.5q-9 -9 -23 -9z" />
    <glyph glyph-name="uniE654" unicode="&#xe654;" horiz-adv-x="1025" 
d="M830 178l-318 347l-318 -347q-9 -9 -22 -9t-22 9t-9 22t9 22l338 369q10 9 24 9t24 -9l338 -369q9 -9 9 -22t-9 -22t-22 -9t-22 9zM830 178z" />
    <glyph glyph-name="uniE655" unicode="&#xe655;" horiz-adv-x="1025" 
d="M194 590l318 -347l318 347q9 9 22 9t22 -9t9 -22t-9 -22l-338 -369q-10 -9 -24 -9t-24 9l-338 369q-9 9 -9 22t9 22t22 9t22 -9zM194 590z" />
    <glyph glyph-name="uniE656" unicode="&#xe656;" 
d="M512 -6q-162 0 -276 114t-114 276t114 276t276 114t276 -114t114 -276t-114 -276t-276 -114zM512 714q-137 0 -233.5 -96.5t-96.5 -233.5t96.5 -233.5t233.5 -96.5t233.5 96.5t96.5 233.5t-96.5 233.5t-233.5 96.5z" />
    <glyph glyph-name="uniE657" unicode="&#xe657;" horiz-adv-x="1038" 
d="M512 -65l-1 1l-1 1l-1 1v1l-1 1l-1 1l-1 1l-1 1l-1 1v1l-1 1l-1 1l-1 1l-1 1l-1 1v1l-1 1l-1 1l-1 1l-1 1v1l-1 1l-1 1l-1 1l-1 1l-1 1v1l-1 1l-1 1l-1 1l-1 1l-1 1v1l-1 1l-1 1l-1 1l-1 1l-1 1v1l-1 1l-1 1l-1 1l-1 1v1l-1 1l-1 1l-1 1l-1 1l-1 1v1l-1 1l-1 1l-1 1l-1 1
l-1 1v1l-1 1l-1 1l-1 1l-1 1l-1 1v1l-1 1l-1 1l-1 1l-1 1v1l-1 1l-1 1l-1 1l-1 1l-1 1v1l-1 1l-1 1l-1 1l-1 1l-1 1v1l-1 1l-1 1l-1 1l-1 1v1l-1 1l-1 1l-1 1l-1 1l-1 1v1l-1 1l-1 1l-1 1l-1 2l-1 1v1l-1 1l-1 1l-1 1l-1 1v1l-1 1l-1 1l-1 1l-1 1l-1 1v1l-1 1l-1 1l-1 1
l-1 1l-1 1v1l-1 1l-1 1l-1 1l-1 1v1l-1 1l-1 1l-1 1l-1 1l-1 1v1l-1 1l-1 1l-1 1l-1 1l-1 1v1l-1 1l-1 1l-1 1l-1 1l-1 1v1l-1 1l-1 1l-1 1l-1 1v1l-1 1l-1 1l-1 1l-1 1l-1 1v1l-1 1l-1 1l-1 1l-1 1v1l-1 1l-1 1l-1 1l-1 1l-1 1v1l-1 1l-1 1l-1 1l-1 1l-1 1v1l-1 1l-1 1
l-1 1l-1 1v1l-1 1l-1 1l-1 1l-1 1l-1 1v1l-1 1l-1 1l-1 1l-1 1l-1 1v1l-1 1l-1 1l-1 1l-1 1v1l-1 1l-1 1l-1 1l-1 1l-1 1v1l-1 1l-1 1l-1 1l-1 1l-1 1v1l-1 1l-1 1l-1 1l-1 1v1l-1 1l-1 1l-1 1l-1 1l-1 1v1l-1 1l-1 1l-1 1l-1 1l-1 1v1l-1 1l-1 1l-1 1l-1 1v1l-1 1l-1 1
l-1 1l-1 1l-1 1v1l-1 1l-1 1l-1 1l-1 1v1l-1 1l-1 1l-1 1l-1 1l-1 1v1l-1 1l-1 1l-1 1l-1 1l-1 1v1l-1 1l-1 1l-1 1l-1 1v1l-1 1l-1 1l-1 1l-1 1l-1 1v1l-1 1l-1 1l-1 1l-1 1v1l-1 1l-1 1l-1 1l-1 1l-1 1v1l-1 1l-1 1l-1 1l-1 1l-1 1v1l-1 1l-1 1l-1 1l-1 1v1l-1 1l-1 1
l-1 1l-1 1l-1 1v1l-1 1l-1 1l-1 1l-1 1v1l-1 1l-1 1l-1 1l-1 1l-1 1v1l-1 1l-1 1l-1 1l-1 1l-1 1v1l-1 1l-1 1l-1 1l-1 1v1l-1 1l-1 1l-1 1l-1 1l-1 1v1l-1 1l-1 1l-1 1l-1 1v1l-1 1l-1 1l-1 1l-1 1l-1 1v1l-1 1l-1 1l-1 1l-1 1l-1 1v1l-1 1l-1 1l-1 1l-1 1v1l-1 1l-1 1
l-1 1l-1 1l-1 1v1l-1 1l-1 1l-1 1l-1 1v1l-1 1l-1 1l-1 1l-1 1l-1 1v1l-1 1l-1 1l-1 1l-1 1v1l-1 1l-1 1l-1 1l-1 1l-1 1v1l-1 1l-1 1l-1 1l-1 1l-1 1v1l-1 1l-1 1l-1 1l-1 1v1l-1 1l-1 1l-1 1l-1 1l-1 1v1l-1 1l-1 1l-1 1l-1 1l-1 1v1l-1 1l-1 1l-1 1l-1 1v1l-1 1l-1 1
l-1 1l-1 1l-1 1v1l-1 1l-1 1l-1 1l-1 1v1l-1 1l-1 1l-1 1l-1 1l-1 1v1l-1 1l-1 1l-1 1l-1 1l-1 1v1l-1 1l-1 1l-1 1l-1 1v1l-1 1l-1 1l-1 1l-1 1l-1 1v1l-1 1l-1 1l-1 1l-1 1v1l-1 1l-1 1l-1 1l-1 1l-1 1v1l-1 1l-1 1l-1 1l-1 1l-1 1v1l-1 1l-1 1l-1 1l-1 1v1l-1 1l-1 1
l-1 1l-1 1l-1 1v1l-1 1l-1 1l-1 1l-1 1v1l-1 1l-1 1l-1 1l-1 1l-1 1v1l-1 1l-1 1l-1 1l-1 1l-1 1v1l-1 1l-1 1l-1 1l-1 1v1l-1 1l-1 1l-1 1l-1 1l-1 1v1l-1 1l-1 1l-1 1l-1 1v1l-1 1l-1 1l-1 1l-1 1l-1 1v1l-1 1l-1 1l-1 1l-1 1v1l-1 1l-1 1l-1 1l-1 1l-1 1v1l-1 1l-1 1
l-1 1l-1 1l-1 1v1l-1 1l-1 1l-1 1l-1 1v1l-1 1l-1 1l-1 1l-1 1l-1 1v1l-1 1l-1 1l-1 1l-1 1v1l-1 1l-1 1l-1 1l-1 1l-1 1v1l-1 1l-1 1l-1 1l-1 1v1l-1 1l-1 1l-1 1l-1 1l-1 1v1l-1 1l-1 1l-1 1l-1 1l-1 1v1l-1 1l-1 1l-1 1l-1 1v1l-1 1l-1 1l-1 1l-1 1l-1 1v1l-1 1l-1 1
l-1 1l-1 1v1l-1 1l-1 1l-1 1l-1 1l-1 1v1l-1 1l-1 1l-1 1l-1 1v1l-1 1l-1 1l-1 1l-1 1l-1 1v1l-1 1l-1 1l-1 1l-1 1l-1 1v1l-1 1l-1 1l-1 1l-1 1v1l-1 1l-1 1l-1 1l-1 1l-1 1v1l-1 1l-1 1l-1 1l-1 1v1l-1 1l-1 1l-1 1l-1 1l-1 1v1l-1 1l-1 1l-1 1l-1 1v1l-1 1l-1 1l-1 1
l-1 1l-1 1v1l-1 1l-2 2q114 202 144 253q3 6 12 10.5t17 4.5q343 2 675 0q8 0 16.5 -5t12.5 -11q29 -50 143 -252q-196 -241 -510 -621z" />
    <glyph glyph-name="uniE658" unicode="&#xe658;" 
d="M512 732q-94 0 -174.5 -46.5t-127 -127t-46.5 -174.5t46.5 -174.5t127 -127t174.5 -46.5t174.5 46.5t127 127t46.5 174.5t-46.5 174.5t-127 127t-174.5 46.5zM512 102q-117 0 -199.5 82.5t-82.5 199.5t82.5 199.5t199.5 82.5t199.5 -82.5t82.5 -199.5t-82.5 -199.5
t-199.5 -82.5zM405 252l62 -62l193 194l-193 194l-62 -62l132 -132z" />
    <glyph glyph-name="uniE659" unicode="&#xe659;" 
d="M164 384q0 -94 46.5 -174.5t127 -127t174.5 -46.5t174.5 46.5t127 127t46.5 174.5t-46.5 174.5t-127 127t-174.5 46.5t-174.5 -46.5t-127 -127t-46.5 -174.5zM794 384q0 -117 -82.5 -199.5t-199.5 -82.5t-199.5 82.5t-82.5 199.5t82.5 199.5t199.5 82.5t199.5 -82.5
t82.5 -199.5zM644 277l62 62l-194 193l-194 -193l62 -62l132 132z" />
    <glyph glyph-name="uniE65A" unicode="&#xe65a;" horiz-adv-x="1280" 
d="M640 320q78 0 148 -29.5t123 -83.5l-90 -90q-75 75 -181 75t-181 -75l-90 90q53 54 123 83.5t148 29.5zM187 389q91 90 208 138.5t245 48.5t245 -48.5t208 -138.5l-91 -91q-72 73 -165.5 111.5t-196.5 38.5t-196.5 -38.5t-165.5 -111.5zM989 762q161 -68 285 -192
l-91 -91q-109 109 -249 167t-294 58t-294 -58t-249 -167l-91 91q124 124 285 192q167 70 349 70t349 -70zM576 0q0 27 18.5 45.5t45.5 18.5t45.5 -18.5t18.5 -45.5t-18.5 -45.5t-45.5 -18.5t-45.5 18.5t-18.5 45.5z" />
    <glyph glyph-name="uniE65B" unicode="&#xe65b;" 
d="M817 689q-83 83 -194 112t-222 0t-194 -112t-112 -194t0 -222t112 -194t194 -112t222 0t194 112t112 194t0 222t-112 194zM770 126q-70 -70 -164 -95t-188 0t-164 95t-95 164t0 188t95 164t164 95t188 0t164 -95t95 -164t0 -188t-95 -164zM352 454h-29q-4 0 -6 4
q-1 2 -1 3q0 2 2 4l62 79q2 3 5.5 3t5.5 -3l62 -79q3 -3 1 -7t-6 -4h-29q-2 0 -4 2l-30 38l-30 -38q-1 -2 -3 -2zM714 465q3 -3 1 -7t-6 -4h-29q-2 0 -4 2l-30 38l-30 -38q-1 -2 -3 -2h-29q-4 0 -6 4q-1 2 -1 3q0 2 2 4l62 79q2 3 5.5 3t5.5 -3zM699 294
q-24 -54 -74.5 -86.5t-112.5 -32.5t-113 32.5t-74 87.5q-4 9 0 18.5t13 13.5q5 2 10 2q16 0 22 -15q17 -41 56 -65.5t86 -24.5t85.5 24.5t56.5 65.5q4 9 13.5 12.5t18.5 -0.5t13 -13t0 -19z" />
    <glyph glyph-name="uniE65C" unicode="&#xe65c;" 
d="M797 402.5q0 -7.5 -6 -13.5l-266 -266q-6 -6 -13 -6t-13 6l-266 266q-6 6 -6 13.5t6 12.5l28 29q6 6 13.5 6t12.5 -6l225 -225l225 225q5 6 12.5 6t13.5 -6l28 -29q6 -5 6 -12.5zM797 621.5q0 -7.5 -6 -12.5l-266 -267q-6 -5 -13 -5t-13 5l-266 267q-6 5 -6 12.5t6 13.5
l28 28q6 6 13.5 6t12.5 -6l225 -224l225 224q5 6 12.5 6t13.5 -6l28 -28q6 -6 6 -13.5z" />
    <glyph glyph-name="uniE65D" unicode="&#xe65d;" 
d="M578 109.5q0 -7.5 -6 -12.5l-29 -29q-5 -6 -12.5 -6t-13.5 6l-266 266q-6 6 -6 13.5t6 13.5l266 266q6 6 13.5 6t12.5 -6l29 -29q6 -5 6 -12.5t-6 -13.5l-225 -225l225 -224q6 -6 6 -13.5zM797 109.5q0 -7.5 -6 -12.5l-28 -29q-6 -6 -13.5 -6t-12.5 6l-267 266
q-5 6 -5 13.5t5 13.5l267 266q5 6 12.5 6t13.5 -6l28 -29q6 -5 6 -12.5t-6 -13.5l-224 -225l224 -224q6 -6 6 -13.5z" />
    <glyph glyph-name="uniE65E" unicode="&#xe65e;" 
d="M559 347.5q0 -7.5 -5 -13.5l-267 -266q-5 -6 -12.5 -6t-13.5 6l-28 29q-6 5 -6 12.5t6 13.5l224 224l-224 225q-6 6 -6 13.5t6 12.5l28 29q6 6 13.5 6t12.5 -6l267 -266q5 -6 5 -13.5zM779 347.5q0 -7.5 -6 -13.5l-266 -266q-6 -6 -13.5 -6t-12.5 6l-29 29q-6 5 -6 12.5
t6 13.5l225 224l-225 225q-6 6 -6 13.5t6 12.5l29 29q5 6 12.5 6t13.5 -6l266 -266q6 -6 6 -13.5z" />
    <glyph glyph-name="uniE65F" unicode="&#xe65f;" 
d="M797 146.5q0 -7.5 -6 -13.5l-28 -28q-6 -6 -13.5 -6t-12.5 6l-225 224l-225 -224q-5 -6 -12.5 -6t-13.5 6l-28 28q-6 6 -6 13.5t6 12.5l266 267q6 5 13 5t13 -5l266 -267q6 -5 6 -12.5zM797 365.5q0 -7.5 -6 -12.5l-28 -29q-6 -6 -13.5 -6t-12.5 6l-225 225l-225 -225
q-5 -6 -12.5 -6t-13.5 6l-28 29q-6 5 -6 12.5t6 13.5l266 266q6 6 13 6t13 -6l266 -266q6 -6 6 -13.5z" />
    <glyph glyph-name="uniE660" unicode="&#xe660;" 
d="M896 160v6q1 165 -98 265q-103 104 -286 112v161l-384 -256l384 -256v160q55 -2 93 -11.5t80 -28.5q77 -35 152 -154l38 -62h21v32v32zM864 173q-69 119 -156.5 165t-227.5 46v-130l-296 194l296 193v-129q260 0 349 -180q38 -80 35 -159z" />
    <glyph glyph-name="uniE661" unicode="&#xe661;" 
d="M128 96h21l38 62q74 119 152 154q42 19 80 28.5t93 11.5v-160l384 256l-384 256v-161q-183 -8 -287 -112q-99 -100 -97 -265v-6v-64zM544 512v129l296 -193l-296 -194v130q-140 0 -227.5 -46t-156.5 -165q-1 7 -0.5 19.5t6.5 47.5t18 67t40 71t67.5 67t105 47.5
t147.5 19.5z" />
    <glyph glyph-name="uniE662" unicode="&#xe662;" 
d="M462 682v-579l290 289z" />
    <glyph glyph-name="uniE663" unicode="&#xe663;" 
d="M665.5 320q-7.5 0 -10.5 3l-117 117q-12 12 -27.5 12t-26.5 -12l-118 -117q-9 -9 -18 0t0 17l118 118q17 18 44.5 18t45.5 -18l117 -118q9 -8 0 -17q0 -3 -7.5 -3z" />
    <glyph glyph-name="uniE664" unicode="&#xe664;" 
d="M512 289q-24 0 -46 18l-118 118q-9 9 0 18t18 0l118 -118q11 -11 26.5 -11t27.5 11l117 118q9 9 18 0t0 -18l-117 -118q-18 -18 -44 -18z" />
    <glyph glyph-name="uniE665" unicode="&#xe665;" 
d="M870 42h-72v-18q0 -37 -26 -63.5t-63 -26.5h-557q-37 0 -63 26.5t-26 63.5v718q0 37 26 63t63 26h392v3l3 -3v0l249 -269h2v-3l2 -1h-2v-211h72q37 0 63.5 -26.5t26.5 -63.5v-126q0 -37 -26.5 -63t-63.5 -26zM547 767v-115q0 -37 26.5 -63.5t63.5 -26.5h103zM762 526
h-161q-37 0 -63.5 26.5t-26.5 63.5v179h-323q-37 0 -63.5 -26t-26.5 -63v-646q0 -38 26.5 -64t63.5 -26h485q32 0 56.5 20.5t31.5 51.5h-483q-37 0 -63.5 26t-26.5 63v126q0 37 26.5 63.5t63.5 26.5h484v179zM643 106h30l31 122v-122h29v154h-47l-28 -105l-28 105h-46v-154
h29v122zM559 234v26h-123v-26h46v-128h31v128h46zM318 200v60h-32v-154h32v68h61v-68h31v154h-31v-60h-61zM878 132h-77v127h-31v-153h108v26zM315 723h26l-45 -338h-25zM480 526l-122 -98v63l85 62l-85 60v63l122 -97v-53zM132 580l122 97v-64l-85 -60l85 -62v-63l-122 98
v54z" />
    <glyph glyph-name="uniE666" unicode="&#xe666;" horiz-adv-x="1025" 
d="M934 173v-60q0 -12 -9 -21t-21 -9h-784q-12 0 -21 9t-9 21v60q0 12 9 21t21 9h784q12 0 21 -9t9 -21zM753 354v-60q0 -13 -9 -22t-21 -9h-422q-12 0 -21 9t-9 22v60q0 12 9 21t21 9h422q12 0 21 -9t9 -21zM874 535v-61q0 -12 -9 -21t-22 -9h-662q-13 0 -22 9t-9 21v61
q0 12 9 21t22 9h662q13 0 22 -9t9 -21zM693 715v-60q0 -12 -9 -21t-21 -9h-302q-12 0 -21 9t-9 21v60q0 13 9 22t21 9h302q12 0 21 -9t9 -22z" />
    <glyph glyph-name="uniE667" unicode="&#xe667;" 
d="M151 84h723v-76h-723v76z" />
    <glyph glyph-name="uniE668" unicode="&#xe668;" 
d="M356 880h-148h-161q-20 0 -25.5 -8t-5.5 -24v-154v-155q0 -14 10.5 -16.5t17.5 4.5q29 29 162 161t161 160q10 11 6 21.5t-17 10.5z" />
    <glyph glyph-name="uniE669" unicode="&#xe669;" 
d="M887 440h-54v67q0 42 -30 71.5t-72 29.5h-320l-22 83q-5 18 -21.5 30.5t-35.5 12.5h-165q-43 0 -72.5 -30t-29.5 -72l-1 -497q0 -42 29.5 -72t72.5 -30h555q54 0 93 59l135 244q22 39 2.5 71.5t-64.5 32.5zM167 672h141q8 0 15.5 -6t9.5 -14q14 -52 18 -65q16 -44 44 -44
h336q16 0 27 -11t11 -26v-66h-388q-35 0 -71.5 -18.5t-57.5 -46.5l-124 -168l1 427q0 16 11 27t27 11zM893 367l-129 -235q-22 -35 -43 -35h-555q-16 0 -27 11q-1 1 -2 3l167 226q11 15 34.5 27t42.5 12h506q5 0 9 -1q-1 -4 -3 -8v0z" />
  </font>
</defs>
</svg>
